<svg width="14" height="14" viewBox="0 0 14 14" xmlns="http://www.w3.org/2000/svg"><title>2x</title><g fill="currentColor" fill-rule="evenodd"><path d="M7 13.5a6.5 6.5 0 1 1 0-13 6.5 6.5 0 0 1 0 13zm0-1a5.5 5.5 0 1 0 0-11 5.5 5.5 0 0 0 0 11z" fill-rule="nonzero"/><path d="M6.54 9.213H4v-.686l1.56-1.814c.153-.182.218-.31.218-.504 0-.311-.182-.522-.505-.522-.252 0-.51.129-.51.533H4C4 5.458 4.557 5 5.273 5c.74 0 1.268.464 1.268 1.215 0 .404-.159.622-.446.956L4.927 8.527h1.614v.686zm3.809 0h-.933l-.81-1.455-.804 1.455H6.87l1.297-2.142-1.215-2.036h.928l.727 1.35.734-1.35h.92L9.047 7.071l1.303 2.142z"/></g></svg>
