<svg width="150" height="159" viewBox="0 0 150 159" xmlns="http://www.w3.org/2000/svg"><title>elevation</title><path d="M6.002 139.293c.32-6.692 46.239-97.767 55.764-116.639C64.936 16.372 73.698.442 81.914 4.719c8.217 4.277 13.241 13.556 17.165 23.158.703 1.72 45.13 98.426 45.92 111.416.299 4.937-34.734 13.707-73.395 13.707-25.14 0-65.923-7.015-65.602-13.707zm98.905-76.846c-3.664-10.008-7.423-18.845-11.28-26.511-1.557-3.096-11.886-22.146-15.06-21.284-2.117.575-5.111 3.965-8.982 10.17-3.066 5.177-5.199 8.894-6.4 11.15-2.599 4.882-6.165 11.872-10.7 20.971-9.132 14.574 1.967 14.245 2.381 14.251 5.222.083 6.822-4.535 8.84-9.05 1.088-2.432 5.974-7.702 7.036-.95.322 2.046 2 8.331 6.141 8.352 5.97.03 4.476-6.093 7.414-9.263 7.308-7.885 11.78 6.108 13.192 7.006 2.64 1.68 7.413 3.132 7.418-4.842z" fill="currentColor" fill-rule="evenodd"/></svg>