<svg viewBox="0 0 30 47" xmlns="http://www.w3.org/2000/svg"><title>hiker</title><path d="M16.895 9.36c2.478 0 4.505-1.881 4.505-4.18 0-2.3-2.027-4.18-4.505-4.18-2.478 0-4.505 1.88-4.505 4.18 0 2.299 2.027 4.18 4.505 4.18zM8.56 16.466L2.253 45.934h4.73l4.055-16.72 4.73 4.18v12.54h4.506V30.259l-4.73-4.18 1.351-6.27c2.928 3.135 7.434 5.225 12.39 5.225v-4.18c-4.28 0-7.885-2.09-9.687-5.015l-2.252-3.344c-.902-1.254-2.253-2.09-3.83-2.09-.676 0-1.126.209-1.802.209L0 15.212v9.822h4.505V17.93l4.055-1.463z" fill="#494949"/></svg>
