<svg viewBox="0 0 1163 245" xmlns="http://www.w3.org/2000/svg"><title>logo-full</title><g fill="none" fill-rule="evenodd"><path d="M77.149 130.516c0 14.873.417 28.773-10.008 39.198-7.228 7.228-15.568 11.12-27.661 11.12-12.093 0-20.433-3.892-27.661-11.12-10.425-10.425-10.008-24.325-10.008-39.198 0-14.873-.417-28.773 10.008-39.198 7.228-7.228 15.568-11.12 27.661-11.12 12.093 0 20.433 3.892 27.661 11.12 10.425 10.425 10.008 24.325 10.008 39.198zm-24.325 0c0-18.07-1.39-21.406-3.614-24.325-1.807-2.363-5.282-4.309-9.73-4.309s-7.923 1.946-9.73 4.309c-2.224 2.919-3.614 6.255-3.614 24.325s1.39 21.267 3.614 24.186c1.807 2.363 5.282 4.448 9.73 4.448s7.923-2.085 9.73-4.448c2.224-2.919 3.614-6.116 3.614-24.186zM187.36 145.25c0 21.684-17.097 35.584-37.669 35.584-20.572 0-37.391-13.9-37.391-35.584V81.032h24.325v63.662c0 9.174 5.004 14.456 13.066 14.456 8.062 0 13.344-5.282 13.344-14.456V81.032h24.325v64.218zm105.485-42.534H268.52V180h-24.325v-77.284H219.87V81.032h72.975v21.684zM394.299 180h-67.276V81.032h67.276v21.684h-42.951v16.541h36.696v21.684h-36.696v17.375h42.951V180zm115.493 0h-28.217l-17.514-36.835h-8.201V180h-24.325V81.032h39.198c21.962 0 33.777 15.568 33.777 31.831 0 13.483-8.34 21.962-16.124 25.854L509.792 180zm-29.607-67.137c0-5.143-3.892-10.008-10.564-10.008H455.86v20.016h13.761c6.672 0 10.564-4.865 10.564-10.008zM837.891 180h-24.325v-47.399l-14.039 24.464h-15.568l-14.039-24.464V180h-24.325V81.032h23.908l22.24 43.646 22.24-43.646h23.908V180zm120.775 0h-25.437l-4.587-14.734h-30.441L893.336 180h-25.437L903.9 81.032h18.765L958.666 180zm-36.418-35.028l-8.34-26.41-8.896 26.41h17.236zm139.401-32.109c0 16.263-11.815 31.831-33.777 31.831h-14.873V180h-24.325V81.032h39.198c21.962 0 33.777 15.568 33.777 31.831zm-24.325 0c0-5.143-3.892-10.008-10.564-10.008h-13.761v20.016h13.761c6.672 0 10.564-4.865 10.564-10.008zm124.945 36.835c0 20.155-17.375 31.136-38.225 31.136-15.151 0-27.522-2.78-37.53-13.066l15.568-15.568c5.143 5.143 14.178 6.95 22.101 6.95 9.591 0 14.178-3.197 14.178-8.896 0-2.363-.556-4.309-1.946-5.838-1.251-1.251-3.336-2.224-6.533-2.641l-11.954-1.668c-8.757-1.251-15.429-4.17-19.877-8.757-4.587-4.726-6.811-11.398-6.811-19.877 0-18.07 13.622-31.275 36.14-31.275 14.178 0 24.881 3.336 33.36 11.815l-15.29 15.29c-6.255-6.255-14.456-5.838-18.765-5.838-8.479 0-11.954 4.865-11.954 9.174 0 1.251.417 3.058 1.946 4.587 1.251 1.251 3.336 2.502 6.811 2.919l11.954 1.668c8.896 1.251 15.29 4.031 19.46 8.201 5.282 5.143 7.367 12.51 7.367 21.684z" fill="#5800EC"/><g transform="translate(555 9)"><path d="M112.297 205.65c-11.934-.116-1.197-56.794-23.098-56.794-17.605 0-8.449 40.863-20.769 41.094-12.32.23-5.717-16.702-12.664-14.46-5.963 1.925-5.136 35.051-12.981 34.801-7.846-.25-11.085-52.564-18.97-52.564-11.855 0-3.74 20.765-13.707 20.765C.14 178.492 0 162.172 0 120.664c0-4.263.997-16.02 4.837-26.762 14.775-41.33 25.176-74.365 40.527-74.9 6.098-.213 25.378 24.792 26.23 25.924.795 1.055 13.859-9.874 17.605-9.776 5.989.157 34.097 42.58 34.097 60.878 0 8.008 2.387 17.717 2.387 25.973v35.726c0 40.26-1.452 48.04-13.386 47.924zm-5.059-189.517c5.423-1.901 11.223-1.846 16.323 1.058 3.08 1.755 6.342 3.39 8.866 6.193 3.41 3.787 6.59 7.502 7.343 13.043.08 6.05-.199 10.69-3.437 14.426-2.029 2.342-3.675 5.129-6.133 7.349a25.406 25.406 0 0 0 9.016-5.256c5.753-5.18 8.243-11.52 8.566-19.121-.793-6.168-2.365-11.323-6.32-15.714-2.491-2.769-5.356-3.995-8.739-6.142-9.536-2.55-18.201-1.98-25.485 4.164z" fill="#5800EC"/><path d="M25.768 56.34c-2.941 5.113 3.166 13.054 8.168 9.244 5.002-3.81 5.073 7.446 17.775 8.086 7.225.364 12.724-11.814 14.723-13.414 5.474-4.383 9.352 9.005 16.228 7.44 4.447-1.012 1.526-8.197 3.753-10.095 3.36-2.862 6.72 2.143 11.775 3.852 1.107.375 4.003.34 1.37-3.318-.571-.795-9.193-13.444-11.913-13.016-4.288.675-12.905 9.649-16.182 9.548-3.199-.098-21.97-27.712-27.405-26.636-1.497.296-2.67.405-6.328 4.832-3 3.633-6.989 11.458-11.964 23.476z" fill="#FFF"/><circle fill="#5800EC" cx="43" cy="222" r="5"/></g></g></svg>