<svg width="15" height="15" viewBox="0 0 15 15" xmlns="http://www.w3.org/2000/svg"><title>national-park</title><g fill="none" fill-rule="evenodd"><path d="M8.29.557a.5.5 0 0 1 .225-.02c.081.011.165.038.3.088L9.14.75a4.764 4.764 0 0 0 .363.12c.094.025.209.038.343.035l.226-.003.126.21a3.59 3.59 0 0 0 .15.229.216.216 0 0 0 .033.027l.084.055c.104.072.18.152.234.286.017.029.023.037.045.07a.523.523 0 0 1 .074.35 1.434 1.434 0 0 1-.006.044l-.025.184-.13.115-.075.06c.289.093.761.133 1.401.105l.129-.006.766.54.011.243c.013.284.015.488.004.63a1.2 1.2 0 0 1 .014.071c.01.066.014.123.004.198a.765.765 0 0 1-.1.29.55.55 0 0 1-.02.056.608.608 0 0 1-.005.145 38.22 38.22 0 0 1-.327 1.862c-.02.1-.06.186-.116.259l.008.075a.756.756 0 0 1-.014.236.813.813 0 0 0-.007.217c.004.099.004.143.002.207a.593.593 0 0 1-.093.3.723.723 0 0 1-.064.302 4.29 4.29 0 0 1-.126.253c-.14.264-.145.275-.168.34-.035.096-.07.188-.105.276-.06.15-.122.298-.185.444a.778.778 0 0 1-.136.212 1.002 1.002 0 0 1-.109.105.217.217 0 0 0-.034.064 1.837 1.837 0 0 1-.06.152.864.864 0 0 1-.313.362.113.113 0 0 0-.017.073c.004.115.005.164 0 .232a.795.795 0 0 1-.095.35c-.084.15-.17.297-.257.439-.066.109-.13.165-.28.281l-.032.025a.642.642 0 0 1-.117.352l-.097.136a.95.95 0 0 1-.236.222l-.097.066a.565.565 0 0 1-.134.312.846.846 0 0 1-.267.207l-.045.026a1.53 1.53 0 0 1-.069.144.727.727 0 0 1-.128.171 1.414 1.414 0 0 1-.344.245l-.049.027a.917.917 0 0 0-.107.067.466.466 0 0 0-.058.06l-.05.059a.905.905 0 0 1-.236.206l-.182.11-.053.03c-.192.11-.302.159-.44.159-.536 0-1.323-.44-1.932-1.099a.632.632 0 0 1-.164-.353 17.805 17.805 0 0 0-.124-.084c-.124-.086-.2-.149-.269-.24a1.182 1.182 0 0 1-.179-.373 1.505 1.505 0 0 0-.035-.1.269.269 0 0 0-.078-.11 2.497 2.497 0 0 0-.089-.089 1.531 1.531 0 0 1-.276-.335.874.874 0 0 1-.088-.213 1.563 1.563 0 0 1-.042-.198 1.202 1.202 0 0 0-.036-.037 1.044 1.044 0 0 1-.242-.305 3.346 3.346 0 0 0-.215-.357l-.155-.227c-.233-.344-.37-.58-.484-.878a4.572 4.572 0 0 1-.098-.273l-.038-.122a7.724 7.724 0 0 0-.049-.146c-.046-.136-.065-.305-.088-.624l-.02-.307a.89.89 0 0 0-.142-.35l-.044-.047a.778.778 0 0 1-.232-.441c-.027-.156-.023-.216.019-.572.017-.147.025-.236.026-.323-.03-.038-.053-.068-.08-.11a.705.705 0 0 1-.108-.329 2.482 2.482 0 0 1-.005-.184c0-.07-.001-.1-.003-.135a.937.937 0 0 0-.008-.102 1.017 1.017 0 0 1-.123-.676 6.42 6.42 0 0 1 .013-.094l.006-.048a15.565 15.565 0 0 0 .027-.212l.006-.067a.63.63 0 0 1-.2-.453 4.847 4.847 0 0 1 .084-.86l.04-.244 1.522-.752.192.148c.138.107.277.178.42.216a2.831 2.831 0 0 0-.102-.25l-.045-.1V1.9c0-.036.001-.08.006-.13a.75.75 0 0 1 .031-.153.526.526 0 0 1 .08-.159.414.414 0 0 1 .284-.172 3.54 3.54 0 0 0 .238-.068C5.524.74 6.147.563 7.39.563c.113 0 .197.014.355.049.104.023.14.03.175.03l.063-.014c.091-.022.154-.034.22-.035A.616.616 0 0 1 8.29.557z" fill="#FFF" fill-rule="nonzero"/><path d="M7.39 1.03c-1.368 0-1.897.26-2.455.61a2.65 2.65 0 0 1-.376.11c-.032 0-.032.15-.032.15.226.496.26.815.105.958-.364.033-.707-.076-1.03-.326l-1.108.547a4.445 4.445 0 0 0-.077.761c.005.17.174.1.196.251.036.256-.068.704-.061.825.01.191.092.234.12.36.036.16.02.386.03.51.012.158.171.18.183.315.033.368-.08.774-.046.97.024.141.133.193.205.303.116.18.205.4.217.56.02.259.038.69.085.828.09.262.083.28.177.522.22.569.6.953.834 1.417.064.126.212.211.275.33.068.124.052.281.12.398.1.172.307.315.408.47.11.168.113.347.221.494.082.111.359.247.44.346.094.116-.007.194.086.294.585.633 1.273.967 1.641.967.094 0 .367-.177.483-.246.11-.064.181-.203.3-.295.135-.105.319-.166.464-.307.078-.076.095-.214.175-.3.08-.086.223-.12.305-.217.063-.075-.065-.137 0-.22.084-.106.36-.235.445-.352l.093-.131c.077-.11-.037-.177.04-.296.06-.094.312-.237.373-.337.083-.136.166-.278.249-.424.079-.141-.016-.468.062-.619.088-.17.26-.186.346-.368.022-.046.068-.18.09-.227.06-.13.184-.155.243-.291.06-.14.12-.285.18-.432.033-.082.066-.169.098-.26.067-.186.207-.4.31-.628.035-.08.006-.172.029-.254.015-.056.08-.1.083-.156.006-.165-.026-.333.017-.52.02-.088-.039-.264-.019-.355.02-.095.119-.105.14-.205.111-.549.218-1.161.321-1.836.007-.046-.029-.148-.022-.195.007-.045.057-.035.063-.08.011-.075.069-.104.083-.21.006-.041-.032-.146-.026-.192a4.18 4.18 0 0 0 0-.61L12 3.103c-.88.04-1.483-.043-1.81-.245-.374-.477-.023-.552.21-.756.014-.106 0 0-.08-.202-.034-.083-.145-.102-.255-.216a2.005 2.005 0 0 1-.213-.312 1.615 1.615 0 0 1-.446-.048C9.02 1.22 8.614 1.022 8.463 1c-.08-.011-.145.067-.208.06-.12-.01-.236.053-.348.049-.166-.006-.338-.08-.518-.08z" fill="#268000"/><path fill="#FFF" d="M7.537 8.557L5.712 9.819l.603-2.176-1.732-1.396 2.199-.083.755-2.125.756 2.125 2.198.083L8.76 7.643l.603 2.176z"/></g></svg>