<svg viewBox="0 0 53 60" xmlns="http://www.w3.org/2000/svg"><title>national-forest</title><g fill="none" fill-rule="evenodd"><path d="M41.386 1.064l1.385-.48 9.917 13.185-1.478 1.254c-3.333 2.828-3.992 7.66-1.702 14.876 2.722 8.573 2.722 14.56-.43 17.928-2.59 2.882-6.968 4.496-13.081 4.995-4.374.356-6.95 1.511-7.564 2.82l-1.83 3.9-1.83-3.9c-.587-1.249-3.413-2.458-7.863-2.82-6.113-.499-10.49-2.113-13.055-4.965C.677 44.458.677 38.472 3.4 29.899c2.29-7.216 1.631-12.048-1.702-14.876L.22 13.77 10.136.583l1.385.48c5.087 1.766 10.063 2.684 14.933 2.762 4.87-.078 9.845-.996 14.932-2.761z" fill="#FFF" fill-rule="nonzero"/><path d="M42.044 3l7.863 10.455c-4.068 3.452-4.844 9.142-2.328 17.069 2.517 7.927 2.517 13.236 0 15.927-2.181 2.426-6.096 3.87-11.745 4.33-5.234.427-8.329 1.658-9.284 3.694l-.096.209a.886.886 0 0 0-.097-.209c-.955-2.036-4.05-3.267-9.284-3.694-5.649-.46-9.564-1.904-11.745-4.33-2.516-2.691-2.516-8 0-15.927S7.068 16.907 3 13.455L10.863 3c5.295 1.837 10.492 2.795 15.59 2.872C31.553 5.795 36.75 4.837 42.044 3zm-15.837 9.668l-7.233 24.73 6.172-1.764v5.92l-4.654 2.497h11.042l-4.02-2.497v-5.92l6.542.98-7.85-23.946z" fill="#004313"/></g></svg>
