<?xml version="1.0" encoding="UTF-8"?>
<svg width="15px" height="15px" viewBox="0 0 15 15" version="1.1" xmlns="http://www.w3.org/2000/svg" xmlns:xlink="http://www.w3.org/1999/xlink">
    <!-- Generator: Sketch 51.2 (57519) - http://www.bohemiancoding.com/sketch -->
    <title>national-park</title>
    <desc>Created with Sketch.</desc>
    <defs></defs>
    <g id="national-park" stroke="none" stroke-width="1" fill="none" fill-rule="evenodd">
        <g id="National-Park" transform="translate(2.000000, 1.000000)">
            <g id="Group-8" stroke-width="1" transform="translate(0.000000, -0.561151)">
                <g id="Group-8-Copy">
                    <path d="M6.29063523,0.118437941 C6.36177468,0.0958439932 6.43589393,0.0871895848 6.51467674,0.0982188361 C6.59603153,0.109608154 6.67990984,0.136057488 6.81435062,0.186221053 C6.85475992,0.201298878 7.07405422,0.285885246 7.13960598,0.310262472 C7.24714504,0.350253838 7.33886969,0.381828276 7.42451118,0.407655475 C7.45151288,0.415798474 7.47764502,0.42328073 7.50294733,0.43010073 C7.59712108,0.455484378 7.71159147,0.467885506 7.84601539,0.465611839 L8.07229899,0.461784444 L8.19834783,0.672728265 C8.2417275,0.745324523 8.27853587,0.803685762 8.30807863,0.847013946 C8.33015754,0.879395459 8.34517963,0.898878155 8.34719054,0.900959713 C8.35550894,0.909484342 8.36530393,0.917478622 8.38071185,0.928085122 C8.3896419,0.934232392 8.44627433,0.97049973 8.46523272,0.98359991 C8.56884913,1.05519849 8.64548277,1.13495424 8.69934964,1.26947642 C8.71608567,1.29768221 8.72179337,1.30607015 8.74427478,1.33910849 C8.78956419,1.41218642 8.81413243,1.49401342 8.82022663,1.57712527 C8.82335779,1.61982755 8.82176372,1.65170917 8.817815,1.68846082 C8.81639042,1.70171966 8.81538084,1.70948615 8.81215396,1.73335479 L8.78724502,1.91760129 L8.65624918,2.03211897 C8.63206511,2.0532609 8.60794695,2.07283461 8.58152783,2.09297423 C8.87102044,2.18534212 9.34332875,2.22540994 9.98321866,2.19712021 L10.1119868,2.19142733 L10.8783396,2.73129039 L10.889371,2.97423262 C10.9022581,3.25804243 10.9043224,3.46187088 10.8929644,3.60441835 C10.9000545,3.63721222 10.9028983,3.65141702 10.9067906,3.67531723 C10.9174901,3.74101457 10.9214254,3.79832613 10.9110209,3.87266593 C10.8948329,3.98832777 10.8610605,4.07524641 10.8105616,4.16306314 C10.8049512,4.18221722 10.7983793,4.20084858 10.7909021,4.21889596 C10.7946557,4.26524373 10.7939329,4.31102573 10.7858916,4.36384683 C10.6818774,5.0470866 10.5731004,5.66764256 10.4594584,6.22573463 C10.4391633,6.32540304 10.3986741,6.41177779 10.3434025,6.48483083 C10.3463672,6.51340517 10.3485719,6.53409546 10.3506157,6.56009657 C10.3570117,6.64146673 10.3551195,6.7151917 10.3365559,6.79663247 C10.3261738,6.84217984 10.3247093,6.88777576 10.329648,7.01305622 C10.333546,7.11193797 10.3344878,7.15639947 10.3322173,7.22003203 C10.3286904,7.31888028 10.302597,7.40391204 10.2626815,7.47977567 C10.2547279,7.49489246 10.247112,7.50821546 10.2392701,7.52086518 C10.2386775,7.54742009 10.2372721,7.56990993 10.2342471,7.59835612 C10.2260844,7.67511526 10.207908,7.74935152 10.1748424,7.82262781 C10.1394059,7.90115805 10.1017383,7.97605752 10.0490619,8.07539432 C9.90921131,8.33912347 9.90385966,8.34969538 9.88075652,8.4142151 C9.84621668,8.51067393 9.81123381,8.60301991 9.77578588,8.69127079 C9.71545896,8.84146021 9.65384245,8.989386 9.59098646,9.13499826 C9.55567281,9.21680591 9.50999725,9.28628093 9.45519281,9.34763179 C9.42042851,9.3865487 9.39420927,9.41068553 9.34615334,9.4518515 C9.32721753,9.47668123 9.3206417,9.49409064 9.31222211,9.51657741 C9.28054578,9.60117366 9.26895562,9.63093211 9.25120119,9.66847476 C9.17292999,9.83398324 9.08894806,9.91804664 8.93859162,10.0296887 C8.92092612,10.0589262 8.92147503,10.0784574 8.92231086,10.1031017 C8.92625052,10.2185404 8.92679893,10.2668722 8.92238038,10.334673 C8.91404412,10.4625893 8.88840621,10.5761405 8.82699165,10.6854344 C8.74258604,10.8356433 8.65693372,10.981918 8.57017604,11.1241181 C8.50393381,11.2326923 8.44093289,11.2887364 8.28976418,11.4052301 C8.26857514,11.4215232 8.26293557,11.4258589 8.25769288,11.4298941 C8.25713197,11.4452418 8.25601999,11.4611217 8.25430332,11.4777708 C8.24286266,11.5887279 8.20383213,11.6918497 8.14114035,11.7814832 C8.10882457,11.8276866 8.07641764,11.8733005 8.04392866,11.9183164 C7.98188586,12.0042812 7.9096857,12.0670727 7.8075378,12.1398395 C7.77932115,12.1599402 7.75251045,12.178184 7.71051393,12.2062027 C7.69931502,12.3144721 7.65839411,12.421279 7.57687511,12.5177797 C7.4990182,12.6099453 7.42985067,12.658164 7.31025802,12.7253269 C7.28096999,12.7417397 7.27230359,12.7466664 7.26542319,12.7506761 C7.23186791,12.8272576 7.21777095,12.8573262 7.19644429,12.8956023 C7.16102437,12.9591725 7.11988344,13.0158699 7.06766937,13.0666191 C6.98202929,13.1498566 6.89351604,13.2124871 6.7791935,13.2791308 C6.76221485,13.2890284 6.74518508,13.2987318 6.72386534,13.3107179 C6.71850585,13.313731 6.68437411,13.332852 6.67499928,13.3381385 C6.61920609,13.3696005 6.58917262,13.3883222 6.56804742,13.4046787 C6.55577504,13.4141808 6.53909513,13.4311444 6.50961932,13.4653105 C6.50479932,13.4708975 6.47061708,13.511008 6.45939435,13.5239274 C6.37988722,13.6154547 6.31483257,13.6768064 6.2244685,13.7298019 C6.211493,13.7374116 6.08714636,13.8128511 6.04212531,13.8392996 C6.02393293,13.849987 6.00644822,13.8601129 5.98942555,13.8698014 C5.79688336,13.979388 5.68706507,14.028777 5.5484278,14.028777 C5.01332581,14.028777 4.22618166,13.5891073 3.61735772,12.9305266 C3.52330916,12.8287918 3.47011371,12.7078803 3.4530995,12.5775653 C3.43813731,12.5673657 3.41746101,12.5534103 3.38592038,12.5321456 C3.36292419,12.5166416 3.34600252,12.5051301 3.32911482,12.4934407 C3.20458319,12.4072415 3.12816519,12.3442976 3.06025025,12.2522299 C2.97658725,12.1388137 2.93653457,12.0460951 2.8811232,11.8800523 C2.86083389,11.8192544 2.85491474,11.8023418 2.84605923,11.7807049 C2.83795249,11.7608975 2.8307882,11.7468018 2.82325955,11.7352368 C2.81525859,11.7229463 2.79730617,11.7014203 2.76780325,11.670492 C2.75640197,11.6585398 2.74355386,11.6454475 2.7273706,11.6292493 C2.71677175,11.6186408 2.67190949,11.5740952 2.67927722,11.5814226 C2.54434488,11.447229 2.4723311,11.3651466 2.40283242,11.245874 C2.36363997,11.1786125 2.33613083,11.1087778 2.31543158,11.0332472 C2.30273897,10.9869323 2.29581055,10.9534809 2.28376107,10.8882911 C2.27707616,10.8525241 2.27503362,10.8423824 2.27333988,10.8347168 C2.26529144,10.8260529 2.25406156,10.8146913 2.23675611,10.7976935 C2.10842641,10.6719351 2.0526068,10.6074054 1.99478866,10.49279 C1.94226124,10.3886627 1.87703015,10.2814931 1.77985625,10.1364116 C1.74691823,10.0872349 1.62365333,9.90661543 1.62515317,9.90882576 C1.39165316,9.56471366 1.25556943,9.32889939 1.1407807,9.03142355 C1.09700684,8.91798329 1.07065032,8.84344982 1.04322861,8.75767077 C1.03645961,8.73638033 1.01286911,8.66123649 1.00483328,8.63609688 C0.990223449,8.59039091 0.975088187,8.5445215 0.956459317,8.4899202 C0.910060057,8.35392376 0.890638751,8.18485445 0.868375581,7.86647065 C0.864557937,7.81187482 0.851066243,7.60376023 0.84789369,7.5592556 C0.84169365,7.47545251 0.785175517,7.33204259 0.706299569,7.20991539 C0.680320056,7.18130991 0.665930338,7.16608807 0.662378422,7.16231115 C0.53610993,7.02804405 0.463265544,6.9140596 0.429821408,6.72099617 C0.402863098,6.56537356 0.407425455,6.5048728 0.44880966,6.14914465 C0.465965871,6.0016742 0.473543009,5.91297432 0.474716539,5.82605277 C0.445547858,5.78823923 0.421614812,5.75775413 0.39553555,5.71691952 C0.334779467,5.62178834 0.296425545,5.51113942 0.287036989,5.3876444 C0.283179346,5.33690182 0.282319208,5.29760947 0.28160138,5.20353704 C0.281063965,5.13310794 0.280610179,5.10351787 0.279226537,5.06802544 C0.277477358,5.02315646 0.27446651,4.98877496 0.27092418,4.96630717 C0.185351746,4.80359389 0.145778521,4.68268469 0.135809096,4.50723716 C0.132029223,4.44071684 0.136743922,4.38043847 0.147984047,4.29039734 C0.151294871,4.26387537 0.155026351,4.23621977 0.16057879,4.19644815 C0.163921201,4.1725749 0.163921201,4.1725749 0.167299966,4.1484913 C0.169979358,4.12935995 0.172039089,4.11453155 0.174023479,4.10003786 C0.182936811,4.03493621 0.189265473,3.98390796 0.194110579,3.93621789 C0.196533282,3.91237137 0.19847817,3.89003462 0.199972635,3.86937354 C0.185128722,3.8562083 0.170626698,3.84189547 0.156414048,3.82618409 C0.057956816,3.71734444 0.00519557193,3.57350485 0.000750621118,3.41593312 C-0.00507484987,3.20942249 0.0233865552,2.92727796 0.0841673974,2.55557627 L0.124021804,2.31184898 L1.64621503,1.55972187 L1.83772896,1.70793308 C1.97582414,1.81480392 2.11486123,1.88645708 2.25745408,1.92446268 C2.23258459,1.8518746 2.19891122,1.76792639 2.15609045,1.67379439 L2.11052459,1.5736279 L2.11052459,1.4611624 C2.11052459,1.42560229 2.1120831,1.38140503 2.117383,1.33130542 C2.12296134,1.27857373 2.13147365,1.23029392 2.14801835,1.17816193 C2.16536444,1.12350479 2.18915853,1.07159926 2.22792659,1.01924613 C2.29574061,0.927668784 2.39307348,0.860791105 2.51209129,0.846800109 C2.56355586,0.833883684 2.60248052,0.82318998 2.6423766,0.811627928 C2.68294798,0.799870176 2.72138825,0.788124608 2.74995694,0.778750277 C3.52358805,0.301147046 4.14715891,0.12427785 5.38929414,0.12427785 C5.50320774,0.12427785 5.58686767,0.137869752 5.74487413,0.172818927 C5.84871288,0.19578684 5.8854561,0.202323673 5.92032832,0.203566914 C5.91894557,0.203517617 5.93305734,0.201066177 5.98270409,0.189166387 C6.07444936,0.167176032 6.13658283,0.155333882 6.20281734,0.153758258 C6.23264892,0.139301273 6.25784648,0.128851674 6.29063523,0.118437941 Z" id="Path-10" fill="#FFFFFF" fill-rule="nonzero"></path>
                    <path d="M5.38929414,0.591903749 C4.02176383,0.591903749 3.49315264,0.850719212 2.93483851,1.20183549 C2.90249207,1.22217774 2.59043103,1.31171206 2.55881114,1.31171206 C2.52719126,1.31171206 2.52719126,1.4611624 2.52719126,1.4611624 C2.75260762,1.95669053 2.78765655,2.2759166 2.63233806,2.4188406 C2.26821526,2.45175445 1.92450127,2.34310963 1.60119611,2.09290615 C1.60119611,2.09290615 1.23212739,2.27526579 0.493989931,2.63998505 C0.438125403,2.98162131 0.412531636,3.23533826 0.417208633,3.40113592 C0.421985797,3.5704845 0.591023243,3.50177272 0.612595525,3.65249539 C0.649230488,3.90845899 0.544755506,4.35647608 0.551631064,4.47747599 C0.562471264,4.66824792 0.643569931,4.71134088 0.671987956,4.83643807 C0.708282501,4.99620798 0.692728294,5.22336379 0.702195264,5.34789023 C0.714167308,5.50536785 0.873321382,5.52731072 0.885411835,5.66181462 C0.918482569,6.02972001 0.804873432,6.4357316 0.838830077,6.6317536 C0.863364783,6.77338544 0.972316553,6.82500508 1.04366294,6.93547393 C1.1595894,7.11496811 1.2493662,7.3351929 1.2612889,7.49525726 C1.28054938,7.75383249 1.29881653,8.1856513 1.34557562,8.32270238 C1.43514676,8.5852358 1.42931482,8.60245856 1.52313237,8.84558742 C1.7424706,9.41400404 2.12321179,9.79820569 2.35737831,10.2624039 C2.4205852,10.3877016 2.56859401,10.4734077 2.63233806,10.5912318 C2.70004311,10.7163774 2.68351041,10.8731637 2.75155285,10.989937 C2.8521272,11.1625411 3.05913681,11.3048936 3.15969927,11.4593709 C3.26940554,11.6278943 3.27262106,11.8068287 3.38120138,11.9540237 C3.46347392,12.065555 3.73950447,12.2011978 3.82054521,12.3006127 C3.91509385,12.4165981 3.81438469,12.4941777 3.90651247,12.5938347 C4.49205942,13.2272362 5.17974911,13.5611511 5.5484278,13.5611511 C5.64168795,13.5611511 5.91479244,13.3837932 6.03149556,13.3153508 C6.14056262,13.2513867 6.21221818,13.1120729 6.33143708,13.0197657 C6.46631353,12.9153353 6.65002054,12.8539393 6.7948964,12.7131278 C6.87298365,12.6372312 6.88959303,12.4993754 6.96987468,12.4128848 C7.04963775,12.3269529 7.19306058,12.2924544 7.27450007,12.1960479 C7.33814158,12.1207102 7.21010032,12.0588248 7.27450007,11.9770813 C7.35854996,11.8703955 7.63526656,11.7415975 7.72015065,11.6239844 C7.75119566,11.5809693 7.78227915,11.5372227 7.81338844,11.4927442 C7.88976974,11.3835382 7.77578928,11.3156713 7.85229424,11.1976348 C7.91353652,11.1031465 8.16527568,10.9600758 8.22638089,10.8599214 C8.30940167,10.7238462 8.39220715,10.5825384 8.47455615,10.4359894 C8.55384534,10.2948857 8.458962,9.96841707 8.53718949,9.81758806 C8.62527727,9.64774759 8.79699925,9.63143824 8.88316039,9.44924609 C8.90483055,9.40342342 8.95094196,9.26880819 8.97246591,9.22220336 C9.03267521,9.09183493 9.15708695,9.06761154 9.21600684,8.93111763 C9.27676347,8.79036874 9.33677767,8.6463612 9.39593205,8.49909092 C9.42896858,8.41684342 9.46170502,8.33042746 9.49414136,8.23984306 C9.56103973,8.05301713 9.70053856,7.83869676 9.80312607,7.61135427 C9.83895029,7.53196483 9.81042586,7.43924546 9.83258431,7.35729635 C9.84768695,7.30144192 9.91388083,7.25747258 9.91588434,7.20132121 C9.9217652,7.03650178 9.89022877,6.8678906 9.93288848,6.68073757 C9.95277028,6.59351383 9.89442919,6.4172416 9.91404034,6.32625832 C9.93456719,6.23102672 10.0330333,6.22090442 10.0532637,6.12155399 C10.1650989,5.57233525 10.2724031,4.96018111 10.3751765,4.28509157 C10.3822381,4.23870583 10.3461835,4.13716307 10.3532023,4.09018308 C10.3599216,4.0452082 10.4097161,4.0548209 10.4163962,4.00930142 C10.4273258,3.9348247 10.4846154,3.90574575 10.4994012,3.80010251 C10.5051967,3.75869411 10.4668564,3.65391052 10.4732443,3.60771382 C10.487138,3.50723695 10.487138,3.30400979 10.4732443,2.99803234 L9.99961949,2.66438371 C9.12048649,2.70325045 8.51722194,2.62140274 8.18982582,2.4188406 C7.81561351,1.94172183 8.16696242,1.86710589 8.40020216,1.66320571 C8.41448525,1.55755652 8.40020216,1.66320571 8.31929773,1.4611624 C8.28607043,1.37818359 8.17514209,1.35902551 8.06469767,1.24470108 C8.01880785,1.1971991 7.94800671,1.09336029 7.85229424,0.933184641 C7.68472259,0.936018973 7.53583931,0.919889732 7.4056444,0.88479692 C7.02036026,0.780947204 6.61371554,0.583333822 6.46310156,0.56224852 C6.38339574,0.551090051 6.31799317,0.628835235 6.25483561,0.623086762 C6.13528853,0.61220583 6.01937453,0.674959823 5.90709906,0.670957052 C5.74146786,0.665052079 5.56886804,0.591903749 5.38929414,0.591903749 Z" id="Path-10" fill="#268000"></path>
                </g>
            </g>
            <polygon id="Star" fill="#FFFFFF" points="5.53721243 7.55666697 3.71156335 8.81940219 4.3147468 6.64293475 2.58325016 5.2468806 4.78168712 5.16448497 5.53721243 3.03894083 6.29273775 5.16448497 8.49117471 5.2468806 6.75967807 6.64293475 7.36286152 8.81940219"></polygon>
        </g>
    </g>
</svg>