<svg width="15" height="15" viewBox="0 0 15 15" xmlns="http://www.w3.org/2000/svg"><title>national-forest</title><g fill="none" fill-rule="evenodd"><path d="M11.3.516l.354-.12 2.532 3.296-.377.314c-.851.707-1.02 1.915-.435 3.719.695 2.143.695 3.64-.11 4.482-.66.72-1.779 1.124-3.34 1.248-1.116.09-1.63.232-1.97.653l-.466.528-.43-.476c-.315-.384-.87-.614-2.006-.705-1.561-.124-2.679-.528-3.334-1.24-.811-.85-.811-2.347-.116-4.49.585-1.804.416-3.012-.435-3.72L.79 3.693 3.322.396l.354.12c1.298.441 2.569.67 3.812.69 1.243-.02 2.514-.249 3.813-.69z" fill="#FFF" fill-rule="nonzero"/><path d="M11.469 1l2.007 2.614c-1.038.863-1.236 2.285-.594 4.267.642 1.982.642 3.309 0 3.982-.557.606-1.557.967-2.999 1.082-1.336.107-2.126.415-2.37.924l-.025.052a.22.22 0 0 0-.024-.052c-.244-.51-1.035-.817-2.37-.924-1.443-.115-2.443-.476-3-1.082-.642-.673-.642-2 0-3.982.643-1.982.445-3.404-.594-4.267L3.508 1c1.352.46 2.678.699 3.98.718 1.302-.02 2.629-.259 3.98-.718zM7.425 3.417L5.578 9.6l1.576-.44v1.48l-1.188.624h2.82l-1.027-.624v-1.48l1.67.244-2.004-5.986z" fill="#268000"/></g></svg>