<svg viewBox="0 0 50 64" xmlns="http://www.w3.org/2000/svg"><title>national-park-icon</title><g fill="none" fill-rule="evenodd"><path d="M28.594 1.025c.323-.101.66-.14 1.018-.09.37.05.751.168 1.362.392.184.068 1.18.445 1.479.554.489.178.905.319 1.295.434.123.037.241.07.356.1.428.114.949.169 1.56.159l1.028-.017.573.94c.197.325.365.585.499.778.1.145.169.232.178.241a.977.977 0 0 0 .152.121c.04.028.298.19.384.248.471.32.82.675 1.064 1.275.077.126.103.163.205.31.206.327.317.692.345 1.063.014.19.007.333-.011.497-.006.059-.011.093-.026.2l-.113.822-.595.51c-.11.095-.22.182-.34.272 1.316.412 3.463.591 6.371.465l.586-.025 3.483 2.408.05 1.084c.059 1.266.068 2.176.016 2.812.033.146.046.21.063.316.049.293.067.549.02.88a3.37 3.37 0 0 1-.457 1.296 2.42 2.42 0 0 1-.09.25c.018.206.014.41-.022.646a167.662 167.662 0 0 1-1.484 8.307 2.81 2.81 0 0 1-.528 1.156c.014.127.024.22.033.336.03.363.02.691-.064 1.055-.047.203-.054.406-.031.965.018.442.022.64.012.924a2.61 2.61 0 0 1-.316 1.159c-.037.067-.071.127-.107.183a3.82 3.82 0 0 1-.023.346 3.18 3.18 0 0 1-.27 1c-.16.35-.332.685-.571 1.128-.636 1.177-.66 1.224-.765 1.512-.157.43-.316.842-.478 1.236-.274.67-.554 1.33-.84 1.98-.16.365-.368.675-.617.948a4.518 4.518 0 0 1-.495.465.961.961 0 0 0-.155.289c-.144.377-.196.51-.277.678-.356.738-.738 1.113-1.421 1.611a.496.496 0 0 0-.074.328c.018.515.02.73 0 1.033-.038.57-.154 1.077-.433 1.565-.384.67-.773 1.323-1.168 1.957-.3.484-.587.735-1.274 1.254l-.146.11a2.83 2.83 0 0 1-.53 1.569c-.147.206-.294.41-.442.61-.282.384-.61.664-1.074.989-.128.09-.25.17-.441.296-.051.483-.237.96-.608 1.39-.354.411-.668.626-1.212.926l-.203.113a6.774 6.774 0 0 1-.314.647 3.25 3.25 0 0 1-.585.763c-.39.371-.792.65-1.311.948a18.2 18.2 0 0 1-.252.14l-.222.123a4.18 4.18 0 0 0-.486.297 2.098 2.098 0 0 0-.266.27l-.228.262c-.362.408-.657.682-1.068.918-.059.034-.624.371-.829.489-.082.048-.162.093-.24.136-.875.489-1.374.71-2.004.71-2.432 0-6.01-1.962-8.777-4.9a2.798 2.798 0 0 1-.747-1.575 81.048 81.048 0 0 0-.564-.376c-.566-.384-.913-.665-1.222-1.076-.38-.506-.562-.92-.814-1.66a6.635 6.635 0 0 0-.16-.444 1.19 1.19 0 0 0-.103-.202 2.428 2.428 0 0 0-.252-.29 130.027 130.027 0 0 0-.402-.397c-.614-.598-.941-.965-1.257-1.497a3.859 3.859 0 0 1-.397-.948 6.863 6.863 0 0 1-.144-.647c-.03-.16-.04-.205-.048-.24a5.414 5.414 0 0 0-.166-.164c-.583-.561-.837-.85-1.1-1.36-.239-.465-.535-.943-.977-1.59-.15-.22-.71-1.026-.703-1.016-1.061-1.535-1.68-2.587-2.202-3.915a20.15 20.15 0 0 1-.443-1.22l-.175-.543a34.014 34.014 0 0 0-.22-.652c-.21-.607-.299-1.362-.4-2.782l-.093-1.37c-.028-.375-.285-1.014-.644-1.56-.118-.127-.183-.195-.2-.212-.573-.599-.904-1.107-1.056-1.969-.123-.694-.102-.964.086-2.551.078-.658.112-1.054.118-1.441-.133-.17-.242-.305-.36-.487a3.107 3.107 0 0 1-.493-1.47 10.869 10.869 0 0 1-.025-.82 17.703 17.703 0 0 0-.01-.605 4.105 4.105 0 0 0-.039-.454c-.388-.726-.568-1.266-.614-2.048-.017-.297.005-.566.056-.968.015-.118.032-.242.057-.419l.03-.214.031-.216c.04-.29.07-.518.091-.731.011-.106.02-.206.027-.298a2.51 2.51 0 0 1-.198-.193c-.448-.486-.687-1.127-.708-1.83-.026-.922.103-2.18.38-3.839l.18-1.087 6.92-3.356.87.661c.628.477 1.26.797 1.908.966a12.497 12.497 0 0 0-.46-1.118l-.208-.447v-.502c0-.158.007-.355.031-.579.026-.235.065-.45.14-.683a2.33 2.33 0 0 1 .363-.71c.308-.408.75-.706 1.292-.769a16.336 16.336 0 0 0 1.08-.303c3.517-2.131 6.352-2.92 11.998-2.92.518 0 .898.06 1.616.216.472.103.64.132.798.138-.007 0 .057-.012.283-.065.417-.098.7-.15 1-.158a2.83 2.83 0 0 1 .4-.157z" fill="#FFF" fill-rule="nonzero"/><path d="M24.497 3.137c-6.216 0-8.619 1.155-11.157 2.721-.147.091-1.565.49-1.709.49-.144 0-.144.667-.144.667 1.025 2.211 1.184 3.635.478 4.273-1.655.147-3.217-.338-4.687-1.454l-5.033 2.44c-.254 1.525-.37 2.657-.349 3.397.022.755.79.449.889 1.121.166 1.142-.309 3.141-.278 3.68.05.852.418 1.044.547 1.602.165.713.095 1.727.138 2.282.054.703.778.8.833 1.4.15 1.642-.366 3.454-.212 4.328.111.632.607.862.93 1.355.528.801.936 1.784.99 2.498.088 1.153.17 3.08.383 3.691.407 1.172.38 1.249.807 2.333.997 2.536 2.728 4.25 3.792 6.322.288.559.96.94 1.25 1.467.308.558.233 1.257.542 1.778.457.77 1.398 1.406 1.855 2.095.499.752.514 1.55 1.007 2.207.374.497 1.629 1.103 1.997 1.546.43.518-.028.864.39 1.308C20.419 59.51 23.545 61 25.22 61c.424 0 1.665-.791 2.196-1.097.496-.285.821-.907 1.363-1.318.613-.466 1.448-.74 2.107-1.368.355-.34.43-.954.795-1.34.363-.383 1.015-.537 1.385-.967.29-.337-.293-.613 0-.977.382-.476 1.64-1.051 2.026-1.576.14-.192.282-.387.423-.585.348-.488-.17-.79.177-1.317.279-.421 1.423-1.06 1.7-1.507.378-.607.754-1.237 1.129-1.891.36-.63-.071-2.086.284-2.76.4-.757 1.181-.83 1.573-1.642.099-.205.308-.805.406-1.013.274-.582.84-.69 1.107-1.3.276-.627.549-1.27.818-1.927.15-.367.299-.752.446-1.156.304-.834.938-1.79 1.405-2.804.163-.354.033-.768.134-1.134.068-.249.37-.445.378-.696.027-.735-.116-1.487.077-2.322.09-.39-.174-1.176-.085-1.582.093-.425.54-.47.633-.913.508-2.45.996-5.182 1.463-8.193.032-.207-.132-.66-.1-.87.03-.2.257-.158.287-.36.05-.333.31-.463.378-.934.026-.185-.148-.653-.12-.859.064-.448.064-1.355 0-2.72l-2.152-1.488c-3.996.173-6.738-.192-8.227-1.096-1.7-2.129-.103-2.461.957-3.371.065-.471 0 0-.368-.902-.151-.37-.655-.455-1.157-.965-.209-.212-.53-.676-.966-1.39-.761.012-1.438-.06-2.03-.216-1.751-.463-3.6-1.345-4.284-1.44-.363-.049-.66.298-.947.272-.543-.048-1.07.232-1.58.214-.753-.026-1.538-.353-2.354-.353z" fill="#004313"/><path fill="#FFF" d="M25.17 36.714l-8.3 5.634 2.742-9.71-7.87-6.229 9.993-.367 3.434-9.484 3.434 9.484 9.993.367-7.87 6.229 2.742 9.71z"/></g></svg>
