<?xml version="1.0" encoding="UTF-8"?>
<svg width="15px" height="15px" viewBox="0 0 15 15" version="1.1" xmlns="http://www.w3.org/2000/svg" xmlns:xlink="http://www.w3.org/1999/xlink">
    <!-- Generator: Sketch 51.2 (57519) - http://www.bohemiancoding.com/sketch -->
    <title>national-forest</title>
    <desc>Created with Sketch.</desc>
    <defs></defs>
    <g id="national-forest" stroke="none" stroke-width="1" fill="none" fill-rule="evenodd">
        <g id="National-Forest" transform="translate(1.500000, 1.000000)">
            <g id="Group-7" transform="translate(-0.724138, -0.614173)">
                <path d="M10.5247868,0.130107016 L10.8783681,0.00996508286 L13.4103218,3.30644161 L13.0330289,3.61994701 C12.1821063,4.32700738 12.0138775,5.53492655 12.5986354,7.33880806 C13.2934337,9.48214615 13.2934337,10.978694 12.4889348,11.8210218 C11.8274274,12.5414384 10.7096112,12.9449574 9.14882164,13.0695618 C8.03215579,13.15871 7.51901771,13.3012388 7.17871936,13.7225582 L6.71226966,14.2497386 L6.28296889,13.7745873 C5.96721781,13.389956 5.41177931,13.1602585 4.27571769,13.0695618 C2.71492809,12.9449574 1.59711189,12.5414384 0.942472749,11.8283563 C0.131105625,10.978694 0.131105625,9.48214615 0.825903929,7.33880806 C1.41066179,5.53492655 1.24243299,4.32700738 0.391510406,3.61994701 L0.0142175481,3.30644161 L2.54617125,0.00996508286 L2.89975249,0.130107016 C4.19854015,0.571416786 5.46890233,0.801022705 6.71227045,0.820391204 C7.95563753,0.801022609 9.22599945,0.571416693 10.5247868,0.130107016 Z" id="Path" fill="#FFFFFF" fill-rule="nonzero"></path>
                <path d="M10.6927745,0.614173228 L12.7004014,3.22800259 C11.6617945,4.09101622 11.4636978,5.51339301 12.1061114,7.49513296 C12.748525,9.47687292 12.748525,10.8041101 12.1061114,11.4768446 C11.549146,12.0834096 10.5495172,12.4442642 9.1072251,12.5594085 C7.77097267,12.6660872 6.98084273,12.9739402 6.73683527,13.4829673 L6.71226966,13.5351149 C6.70777965,13.5196768 6.69959112,13.5022943 6.68770405,13.4829673 C6.44369659,12.9739402 5.65356665,12.6660872 4.31731423,12.5594085 C2.87502211,12.4442642 1.87539333,12.0834096 1.31842789,11.4768446 C0.676014281,10.8041101 0.676014281,9.47687292 1.31842789,7.49513296 C1.96084149,5.51339301 1.76274484,4.09101622 0.724137931,3.22800259 L2.73176482,0.614173228 C4.08368702,1.07353737 5.41052196,1.31290055 6.71226966,1.33226277 C8.01401736,1.31290055 9.34085231,1.07353737 10.6927745,0.614173228 Z M6.64924699,3.03127872 L4.80262679,9.2135778 L6.3783529,8.77266523 L6.3783529,10.2527215 L5.19020648,10.8769251 L8.00936351,10.8769251 L6.98295369,10.2527215 L6.98295369,8.77266523 L8.65325159,9.01754795 L6.64924699,3.03127872 Z" id="Combined-Shape" fill="#268000"></path>
            </g>
        </g>
    </g>
</svg>