<svg viewBox="0 0 44 44" xmlns="http://www.w3.org/2000/svg"><path d="M4.23 9.4c1.69-1.715 3.382-3.262 4.132-2.948 1.208.484 0 2.49-.725 3.674-.604 1.015-6.912 9.4-6.912 15.249 0 3.093 1.16 5.655 3.238 7.202 1.813 1.353 4.205 1.764 6.38 1.111 2.586-.749 4.713-3.383 7.395-6.694 2.925-3.6 6.84-8.313 9.86-8.313 3.94 0 3.988 2.44 4.254 4.326-9.135 1.546-13.002 8.869-13.002 12.977 0 4.108 3.48 7.468 7.758 7.468 3.939 0 10.367-3.215 11.334-14.742h5.945v-6.042h-5.97c-.362-3.987-2.634-10.15-9.739-10.15-5.437 0-10.101 4.616-11.938 6.864-1.402 1.764-4.978 5.993-5.534 6.573-.604.725-1.643 2.03-2.683 2.03-1.087 0-1.74-2.006-.87-4.64.846-2.634 3.384-6.912 4.471-8.507 1.885-2.755 3.142-4.64 3.142-7.926C14.766 1.667 10.803 0 8.7 0 5.51 0 2.73 2.417 2.127 3.02 1.257 3.89.532 4.617 0 5.269l4.23 4.133zm22.45 28.18c-.75 0-1.788-.63-1.788-1.74 0-1.45 1.764-5.318 6.936-6.67-.726 6.5-3.456 8.41-5.148 8.41z" fill="#494949"/></svg>
