<svg width="16" height="12" viewBox="0 0 16 12" xmlns="http://www.w3.org/2000/svg"><title>scissors</title><g fill="currentColor" fill-rule="nonzero"><path d="M7.72 5.553c-.553.212-1.103.425-1.623.627C4.592 5.499 3.3 4.9 2.96 4.719A2.787 2.787 0 0 1 1.948 3.8c-.197-.296-.325-.617-.351-.863C1.464 1.676 2.437.54 3.767.4c1.332-.14 3.96.754 2.23 3.823-.17.302-.213.608-.55.643-.338.036-.861-.218-.673-.515 1.648-2.59-.229-2.861-.885-2.792-.656.069-1.135.629-1.07 1.25.006.054.068.209.17.363.143.215.34.4.583.53.699.374 2.126 1.006 4.148 1.851zm1.857.767c.67.273 1.543.628 2.617 1.063 1.629.695 2.467 1.053 2.513 1.074.07.03-1.079.958-3.069.158-.672-.27-2.224-.95-3.838-1.67a243.069 243.069 0 0 1 1.777-.625z"/><path d="M5.95 7.652c-.155-.31-.18-.618-.516-.671-.336-.053-.872.173-.699.479 1.51 2.672-.378 2.845-1.03 2.742-.651-.103-1.1-.687-1.002-1.305.008-.053.078-.205.189-.353a1.61 1.61 0 0 1 .609-.5c.786-.368 2.46-1 4.846-1.847l.359-.126c.71-.25 1.91-.668 3.598-1.25l2.566-.941c.071-.028-1.028-1.014-3.057-.319-1.593.546-8.034 3.043-8.871 3.436a2.787 2.787 0 0 0-1.058.864c-.212.285-.357.6-.396.844-.198 1.253.713 2.438 2.035 2.647 1.323.21 3.994-.545 2.427-3.7z"/></g></svg>
