<svg viewBox="0 0 51 51" xmlns="http://www.w3.org/2000/svg"><title>transportation-horse</title><path d="M25.08 50.159C11.227 50.159 0 38.93 0 25.079 0 11.23 11.228 0 25.08 0c13.85 0 25.079 11.228 25.079 25.08 0 13.85-11.229 25.079-25.08 25.079zM41.6 23.357a2.998 2.998 0 0 0-.777-.573L29.659 14.56c.061-.018.324-.115.324-.115 1.16-.445 1.456-1.73 1.133-2.886-.323-1.157-.867-2.027-.867-2.027-.344-.658-1.176-.88-1.424.363l-.631 3.152a2.501 2.501 0 0 0-.046.4C17.26 15.6 11.007 25.712 9.003 35.92c-.296 1.51 19.144 2.427 19.144-.056V24.511c.362.408.782.775 1.261 1.085 1.532.997 4.466 1.33 7.191.719.13.504.387.981.772 1.376a2.94 2.94 0 0 0 4.23 0 3.119 3.119 0 0 0 0-4.334z" fill="#B5B5B5" fill-rule="evenodd"/></svg>
