<svg viewBox="0 0 51 51" xmlns="http://www.w3.org/2000/svg"><title>transportation-hike</title><path d="M25.08 50.159C11.227 50.159 0 38.93 0 25.079 0 11.23 11.228 0 25.08 0c13.85 0 25.079 11.228 25.079 25.08 0 13.85-11.229 25.079-25.08 25.079zm2.936-37.05c1.886 0 3.43-1.431 3.43-3.181s-1.544-3.182-3.43-3.182c-1.886 0-3.43 1.432-3.43 3.182s1.544 3.182 3.43 3.182zm-6.345 5.41L16.869 40.95h3.602l3.086-12.727 3.601 3.182v9.545h3.43V29.02l-3.601-3.182 1.029-4.773c2.23 2.387 5.659 3.978 9.431 3.978V21.86c-3.258 0-6.002-1.591-7.373-3.818l-1.715-2.546c-.686-.955-1.715-1.59-2.915-1.59-.515 0-.858.158-1.372.158l-8.917 3.5v7.478h3.43v-5.41l3.086-1.113z" fill="currentColor" fill-rule="evenodd"/></svg>
