<svg viewBox="0 0 51 51" xmlns="http://www.w3.org/2000/svg"><title>transportation-bike</title><path fill="currentColor" d="M25.08 50.159C11.227 50.159 0 38.93 0 25.079 0 11.23 11.228 0 25.08 0c13.85 0 25.079 11.228 25.079 25.08 0 13.85-11.229 25.079-25.08 25.079zm4.816-35.68a3.092 3.092 0 0 0 3.083-3.083 3.092 3.092 0 0 0-3.083-3.084 3.092 3.092 0 0 0-3.084 3.084 3.092 3.092 0 0 0 3.084 3.083zM13.708 24.5C9.392 24.5 6 27.892 6 32.208c0 4.317 3.392 7.709 7.708 7.709 4.317 0 7.709-3.392 7.709-7.709 0-4.316-3.392-7.708-7.709-7.708zm8.942-2.313l3.7-3.7 1.233 1.234c2.005 2.004 4.625 3.237 7.863 3.237v-3.083c-2.313 0-4.163-.925-5.55-2.313l-2.93-2.929c-.77-.616-1.541-.925-2.466-.925-.925 0-1.696.309-2.158.925l-4.317 4.317c-.617.617-.925 1.387-.925 2.158 0 .925.308 1.696.925 2.159l4.933 4.316v7.709h3.084v-9.559l-3.392-3.546zM35.292 24.5c-4.317 0-7.709 3.392-7.709 7.708 0 4.317 3.392 7.709 7.709 7.709 4.316 0 7.708-3.392 7.708-7.709 0-4.316-3.392-7.708-7.708-7.708z"/><path fill="currentColor" d="M13.708 37.604c-2.929 0-5.396-2.466-5.396-5.396 0-2.929 2.467-5.395 5.396-5.395 2.93 0 5.396 2.466 5.396 5.395 0 2.93-2.466 5.396-5.396 5.396zm21.584 0c-2.93 0-5.396-2.466-5.396-5.396 0-2.929 2.466-5.395 5.396-5.395 2.929 0 5.395 2.466 5.395 5.395 0 2.93-2.466 5.396-5.395 5.396z"/></svg>
