<svg viewBox="0 0 51 51" xmlns="http://www.w3.org/2000/svg"><title>transportation-moto</title><g fill="#B5B5B5" fill-rule="evenodd"><path d="M25.08 50.159C11.227 50.159 0 38.93 0 25.079 0 11.23 11.228 0 25.08 0c13.85 0 25.079 11.228 25.079 25.08 0 13.85-11.229 25.079-25.08 25.079zM37.4 19.05l-6.717-6.717h-7.35v3.334h5.984L32.65 19H13.333C8.667 19 5 22.667 5 27.333c0 4.667 3.667 8.334 8.333 8.334 4.1 0 7.417-2.817 8.167-6.667h2.75l4.617-4.617c-.35.9-.534 1.9-.534 2.95 0 4.667 3.667 8.334 8.334 8.334C41.333 35.667 45 32 45 27.333c0-4.416-3.283-7.95-7.6-8.283z"/><path d="M18.033 29c-.7 1.917-2.566 3.333-4.7 3.333-2.716 0-5-2.283-5-5 0-2.716 2.284-5 5-5 2.134 0 4 1.417 4.7 3.334h-4.7V29h4.7zm18.634 3.333c-2.767 0-5-2.233-5-5 0-2.766 2.233-5 5-5 2.766 0 5 2.234 5 5 0 2.767-2.234 5-5 5z"/></g></svg>
