<svg viewBox="0 0 55 51" xmlns="http://www.w3.org/2000/svg"><title>weather-low</title><path d="M10 25c0-2.425.464-4.748 1.392-6.967.927-2.22 2.176-4.133 3.745-5.742 1.57-1.61 3.44-2.893 5.613-3.852A16.678 16.678 0 0 1 27.558 7h2.83c.386.111.58.349.58.713l.115 2.235c.093 3.218 1.222 5.96 3.387 8.228 2.164 2.267 4.793 3.463 7.886 3.59l2.04.167c.403 0 .604.198.604.594V25c.015 3.25-.754 6.258-2.308 9.024-1.554 2.766-3.672 4.954-6.355 6.563-2.683 1.609-5.61 2.413-8.78 2.413-2.411 0-4.704-.476-6.876-1.427-2.173-.95-4.036-2.23-5.59-3.84-1.554-1.609-2.79-3.523-3.711-5.742A18.088 18.088 0 0 1 10 25zm4.527.123c0 1.934.375 3.757 1.125 5.469.75 1.712 1.732 3.147 2.946 4.304a14 14 0 0 0 4.175 2.746c1.57.674 3.166 1.01 4.79 1.01 1.437 0 2.887-.288 4.348-.867a15.008 15.008 0 0 0 4.07-2.425c1.253-1.039 2.332-2.366 3.236-3.983.905-1.617 1.489-3.385 1.751-5.303-4.035-.856-7.27-2.627-9.706-5.314-2.436-2.687-3.839-5.846-4.21-9.476-2.335.127-4.473.864-6.413 2.212a13.932 13.932 0 0 0-4.511 5.124c-1.067 2.068-1.6 4.236-1.6 6.503z" fill="#494949" fill-rule="evenodd"/></svg>
