<svg viewBox="0 0 55 51" xmlns="http://www.w3.org/2000/svg"><title>weather-percip</title><path d="M3 26.029c0-2.627.818-4.96 2.455-6.998 1.637-2.038 3.708-3.355 6.213-3.951.712-3.096 2.313-5.642 4.804-7.637 2.491-1.996 5.345-2.993 8.562-2.993 2.249 0 4.306.497 6.17 1.49C33.553 3.315 36.5 2 40.044 2c2.149 0 4.142.536 5.978 1.608a11.99 11.99 0 0 1 4.366 4.357A11.582 11.582 0 0 1 52 13.929c0 2.855-.897 5.368-2.69 7.541.655 1.364.982 2.883.982 4.559 0 1.988-.48 3.838-1.441 5.55a11.096 11.096 0 0 1-3.95 4.1 11.123 11.123 0 0 1-5.498 1.64c-.285 0-.427-.135-.427-.405V33.89c0-.27.142-.404.427-.404 1.95-.1 3.608-.874 4.975-2.322 1.366-1.449 2.05-3.16 2.05-5.134 0-2.03-.726-3.763-2.178-5.198-1.452-1.434-3.21-2.151-5.274-2.151h-3.694c-.27 0-.405-.135-.405-.405l-.15-1.32c-.256-2.443-1.316-4.496-3.181-6.157-1.865-1.662-4.035-2.493-6.512-2.493-2.49 0-4.658.828-6.501 2.482-1.844 1.655-2.886 3.71-3.128 6.167l-.171 1.15c0 .27-.15.405-.448.405l-1.196.17c-1.907.228-3.502 1.037-4.783 2.43-1.28 1.39-1.921 3.031-1.921 4.92 0 1.974.683 3.685 2.05 5.134 1.366 1.448 3.024 2.222 4.974 2.322.27 0 .406.135.406.404v3.025c0 .27-.135.405-.406.405-3.046-.156-5.626-1.32-7.74-3.493C4.058 31.653 3 29.054 3 26.029zM34.416 8.096c1.85 1.79 3.125 3.998 3.822 6.625h.747c3.06 0 5.708 1.115 7.943 3.345.783-1.378 1.174-2.77 1.174-4.176 0-2.215-.786-4.11-2.36-5.687-1.572-1.577-3.469-2.365-5.69-2.365-2.191 0-4.07.753-5.636 2.258zm-19.095 33.61c-.199-.596-.185-1.086.043-1.47.228-.454.58-.78 1.057-.98.477-.198.943-.205 1.398-.02.484.227.819.585 1.004 1.075.185.49.178.984-.022 1.48a1.7 1.7 0 0 1-1.014 1.013c-.49.191-.964.174-1.42-.054a1.803 1.803 0 0 1-1.046-1.043zm1.143-6.552l.064-.575 2.285-7.222a1.88 1.88 0 0 1 .907-1.14 1.74 1.74 0 0 1 1.42-.138c.555.114.975.398 1.26.852.284.454.341.959.17 1.512l-2.241 7.073c-.185.596-.513 1.015-.983 1.257-.47.241-.96.284-1.473.127-.47-.127-.822-.362-1.057-.703-.234-.34-.352-.688-.352-1.043zm4.488 12.993c0-.341.096-.693.288-1.055.193-.362.51-.635.95-.82a1.797 1.797 0 0 1 1.41.021c.455.2.797.547 1.025 1.044.227.497.23.998.01 1.502s-.58.849-1.078 1.033c-.313.085-.54.128-.683.128-.313 0-.562-.057-.748-.17-.483-.17-.832-.512-1.046-1.023-.085-.284-.128-.504-.128-.66zm1.603-6.326c0-.057.004-.124.01-.202a4.17 4.17 0 0 1 .033-.256 1.56 1.56 0 0 0 .021-.223l4.1-13.783a1.87 1.87 0 0 1 .918-1.14c.455-.248.946-.294 1.473-.138.512.156.893.45 1.142.884.25.433.295.927.139 1.48l-4.014 13.783c-.242.866-.854 1.335-1.836 1.406-.072 0-.171-.014-.3-.043a1.502 1.502 0 0 0-.255-.042c-.499-.1-.862-.313-1.09-.64a1.857 1.857 0 0 1-.341-1.086zm7.694-.796c0-.284.057-.547.17-.788a2 2 0 0 1 1.079-.98 1.986 1.986 0 0 1 1.484-.022c.455.242.772.604.95 1.087.178.483.174.973-.01 1.47-.186.454-.535.78-1.047.98-.17.085-.391.127-.662.127-.327 0-.598-.05-.811-.149-.513-.184-.861-.518-1.046-1a2.704 2.704 0 0 1-.107-.725zm1.923-5.893c0-.042.036-.262.107-.66l2.242-7.115c.17-.511.477-.891.918-1.14.441-.248.925-.294 1.452-.138.512.156.9.458 1.163.905.264.448.31.934.14 1.46l-2.243 7.072c-.213.639-.52 1.058-.918 1.257a1.623 1.623 0 0 1-.768.191c-.143 0-.37-.042-.684-.127-.939-.327-1.409-.895-1.409-1.705z" fill="#494949" fill-rule="evenodd"/></svg>
