<svg width="203" height="195" viewBox="0 0 203 195" xmlns="http://www.w3.org/2000/svg"><title>weather-high</title><g fill="currentColor" fill-rule="evenodd"><path d="M108.65 146.676c16.984-1.575 30.822-8.551 37.346-18.919 8.615-13.69 12.775-27.519 11.885-39.487-.922-12.407-7.203-22.976-19.852-31.52-3.768-2.545-9.207-5.4-15.564-7.667-9.094-3.244-18.526-4.709-27.96-3.837-16.633 1.537-30.036 11.038-40.136 24.112-15.051 19.485-8.86 49.977 12.396 67.419 9.08 7.45 25.387 11.43 41.885 9.9zm-50.766.924C32.97 127.156 22.047 88.3 43.29 60.8c7.21-9.334 23.94-27.094 49.927-29.495 25.986-2.4 47.001 10.03 52.648 13.844 33.93 22.918 31.35 59.282 11.98 90.065-19.371 30.782-75.048 32.83-99.961 12.386z" fill-rule="nonzero"/><path d="M87.826 173.02c-1.001-3.307 5.971 1.9 17.466 1.891 8.907-.006 15.565-5.26 14.522-2.876-4.132 9.438-13.854 21.329-14.96 21.171-3.85-.55-16.078-17.049-17.028-20.186zm80.347-124.27c-1.359 3.177-3.353-5.294-12.164-12.676-6.827-5.72-15.305-5.976-12.974-7.13 9.233-4.575 24.323-7.435 25.069-6.603 2.597 2.895 1.358 23.395.07 26.409zM146.45 163.814c-3.102-1.523 5.461-3.071 13.294-11.484 6.07-6.518 6.769-14.971 7.8-12.582 4.086 9.459 6.151 24.678 5.282 25.379-3.028 2.442-23.434.132-26.377-1.313zM56.924 28.586c3.218 1.406-5.299 3.32-12.64 12.118-5.688 6.817-9.326 14.887-10.518 12.523-4.718-9.36-4.296-24.133-3.467-24.875 2.89-2.585 23.572-1.1 26.625.234zm-24.838 110.99c1.406-3.218 3.32 5.299 12.118 12.64 6.817 5.688 14.887 9.326 12.523 10.518-9.36 4.718-24.133 4.296-24.875 3.467-2.585-2.89-1.1-23.572.234-26.625zm86.79-117.613c1.27 3.257-7.382-2.213-18.174-2.05-8.992.134-16.461 4.554-15.64 2.05C88.314 12.047 99.602-.061 100.702 0c3.835.215 16.97 18.873 18.174 21.963zm60.932 91.875c-3.167 1.28 4.009-5.024 3.836-18.916-.126-10.146-5.182-17.687-2.748-16.86 9.64 3.276 22.164 15.75 22.104 16.86-.209 3.863-20.188 17.703-23.192 18.916zM24.255 76.094c3.174-1.103-4.815 7.573-4.99 20.108-.124 8.926 5.158 17.565 2.735 16.744-9.594-3.254-22.06-15.643-22-16.744.208-3.837 17.843-17.88 24.255-20.108z"/></g></svg>