<svg width="15" height="15" viewBox="0 0 15 15" xmlns="http://www.w3.org/2000/svg"><title>wilderness</title><g fill="none" fill-rule="evenodd"><path d="M2.295 9.6l-.661-2.265c-.225-.938-.183-1.907.121-2.908a35.2 35.2 0 0 1 .872-2.548C3.114.85 3.97.393 5.09.543c.907.12 3.155.51 6.76 1.167 1.107.17 1.66 1.034 1.66 2.41l-.065 7.931c-.058 1.302-.843 2.051-2.21 2.134-1.11.068-2.901.166-5.383.297-1.226.044-2.082-.397-2.438-1.316-.278-.72-.65-1.906-1.119-3.566z" fill="#FFF" fill-rule="nonzero"/><path d="M12.942 11.276H3.315c-.16-.52-.336-1.122-.529-1.804l-.658-2.256c-.203-.845-.164-1.73.116-2.654.281-.925.568-1.763.86-2.514.382-.803 1.02-1.144 1.916-1.025.895.12 3.143.508 6.741 1.165.826.124 1.239.766 1.239 1.928l-.058 7.16zm-.005.605v.167c-.047 1.035-.625 1.586-1.734 1.653-1.108.067-2.899.166-5.37.296-1.022.037-1.67-.297-1.94-.999a21.206 21.206 0 0 1-.388-1.117h9.432z" fill="#268000"/><path fill="#FFF" d="M10.352 5.172L9.234 9.149h-.82l-.66-1.96-.659 1.96h-.814L5.157 5.172h1.05l.533 2.1.66-2.1h.71l.66 2.1.533-2.1z"/></g></svg>