<?xml version="1.0" encoding="UTF-8"?>
<svg width="15px" height="15px" viewBox="0 0 15 15" version="1.1" xmlns="http://www.w3.org/2000/svg" xmlns:xlink="http://www.w3.org/1999/xlink">
    <!-- Generator: Sketch 51.2 (57519) - http://www.bohemiancoding.com/sketch -->
    <title>wilderness</title>
    <desc>Created with Sketch.</desc>
    <defs></defs>
    <g id="wilderness" stroke="none" stroke-width="1" fill="none" fill-rule="evenodd">
        <g id="Wilderness" transform="translate(2.000000, 1.000000)">
            <g id="Group-9" transform="translate(-0.509259, -0.485075)">
                <path d="M0.80447527,9.08504851 L0.142950619,6.8202135 C-0.082208126,5.88166811 -0.0395390852,4.91355693 0.264540677,3.91190883 C0.548596206,2.97622117 0.839238604,2.12696649 1.13667939,1.36391866 C1.623498,0.335721168 2.4784886,-0.121691287 3.59963835,0.0279333705 C4.50651313,0.148961653 6.75469458,0.537337501 10.3586497,1.19518665 C11.4658141,1.3652284 12.0185185,2.22905555 12.0185035,3.60439758 L11.9546158,11.5365119 C11.8966527,12.8380612 11.1115773,13.5871133 9.74502449,13.6701368 C8.63440306,13.7376114 6.84304681,13.8364637 4.36105581,13.9671447 C3.13520915,14.0106234 2.27898052,13.5696778 1.9237564,12.6506988 C1.64574803,11.93148 1.27368871,10.7453389 0.80447527,9.08504851 Z" id="Combined-Shape" fill="#FFFFFF" fill-rule="nonzero"></path>
                <path d="M11.451588,10.7609736 L1.82423585,10.7609736 C1.66469596,10.2407008 1.4885087,9.63937486 1.29567406,8.95699584 L0.636763628,6.70111103 C0.434051843,5.85613292 0.473049822,4.97131389 0.753757564,4.04665395 C1.03446531,3.121994 1.32124372,2.28402985 1.6140928,1.53276149 C1.995088,0.730274914 2.63338243,0.388793001 3.52897612,0.508315748 C4.4245698,0.627838496 6.67178583,1.01607334 10.2706242,1.67302027 C11.0963809,1.79674323 11.5092593,2.43929524 11.5092593,3.60067629 L11.451588,10.7609736 Z M11.4467113,11.3664531 L11.4453715,11.5327906 C11.3990402,12.5675941 10.8214524,13.1186792 9.7126083,13.1860458 C8.60376415,13.2534125 6.81359666,13.3521992 4.34210583,13.482406 C3.3199994,13.5186584 2.67318174,13.1855565 2.40165285,12.4831004 C2.28915459,12.1920629 2.15998325,11.8198471 2.01413882,11.3664531 L11.4467113,11.3664531 Z" id="Combined-Shape" fill="#268000"></path>
                <polygon id="W" fill="#FFFFFF" points="8.86111111 4.65671642 7.74310155 8.63432836 6.92322786 8.63432836 6.26388889 6.67345506 5.60454991 8.63432836 4.79040961 8.63432836 3.66666667 4.65671642 4.71587564 4.65671642 5.24908021 6.75725306 5.90841918 4.65671642 6.6193586 4.65671642 7.27869757 6.75725306 7.81190213 4.65671642"></polygon>
            </g>
        </g>
    </g>
</svg>