<svg viewBox="0 0 50 61" xmlns="http://www.w3.org/2000/svg"><title>wilderness</title><g fill="none" fill-rule="evenodd"><path d="M4.208 40.046L1.5 30.29C.581 26.247.755 22.077 2 17.762c1.162-4.03 2.35-7.69 3.568-10.976 1.991-4.43 5.489-6.4 10.075-5.755 3.71.521 12.908 2.194 27.651 5.028 4.53.732 6.79 4.454 6.79 10.378l-.261 34.17c-.237 5.606-3.449 8.833-9.04 9.19-4.543.29-11.871.717-22.025 1.28-5.014.187-8.517-1.713-9.97-5.671-1.138-3.098-2.66-8.208-4.58-15.36z" fill="#FFF" fill-rule="nonzero"/><path d="M47.764 47.265H8.38a385.798 385.798 0 0 1-2.162-7.77l-2.695-9.718c-.83-3.64-.67-7.452.478-11.435C5.15 14.36 6.322 10.75 7.52 7.513c1.558-3.457 4.17-4.928 7.833-4.413 3.664.515 12.857 2.187 27.58 5.017C46.31 8.65 48 11.418 48 16.421l-.236 30.844zm-.02 2.609l-.005.716c-.19 4.458-2.553 6.832-7.089 7.122-4.536.29-11.86.716-21.97 1.277-4.182.156-6.828-1.28-7.938-4.305-.46-1.254-.989-2.857-1.586-4.81h38.588z" fill="#004313"/><path fill="#FFF" d="M37.167 20.97l-4.574 17.134h-3.354l-2.697-8.446-2.698 8.446h-3.33L15.917 20.97h4.292l2.181 9.049 2.697-9.049h2.909l2.697 9.049 2.181-9.049z"/></g></svg>
