<svg viewBox="0 0 278 43" xmlns="http://www.w3.org/2000/svg"><title>Trail Gunk</title><path d="M41.93 15.17c0 .188-.14.356-.421.506-.282.15-.61.225-.985.225-.15 0-.357-.028-.62-.084-.262-.056-.412-.122-.45-.197-.525-2.06-1.772-4.336-3.742-6.827-1.97-2.49-3.818-3.736-5.544-3.736h-.845c-.863 0-1.482.178-1.857.534-.375.355-.563.908-.563 1.657v26.633c0 1.498.357 2.603 1.07 3.315.713.712 2.157 1.18 4.333 1.405.113 0 .216.159.31.477.094.319.14.571.14.759 0 .224-.046.487-.14.786-.094.3-.197.45-.31.45-1.8 0-3.649-.047-5.543-.14a108.766 108.766 0 0 0-5.375-.141c-1.726 0-3.527.047-5.404.14-1.876.094-3.733.14-5.572.14-.112 0-.215-.149-.31-.449a2.71 2.71 0 0 1-.14-.786c0-.188.047-.431.14-.73.095-.3.198-.469.31-.506 2.214-.263 3.668-.73 4.362-1.405.694-.674 1.042-1.78 1.042-3.315V7.248c0-.824-.17-1.395-.507-1.714-.338-.318-.976-.477-1.914-.477h-.45c-1.538 0-3.433 1.152-5.684 3.455-2.252 2.304-3.846 4.673-4.785 7.108-.037.112-.178.187-.422.225a4.13 4.13 0 0 1-.59.056c-.338 0-.667-.075-.986-.225-.319-.15-.478-.318-.478-.505.375-1.873.779-4.168 1.21-6.883.432-2.716.741-4.973.929-6.77 1.313.224 3.358.411 6.135.56 2.776.15 7.148.226 13.114.226 5.103 0 9.352-.075 12.748-.225 3.395-.15 5.637-.337 6.726-.562.112 1.798.262 3.933.45 6.405.187 2.473.394 4.889.619 7.249zm20.146 4.496c0 1.31-.385 2.387-1.154 3.23-.77.843-1.773 1.264-3.011 1.264-.788 0-1.445-.168-1.97-.505a7.774 7.774 0 0 1-1.295-1.012c-.337-.374-.703-.73-1.097-1.067a1.983 1.983 0 0 0-1.323-.506c-.788 0-1.416.244-1.885.73-.47.488-.966 1.2-1.492 2.136v9.889c0 1.76.3 2.95.9 3.568.601.618 1.727 1.02 3.378 1.208.112 0 .216.15.31.45a2.7 2.7 0 0 1 .14.786c0 .187-.047.44-.14.758-.094.319-.198.478-.31.478-1.163 0-2.636-.056-4.418-.169a75.102 75.102 0 0 0-4.644-.168c-1.276 0-2.739.056-4.39.168a62.66 62.66 0 0 1-4.165.169c-.112 0-.216-.16-.31-.478-.093-.318-.14-.571-.14-.758 0-.225.047-.487.14-.787.094-.3.198-.45.31-.45 1.651-.224 2.702-.617 3.152-1.18.45-.561.675-1.76.675-3.595v-8.822c0-1.498-.178-2.481-.534-2.95-.357-.468-1.23-.777-2.617-.927-.113 0-.216-.14-.31-.421a2.298 2.298 0 0 1-.14-.702c0-.188.046-.431.14-.73.094-.3.197-.45.31-.45 1.238-.3 2.945-.862 5.121-1.686 2.177-.824 3.865-1.517 5.066-2.079.112-.075.3-.168.563-.28.262-.113.487-.17.675-.17.45 0 .779.076.985.225.206.15.31.319.31.506l-.282 5.394a12.085 12.085 0 0 1 3.49-4.045c1.463-1.087 2.833-1.63 4.108-1.63 1.839 0 3.274.422 4.306 1.264 1.032.843 1.548 1.958 1.548 3.344zm29.654 18.71a.923.923 0 0 0-.056.28c0 .076-.056.15-.169.226-.713.824-1.82 1.498-3.32 2.022-1.501.525-3.04.787-4.616.787-1.538 0-2.786-.347-3.742-1.04-.957-.693-1.586-1.62-1.886-2.78-.863 1.31-1.96 2.275-3.292 2.893-1.333.618-2.974.927-4.925.927-2.139 0-3.95-.487-5.432-1.461-1.482-.974-2.223-2.453-2.223-4.439 0-2.21 1.22-4.008 3.659-5.394 2.439-1.386 6.528-2.715 12.27-3.989l.168-5.506c0-1.162-.169-1.93-.506-2.304-.338-.375-.9-.562-1.689-.562-.788 0-1.51.15-2.167.45-.656.3-1.022.917-1.097 1.854-.188 2.322-.676 3.933-1.464 4.832-.788.899-1.95 1.348-3.49 1.348-1.387 0-2.447-.402-3.18-1.208-.73-.805-1.097-1.77-1.097-2.893 0-1.873 1.53-3.596 4.587-5.17 3.058-1.573 6.482-2.36 10.272-2.36 3.452 0 5.807.862 7.064 2.585 1.257 1.723 1.829 4.064 1.716 7.024l-.281 9.776c-.075 1.311.112 2.163.563 2.557.45.393.881.59 1.294.59.338 0 .657-.057.957-.169a2.7 2.7 0 0 0 .788-.45c.15-.112.403.029.76.422.356.393.534.777.534 1.152zm-13.845-9.89c-2.214.525-3.809 1.237-4.784 2.136-.976.899-1.464 2.191-1.464 3.877 0 .936.254 1.686.76 2.247.507.562 1.21.843 2.11.843.751 0 1.436-.234 2.055-.702.62-.468 1.004-1.358 1.154-2.669l.169-5.731zm25.507-22.755c0 1.424-.507 2.64-1.52 3.652S99.658 10.9 98.27 10.9s-2.589-.505-3.602-1.517c-1.013-1.011-1.52-2.228-1.52-3.652 0-1.386.507-2.585 1.52-3.596C95.68 1.124 96.882.618 98.27.618s2.589.506 3.602 1.517 1.52 2.21 1.52 3.596zm4.221 34.106c0 .224-.047.487-.14.786-.095.3-.198.45-.31.45-1.163 0-2.617-.047-4.362-.14a86.9 86.9 0 0 0-4.587-.141c-1.276 0-2.683.047-4.222.14-1.538.094-2.87.14-3.996.14-.112 0-.215-.149-.31-.449a2.71 2.71 0 0 1-.14-.786c0-.188.047-.431.14-.73.095-.3.198-.469.31-.506 1.389-.15 2.374-.525 2.955-1.124.582-.6.873-1.798.873-3.596v-8.428c0-1.499-.291-2.472-.873-2.922-.581-.45-1.566-.75-2.955-.899-.112-.037-.215-.197-.31-.478a2.323 2.323 0 0 1-.14-.702c0-.187.047-.43.14-.73.095-.3.198-.45.31-.45 1.801-.374 3.828-.983 6.079-1.826 2.251-.843 3.996-1.564 5.234-2.163.113-.075.3-.169.563-.281.263-.112.488-.169.676-.169.45 0 .778.075.984.225.207.15.291.319.254.506-.075 1.31-.17 2.903-.282 4.776-.112 1.873-.169 3.446-.169 4.72v8.82c0 1.761.3 2.96.901 3.597.6.637 1.576 1.011 2.927 1.124.112 0 .215.159.31.477.093.319.14.571.14.759zm15.883 0c0 .224-.047.487-.141.786-.094.3-.197.45-.31.45-1.163 0-2.617-.056-4.362-.169a72.464 72.464 0 0 0-4.587-.168c-1.275 0-2.683.056-4.22.168a55.59 55.59 0 0 1-3.997.169c-.113 0-.216-.15-.31-.45a2.71 2.71 0 0 1-.14-.786c0-.188.047-.431.14-.73.094-.3.197-.469.31-.506 1.388-.15 2.373-.525 2.955-1.124.581-.6.872-1.798.872-3.596V10.676c0-1.499-.281-2.482-.844-2.95-.563-.468-1.557-.778-2.983-.927-.113-.038-.216-.197-.31-.478a2.323 2.323 0 0 1-.14-.702c0-.188.047-.422.14-.703.094-.28.197-.421.31-.421 1.801-.412 3.78-1.02 5.938-1.826 2.157-.805 3.949-1.545 5.375-2.22.112-.074.3-.168.563-.28.262-.113.487-.169.675-.169.45 0 .779.084.985.253.206.168.29.328.253.477-.075 1.311-.169 2.922-.281 4.833-.113 1.91-.169 3.464-.169 4.663v23.655c0 1.76.3 2.96.9 3.596.6.637 1.577 1.011 2.927 1.124.113 0 .216.159.31.477.094.319.14.571.14.759zm52.646-16.014c0 .188-.047.44-.141.759-.094.318-.197.477-.31.477-1.8.188-3.039.675-3.714 1.461-.676.787-1.013 1.873-1.013 3.26v5.674c0 .937.047 1.61.14 2.023.094.412.254.861.479 1.348-2.252.787-4.84 1.508-7.767 2.164a41.632 41.632 0 0 1-9.118.983c-3.64 0-6.885-.562-9.737-1.686-2.852-1.124-5.216-2.64-7.092-4.55a18.192 18.192 0 0 1-4.165-6.406 20.92 20.92 0 0 1-1.407-7.586c0-2.809.516-5.422 1.548-7.838 1.032-2.416 2.598-4.616 4.7-6.602 2.063-1.91 4.662-3.418 7.795-4.523 3.133-1.105 6.613-1.657 10.44-1.657 2.177 0 4.447.318 6.81.955 2.364.637 4.41.955 6.135.955 0 1.536.038 3.512.113 5.928.075 2.416.131 4.448.169 6.096 0 .113-.16.216-.479.31-.318.093-.61.14-.872.14-.263 0-.497-.038-.703-.113-.207-.075-.348-.187-.423-.337-.863-3.109-2.41-5.75-4.643-7.922-2.233-2.173-4.906-3.26-8.02-3.26-3.377 0-6.05 1.668-8.02 5.002-1.97 3.333-2.955 7.622-2.955 12.866 0 5.057.956 9.243 2.87 12.558 1.914 3.315 4.559 4.973 7.936 4.973 2.289 0 3.836-.3 4.643-.9.807-.598 1.21-1.497 1.21-2.696v-6.686c0-1.274-.337-2.173-1.013-2.697-.675-.525-2.176-.918-4.502-1.18-.113 0-.216-.15-.31-.45a2.82 2.82 0 0 1-.14-.843c0-.262.046-.533.14-.814.094-.281.197-.422.31-.422 1.838 0 3.452.056 4.84.169a57.57 57.57 0 0 0 4.615.168 96.19 96.19 0 0 0 5.516-.168 98.915 98.915 0 0 1 5.684-.169c.113 0 .216.15.31.45.094.3.14.562.14.786zm33.217 14.721c0 .263-.046.506-.14.73-.094.226-.197.338-.31.338-1.163.112-2.87.375-5.122.787-2.25.412-3.977.805-5.178 1.18-.112 0-.3.046-.562.14-.263.094-.526.14-.788.14-.3 0-.535-.084-.704-.252-.169-.169-.253-.31-.253-.422l-.282-3.933c-.863 1.536-2.007 2.688-3.433 3.456-1.426.768-3.152 1.151-5.178 1.151-2.927 0-5.178-.842-6.754-2.528-1.576-1.686-2.364-4.064-2.364-7.136V23.15c0-1.685-.29-2.8-.872-3.343-.582-.543-1.623-.796-3.124-.759-.112 0-.216-.13-.31-.393a2.322 2.322 0 0 1-.14-.786c0-.263.047-.544.14-.843.094-.3.198-.45.31-.45 1.276 0 3.283-.13 6.022-.393 2.74-.262 4.822-.562 6.248-.9.338-.111.638-.037.9.226.263.262.394.45.394.562V33.32c0 1.46.31 2.557.929 3.287.62.73 1.567 1.096 2.842 1.096.9 0 1.708-.356 2.42-1.068.713-.712 1.295-1.63 1.745-2.753V23.149c0-1.61-.29-2.706-.872-3.287-.582-.58-1.642-.852-3.18-.815-.113 0-.216-.14-.31-.42a2.423 2.423 0 0 1-.14-.76c0-.262.047-.543.14-.842.094-.3.197-.45.31-.45 1.238 0 3.246-.112 6.022-.337 2.777-.225 4.878-.506 6.304-.843.338-.112.628-.037.872.225s.366.45.366.562v17.137c0 1.61.216 2.65.647 3.118.432.469 1.417.759 2.955.871.113 0 .216.16.31.478.094.318.14.571.14.758zm33.894 1.349c0 .225-.047.487-.141.787-.094.3-.197.449-.31.449-1.163 0-2.504-.056-4.024-.169a57.847 57.847 0 0 0-4.25-.168 41.83 41.83 0 0 0-3.77.168 39.06 39.06 0 0 1-3.546.169c-.113 0-.216-.15-.31-.45-.093-.3-.14-.561-.14-.786 0-.225.047-.478.14-.759.094-.28.197-.44.31-.477.75-.113 1.313-.478 1.688-1.096.376-.618.563-1.826.563-3.624v-8.934c0-1.873-.215-3.202-.647-3.989-.431-.787-1.304-1.18-2.617-1.18-1.088 0-1.97.365-2.645 1.096-.676.73-1.351 1.9-2.027 3.511v9.496c0 1.648.179 2.828.535 3.54.357.712.91 1.105 1.66 1.18.113 0 .216.14.31.421.094.281.14.553.14.815 0 .262-.046.534-.14.815-.094.28-.197.421-.31.421-1.163 0-2.345-.056-3.545-.169a40.498 40.498 0 0 0-3.771-.168c-1.314 0-2.73.056-4.25.168-1.52.113-2.842.169-3.968.169-.112 0-.215-.14-.31-.421a2.567 2.567 0 0 1-.14-.815c0-.262.047-.524.14-.787.095-.262.198-.412.31-.45 1.651-.224 2.692-.608 3.124-1.151.431-.543.647-1.732.647-3.568v-8.821c0-1.574-.169-2.576-.506-3.006-.338-.431-1.201-.721-2.59-.871-.112 0-.215-.15-.309-.45-.094-.3-.14-.543-.14-.73 0-.187.046-.422.14-.703.094-.28.197-.42.31-.42 1.275-.338 3.03-.928 5.262-1.77 2.233-.844 3.874-1.527 4.925-2.052.112-.075.3-.168.563-.28.262-.113.488-.17.675-.17.45 0 .779.085.985.254.206.168.29.327.253.477l-.225 5.394c.75-1.835 1.942-3.24 3.574-4.214 1.632-.974 3.349-1.46 5.15-1.46 2.814 0 5.01.88 6.585 2.64 1.576 1.76 2.364 3.727 2.364 5.9v10.282c0 1.798.225 2.987.676 3.568.45.58 1.5.965 3.151 1.152.113 0 .216.159.31.477.094.319.14.572.14.759zm32.71-.056c0 .262-.046.534-.14.814-.094.281-.197.422-.31.422-1.163 0-2.307-.056-3.433-.169a36.953 36.953 0 0 0-3.658-.168c-1.313 0-2.833.056-4.559.168-1.726.113-3.152.169-4.278.169-.112 0-.215-.15-.31-.45a2.71 2.71 0 0 1-.14-.786c0-.188.047-.431.14-.73.095-.3.198-.469.31-.506.563-.075.967-.188 1.21-.338.244-.15.366-.374.366-.674 0-.3-.093-.674-.281-1.124-.188-.449-.6-1.01-1.238-1.685l-4.109-4.551a1.842 1.842 0 0 0-.647-.422c-.244-.093-.572-.14-.985-.14v4.214c0 1.648.187 2.828.563 3.54.375.711.938 1.105 1.688 1.18.113 0 .216.159.31.477.094.319.14.571.14.759 0 .224-.046.487-.14.786-.094.3-.197.45-.31.45a35.4 35.4 0 0 1-3.461-.169 37.82 37.82 0 0 0-3.687-.168c-1.276 0-2.72.056-4.334.168a60.603 60.603 0 0 1-4.108.169c-.113 0-.216-.14-.31-.422a2.567 2.567 0 0 1-.14-.814c0-.188.046-.431.14-.73.094-.3.197-.469.31-.506 1.388-.15 2.364-.506 2.926-1.068.563-.562.845-1.78.845-3.652V10.676c0-1.461-.291-2.435-.873-2.922-.581-.487-1.547-.806-2.898-.955-.113-.038-.216-.197-.31-.478a2.292 2.292 0 0 1-.14-.702c0-.188.046-.422.14-.703.094-.28.197-.421.31-.421 1.8-.412 3.78-1.02 5.938-1.826 2.157-.805 3.949-1.545 5.375-2.22.112-.074.3-.168.563-.28.262-.113.487-.169.675-.169.45 0 .778.084.985.253.206.168.29.328.253.477a2961.45 2961.45 0 0 1-.281 4.833c-.113 1.91-.17 3.464-.17 4.663v16.969c.264 0 .526-.038.789-.113.262-.075.525-.225.788-.45l5.122-4.213c.75-.637 1.275-1.162 1.575-1.574.3-.412.45-.767.45-1.067 0-.375-.177-.665-.534-.871-.356-.206-1.079-.365-2.167-.478-.112 0-.216-.15-.31-.45a2.7 2.7 0 0 1-.14-.786c0-.224.047-.487.14-.786.094-.3.198-.45.31-.45 1.2 0 2.317.056 3.349.169a29.36 29.36 0 0 0 3.18.168c.863 0 1.801-.056 2.814-.168a29.127 29.127 0 0 1 3.208-.169c.113 0 .216.15.31.45.094.3.14.562.14.786 0 .188-.046.44-.14.759-.094.318-.197.477-.31.477-.938.075-2.063.394-3.377.956-1.313.561-2.889 1.573-4.727 3.034l-2.702 2.247 8.386 10.114c1.05 1.124 2.026 2.023 2.927 2.697.9.674 1.745 1.049 2.533 1.124.112 0 .215.159.31.477.093.319.14.571.14.759z" fill="#344632" fill-rule="evenodd"/></svg>
