<svg width="155" height="145" viewBox="0 0 155 145" xmlns="http://www.w3.org/2000/svg"><title>area copy</title><path d="M39.948 115.738c-4.44-3.647-8.409-8.034-11.718-12.942l-14.64 9.872c4.257 6.311 9.377 11.97 15.152 16.714l11.206-13.644zM21.253 89.042c-1.998-5.584-3.113-11.313-3.282-16.931L.323 72.64c.225 7.501 1.695 15.054 4.306 22.35l16.624-5.948zm-1.421-31.603c1.51-5.06 3.924-9.794 7.253-14.116l.522-.67L13.744 31.72c-.21.267-.414.528-.642.823C8.443 38.591 5.04 45.268 2.914 52.388l16.918 5.051zm18.772-26.115c4.58-3.808 9.536-6.948 14.862-9.257l-7.023-16.2C39.498 8.88 33.13 12.915 27.315 17.75l11.289 13.575zm29.403-13.237a52.55 52.55 0 0 1 1.582-.17c5.32-.492 10.654-.279 15.966.564l2.766-17.438C81.597-.024 74.794-.296 67.963.336a70.21 70.21 0 0 0-2.114.228l2.158 17.523zm32.77 4.53c5.836 2.25 10.821 4.931 14.363 7.326.47.318.932.638 1.386.962l10.253-14.374a84.91 84.91 0 0 0-1.75-1.215c-4.595-3.106-10.745-6.413-17.899-9.172l-6.353 16.473zm26.816 18.63c3.574 4.509 6.07 9.403 7.541 14.654l17.002-4.762c-2.103-7.509-5.676-14.513-10.707-20.86l-13.836 10.967zm9.06 29.27c-.292 5.517-1.482 11.283-3.533 17.17l16.674 5.809c2.58-7.41 4.107-14.806 4.491-22.044l-17.631-.935zm-10.269 31.772c-.67 1.168-1.37 2.332-2.099 3.491-2.175 3.46-5.012 6.555-8.462 9.256l10.886 13.9c5.016-3.928 9.237-8.532 12.523-13.758a118.874 118.874 0 0 0 2.466-4.101l-15.314-8.788zm-23.662 19.997c-5.315 2.03-11.177 3.402-17.29 4.063l1.9 17.553c7.582-.82 14.921-2.538 21.688-5.121l-6.298-16.495zm-33.14 4.169c-6.174-.585-12.056-1.896-17.28-3.849l-6.182 16.538c6.716 2.511 14.116 4.16 21.797 4.888l1.666-17.577z" fill="currentColor" fill-rule="nonzero"/></svg>
