<svg width="69" height="69" viewBox="0 0 69 69" xmlns="http://www.w3.org/2000/svg"><title>exit-gray-dark</title><path d="M34.5 20.46L16.949 2.907C13.072-.97 6.785-.97 2.908 2.907c-3.877 3.877-3.877 10.164 0 14.04L20.459 34.5 2.908 52.051c-3.877 3.877-3.877 10.164 0 14.041 3.877 3.877 10.164 3.877 14.04 0L34.5 48.541l17.551 17.551c3.877 3.877 10.164 3.877 14.041 0 3.877-3.877 3.877-10.164 0-14.04L48.541 34.5l17.551-17.551c3.877-3.877 3.877-10.164 0-14.041-3.877-3.877-10.164-3.877-14.04 0L34.5 20.459z" fill="currentColor" fill-rule="evenodd"/></svg>
