<svg width="163" height="143" viewBox="0 0 163 143" xmlns="http://www.w3.org/2000/svg"><title>path</title><path d="M97.815 0c-6.182.883-13.991 2.716-21.043 5.201l4.319 12.256c6.203-2.186 13.187-3.826 18.56-4.593L97.816 0zM67.446 9.116c-9.125 4.577-15.4 10.331-17.654 17.78L62.23 30.66c1.005-3.319 4.795-6.795 11.043-9.928L67.446 9.116zm-2.652 31.828c-.622-1.032-1.352-2.69-2.246-5.156-.006-.017-4.09 1.426-12.253 4.327l.036.1c2.585 7.134 4.818 10.84 8.87 12.898 4.015 2.04 7.388 1.626 13.941-.43l-3.89-12.399c-2.083.654-3.318.97-4.148 1.072a1.733 1.733 0 0 1-.31-.412zm17.018 9.014c5.975-1.748 11.983-3.082 19.033-4.07l-1.804-12.87c-7.704 1.081-14.323 2.55-20.877 4.467l3.648 12.473zm27.953-5.063c1.942-.164 3.934-.299 5.978-.405 5.266-.272 9.764-.285 13.492-.058l.792-12.97c-4.253-.26-9.23-.245-14.955.051a198.95 198.95 0 0 0-6.397.433l1.09 12.949zm24.782 3.42l7.696 10.47c5.466-4.017 8.856-8.13 9.405-12.844.756-6.504-3.806-10.9-11.112-12.917l-3.459 12.525c.186.052.363.104.53.156-.757.79-1.787 1.674-3.06 2.61zm-7.162 4.382c-5.128 2.694-11.292 5.22-17.815 7.273l3.902 12.395c7.24-2.28 14.12-5.099 19.955-8.164l-6.042-11.504zM101.159 62.3c-6.569 1.571-13.01 2.533-18.951 2.792l.567 12.982c6.812-.297 14.067-1.38 21.408-3.137L101.159 62.3zm-27.46 2.644a47.08 47.08 0 0 1-5.43-.775c-5.137-1.061-9.933-1.895-14.423-2.51l-1.765 12.874c4.19.575 8.7 1.358 13.564 2.363a59.87 59.87 0 0 0 6.935.994l1.12-12.946zm-29.506-4.308c-8.787-.63-16.162-.242-22.24 1.13l2.862 12.675c4.725-1.066 10.852-1.388 18.45-.844l.928-12.961zm-32.851 5.267C2.525 71.33-.645 80.027.574 89.887l12.896-1.594c-.645-5.218.683-8.862 4.683-11.324l-6.811-11.066zm5.25 32.169a30.816 30.816 0 0 1-1.135-2.479l-12.034 4.903c1.01 2.48 2.225 4.83 3.017 5.88 2.905 3.783 9.108 6.255 18.026 8.165l2.721-12.706c-3.293-.705-6.094-1.512-8.157-2.334-.914-.364-1.635-.713-2.13-1.016a5.577 5.577 0 0 1-.135-.085c-.054-.1-.113-.21-.174-.328zm17.58 18.102c7.014.893 14.4 1.271 21.407 1.048l-.414-12.988c-6.303.2-13.003-.142-19.35-.95l-1.643 12.89zm31.282.291c7.308-.922 13.678-2.614 18.832-5.17.897-.446 1.778-.879 2.653-1.303L81.271 98.3c-.911.442-1.83.893-2.762 1.356-3.696 1.833-8.707 3.164-14.68 3.918l1.625 12.892zm29.696-10.29c6.666-2.962 12.794-5.329 18.386-7.123l-3.971-12.373c-6.054 1.942-12.615 4.476-19.69 7.62l5.275 11.875zm26.838-9.5c7.36-1.744 13.34-2.223 17.913-1.617l1.707-12.882c-6.288-.834-13.82-.23-22.617 1.855l2.997 12.644zm24.07.356c3.325 2.079 4.339 5.95 2.867 10.673l12.407 3.866c3.095-9.935.45-20.034-8.386-25.558l-6.887 11.02zm-.313 16.357c-.978 1.09-2.023 1.881-3.015 2.323-3.567 1.589-7.099 2.47-11.465 2.957l1.443 12.914c5.616-.627 10.428-1.827 15.31-4 2.744-1.223 5.25-3.121 7.4-5.516l-9.673-8.678zm-23.306 5.862c-9.612.427-14.337.834-21.227 2.143l2.425 12.766c6.114-1.161 10.35-1.526 19.379-1.927l-.577-12.982zm-30.814 4.41c-6.33 1.788-12.954 4.225-20.042 7.429l5.353 11.84c6.508-2.942 12.524-5.154 18.222-6.764l-3.533-12.505z" fill="currentColor"/></svg>