<svg
  width="214"
  height="215"
  viewBox="0 0 214 215"
  xmlns="http://www.w3.org/2000/svg"
>
  <title>weather-low</title>
  <g fill="currentColor" fill-rule="evenodd">
    <path d="M116.659 50.955l5.681-9.645c1.255-2.13 4.035-2.861 6.21-1.63 2.173 1.23 2.918 3.954 1.663 6.085l-5.682 9.645 9.84 5.569c2.175 1.23 2.92 3.955 1.664 6.086-1.255 2.13-4.034 2.86-6.208 1.63l-9.84-5.569-5.682 9.646c-1.255 2.13-4.035 2.86-6.209 1.63-2.174-1.23-2.919-3.954-1.664-6.085l5.682-9.646-9.84-5.568c-2.175-1.23-2.92-3.955-1.664-6.086 1.255-2.13 4.035-2.86 6.208-1.63l9.84 5.568zM147.786 26.308l3.018-5.124c.667-1.132 2.143-1.52 3.298-.867a2.341 2.341 0 0 1 .884 3.233l-3.018 5.125 5.228 2.958a2.341 2.341 0 0 1 .883 3.233c-.666 1.132-2.143 1.52-3.298.866l-5.228-2.958-3.018 5.124c-.667 1.132-2.144 1.52-3.298.866a2.341 2.341 0 0 1-.884-3.233l3.018-5.124-5.228-2.958a2.341 2.341 0 0 1-.884-3.233c.667-1.132 2.144-1.52 3.299-.867l5.228 2.959zM163.505 48.024l2.13-3.617a1.723 1.723 0 0 1 2.329-.611 1.653 1.653 0 0 1 .624 2.282l-2.13 3.617 3.69 2.088a1.653 1.653 0 0 1 .623 2.282 1.723 1.723 0 0 1-2.328.612l-3.69-2.089-2.13 3.617a1.723 1.723 0 0 1-2.329.612 1.653 1.653 0 0 1-.624-2.282l2.13-3.617-3.69-2.089a1.653 1.653 0 0 1-.623-2.282 1.723 1.723 0 0 1 2.328-.611l3.69 2.088z"/><path d="M66.692 18.822l20.942-10.79-11.652 20.475c-19.565 34.378-14.83 76.271 12.878 98.974 13.729 11.248 24.703 18.39 36.93 23.51 17.159 7.183 39.093 4.26 59.716-7.266l22.115-12.36-12.632 21.96a100.111 100.111 0 0 1-16.02 20.885c-20.97 20.97-53.208 32.437-78.83 29.603-21.102-2.335-40.947-11.81-59.18-28.266-8.976-8.102-15.155-16.876-19.408-27.075-3.432-8.23-5.452-16.58-7.606-29.63-4.444-26.923 5.967-59.933 27.845-81.81 7.4-7.401 15.79-13.514 24.902-18.21zm-12.63 25.823a87.755 87.755 0 0 0-2.373 2.286c-18.666 18.666-27.645 47.134-23.931 69.63 4.05 24.535 8.953 36.293 22.582 48.593 16.13 14.56 33.275 22.745 51.338 24.744 20.634 2.282 47.472-6.93 65.482-23.743-16.333 4.195-32.59 3.688-46.776-2.251-13.662-5.72-25.707-13.559-40.397-25.594-27.143-22.24-35.89-59.142-25.924-93.665z" fill-rule="nonzero"/>
  </g>
</svg>
