<svg
  width="176"
  height="172"
  viewBox="0 0 176 172"
  xmlns="http://www.w3.org/2000/svg"
>
  <title>weather-rain</title>
  <g fill="currentColor" fill-rule="nonzero">
    <path d="M98.717 135.702l-8.489 24.146c-1.921 3.713-.528 8.312 3.112 10.272 3.64 1.96 8.149.538 10.07-3.175l8.489-24.146c1.92-3.713.528-8.311-3.113-10.271-3.64-1.96-8.148-.539-10.07 3.174zM73.717 124.702l-8.489 24.146c-1.921 3.713-.528 8.312 3.112 10.272 3.64 1.96 8.149.538 10.07-3.175l8.489-24.146c1.92-3.713.528-8.311-3.113-10.271-3.64-1.96-8.148-.539-10.07 3.174zM42.717 130.702l-8.489 24.146c-1.921 3.713-.528 8.312 3.112 10.272 3.64 1.96 8.149.538 10.07-3.175l8.489-24.146c1.92-3.713.528-8.311-3.113-10.271-3.64-1.96-8.148-.539-10.07 3.174zM161.626 55.302c0-22.386-18.222-40.55-40.72-40.55-18.918 0-35.611 8.161-42.189 20.272L71.772 47.81l-12.51-7.434c-4.588-2.727-9.824-4.185-15.309-4.185-16.54 0-29.93 13.35-29.93 29.794 0 16.494 13.42 29.907 29.835 29.795.59-.004 1.613-.156 3.277-.536 1.202-.275 6.493-1.637 7.389-1.856 9.164-2.25 17.14-3.351 26.955-3.185 9.226.156 14.722 1.132 22.507 3.453l1.569.47c5.44 1.617 8.994 2.293 15.662 2.623 22.12-.174 40.409-18.926 40.409-41.448zm-98.19-28.578l2.979 1.618 1.639-2.759C78.389 9.616 99.404.751 120.906.751c30.22 0 54.72 24.424 54.72 54.551 0 30.128-24.5 55.45-54.72 55.45-20.675-.971-20.456-6.225-39.664-6.55-19.208-.325-29.22 5.524-37.289 5.579-24.26.165-43.93-19.608-43.93-43.795s19.668-43.794 43.93-43.794c6.997 0 13.612 1.63 19.483 4.532z"/>
  </g>
</svg>
