<svg xmlns="http://www.w3.org/2000/svg" viewBox="0 0 21 21" height="21" width="21"><title>airfield-15.svg</title><path fill="none" d="M0 0h21v21H0z"/><path fill="rgba(255,255,255,0.75)" d="M9.818 3.682H7.773c-.682 0-.682-.682 0-.682h5.454c.682 0 .682.682 0 .682h-2.045s.818.59.818 1.954V7h6v2l-6 2-.5 5 2.5 1.318V18H7v-.682L9.5 16 9 11 3 9V7h6V5.636c0-1.363.818-1.954.818-1.954z" stroke="rgba(255,255,255,0.75)" stroke-width="2" stroke-linejoin="round"/><path fill="#475bcc" d="M9.818 3.682H7.773c-.682 0-.682-.682 0-.682h5.454c.682 0 .682.682 0 .682h-2.045s.818.59.818 1.954V7h6v2l-6 2-.5 5 2.5 1.318V18H7v-.682L9.5 16 9 11 3 9V7h6V5.636c0-1.363.818-1.954.818-1.954z"/></svg>
