<svg xmlns="http://www.w3.org/2000/svg" viewBox="0 0 17 17" height="17" width="17"><title>airfield-11.svg</title><path fill="none" d="M0 0h17v17H0z"/><path fill="rgba(255,255,255,0.75)" d="M8 3.5H6.5C6 3.5 6 3 6.5 3h4c.5 0 .5.5 0 .5H9s.5.5.5 1.5v1H14v1.5l-4.5 2L9 13l1.5.5v.5h-4v-.5L8 13l-.5-3.5-4.5-2V6h4.5V5c0-1 .5-1.5.5-1.5z" stroke="rgba(255,255,255,0.75)" stroke-width="2" stroke-linejoin="round"/><path fill="#475bcc" d="M8 3.5H6.5C6 3.5 6 3 6.5 3h4c.5 0 .5.5 0 .5H9s.5.5.5 1.5v1H14v1.5l-4.5 2L9 13l1.5.5v.5h-4v-.5L8 13l-.5-3.5-4.5-2V6h4.5V5c0-1 .5-1.5.5-1.5z"/></svg>
