<svg xmlns="http://www.w3.org/2000/svg" viewBox="0 0 17 17" height="17" width="17"><title>airport-11.svg</title><path fill="none" d="M0 0h17v17H0z"/><path fill="rgba(255,255,255,0.75)" d="M9.5 9.4V9l4.5.5V8L9.5 6.2V4.5c0-1-.5-1.5-1-1.5s-1 .5-1 1.5v1.7L3 8v1.4L7.5 9v3.3L6 13v1l2.5-.5 2.5.5v-1l-1.5-.8V9.4z" stroke="rgba(255,255,255,0.75)" stroke-width="2" stroke-linejoin="round"/><path fill="#475bcc" d="M9.5 9.4V9l4.5.5V8L9.5 6.2V4.5c0-1-.5-1.5-1-1.5s-1 .5-1 1.5v1.7L3 8v1.4L7.5 9v3.3L6 13v1l2.5-.5 2.5.5v-1l-1.5-.8V9.4z"/></svg>
