<svg xmlns="http://www.w3.org/2000/svg" viewBox="0 0 21 21" height="21" width="21"><title>airport-15.svg</title><path fill="none" d="M0 0h21v21H0z"/><path fill="rgba(255,255,255,0.75)" d="M18 9.818V11.5l-6.5-1-.318 4.773L14 17v1l-3.5-.682L7 18v-1l2.818-1.727L9.5 10.5l-6.5 1V9.818L9.5 7.5v-3s0-1.5 1-1.5 1 1.5 1 1.5v2.818l6.5 2.5z" stroke="rgba(255,255,255,0.75)" stroke-width="2" stroke-linejoin="round"/><path fill="#475bcc" d="M18 9.818V11.5l-6.5-1-.318 4.773L14 17v1l-3.5-.682L7 18v-1l2.818-1.727L9.5 10.5l-6.5 1V9.818L9.5 7.5v-3s0-1.5 1-1.5 1 1.5 1 1.5v2.818l6.5 2.5z"/></svg>
