<svg xmlns="http://www.w3.org/2000/svg" viewBox="0 0 21 21" height="21" width="21"><title>alcohol-shop-15.svg</title><path fill="none" d="M0 0h21v21H0z"/><path fill="rgba(255,255,255,0.75)" d="M17 7h-4v3.5a2 2 0 0 0 1.5 1.93V16H14a.5.5 0 0 0 0 1h2a.5.5 0 0 0 0-1h-.5v-3.57A2 2 0 0 0 17 10.5V7zm-1 3.5a1 1 0 1 1-2 0V8h2v2.5zm-7.5-5V5a.5.5 0 0 0 0-1v-.5A.5.5 0 0 0 8 3H7a.5.5 0 0 0-.5.5V4a.5.5 0 0 0 0 1v.5C6.5 6.93 4 8.57 4 10v6a1 1 0 0 0 1 1h5a1.1 1.1 0 0 0 1-1v-6c0-1.35-2.5-3.15-2.5-4.5zm-1 9.5a2.5 2.5 0 1 1 0-5 2.5 2.5 0 0 1 0 5z" stroke="rgba(255,255,255,0.75)" stroke-width="2" stroke-linejoin="round"/><path fill="#735139" d="M17 7h-4v3.5a2 2 0 0 0 1.5 1.93V16H14a.5.5 0 0 0 0 1h2a.5.5 0 0 0 0-1h-.5v-3.57A2 2 0 0 0 17 10.5V7zm-1 3.5a1 1 0 1 1-2 0V8h2v2.5zm-7.5-5V5a.5.5 0 0 0 0-1v-.5A.5.5 0 0 0 8 3H7a.5.5 0 0 0-.5.5V4a.5.5 0 0 0 0 1v.5C6.5 6.93 4 8.57 4 10v6a1 1 0 0 0 1 1h5a1.1 1.1 0 0 0 1-1v-6c0-1.35-2.5-3.15-2.5-4.5zm-1 9.5a2.5 2.5 0 1 1 0-5 2.5 2.5 0 0 1 0 5z"/></svg>
