<svg xmlns="http://www.w3.org/2000/svg" viewBox="0 0 17 17" height="17" width="17"><title>alcohol-shop-11.svg</title><path fill="none" d="M0 0h17v17H0z"/><path fill="rgba(255,255,255,0.75)" d="M10 7v2.5a1.5 1.5 0 0 0 1 1.41V13h-.5a.5.5 0 0 0 0 1h2a.5.5 0 0 0 0-1H12v-2.09a1.5 1.5 0 0 0 1-1.41V7h-3zm2.5 2.5a1 1 0 1 1-2 0v-2h2v2zM7.21 5.85V5.5a.355.355 0 1 0 0-.71v-.35a.35.35 0 0 0-.36-.35h-.71a.35.35 0 0 0-.36.34v.36a.355.355 0 1 0 0 .71v.35C5.79 6.87 4 8 4 9v4.25a.7.7 0 0 0 .71.71h3.58a.79.79 0 0 0 .71-.67V9c0-.91-1.79-2.19-1.79-3.15zM6.5 12a1.5 1.5 0 1 1 0-3 1.5 1.5 0 0 1 0 3z" stroke="rgba(255,255,255,0.75)" stroke-width="2" stroke-linejoin="round"/><path fill="#735139" d="M10 7v2.5a1.5 1.5 0 0 0 1 1.41V13h-.5a.5.5 0 0 0 0 1h2a.5.5 0 0 0 0-1H12v-2.09a1.5 1.5 0 0 0 1-1.41V7h-3zm2.5 2.5a1 1 0 1 1-2 0v-2h2v2zM7.21 5.85V5.5a.355.355 0 1 0 0-.71v-.35a.35.35 0 0 0-.36-.35h-.71a.35.35 0 0 0-.36.34v.36a.355.355 0 1 0 0 .71v.35C5.79 6.87 4 8 4 9v4.25a.7.7 0 0 0 .71.71h3.58a.79.79 0 0 0 .71-.67V9c0-.91-1.79-2.19-1.79-3.15zM6.5 12a1.5 1.5 0 1 1 0-3 1.5 1.5 0 0 1 0 3z"/></svg>
