<svg xmlns="http://www.w3.org/2000/svg" viewBox="0 0 21 21" height="21" width="21"><title>amusement-park-15.svg</title><path fill="none" d="M0 0h21v21H0z"/><path fill="rgba(255,255,255,0.75)" d="M10.5 3C6.919 3 4 5.919 4 9.5c0 2.316 1.225 4.348 3.057 5.5H7l-1 2h9l-1-2h-.057C15.775 13.848 17 11.816 17 9.5 17 5.919 14.081 3 10.5 3zm-.125 1.506v3.5a1.5 1.5 0 0 0-.844.35L7.057 5.88a4.972 4.972 0 0 1 3.318-1.375zm.25 0c1.29.032 2.45.55 3.318 1.375L11.47 8.356l-.002-.002a1.5 1.5 0 0 0-.842-.348v-3.5zm-3.744 1.55l2.475 2.475-.002.002a1.5 1.5 0 0 0-.348.842h-3.5c.032-1.29.55-2.45 1.375-3.318zm7.238 0a4.972 4.972 0 0 1 1.375 3.319h-3.5a1.5 1.5 0 0 0-.35-.844l2.475-2.474zm-8.613 3.57h3.5a1.5 1.5 0 0 0 .35.844L6.88 12.943a4.972 4.972 0 0 1-1.375-3.318zm6.488 0h3.5a4.972 4.972 0 0 1-1.375 3.318l-2.474-2.474.002-.002a1.5 1.5 0 0 0 .347-.842zm-2.463 1.02l.002.002a1.5 1.5 0 0 0 .467.265v3.563a4.97 4.97 0 0 1-2.943-1.356l2.474-2.474zm1.938 0l2.474 2.474A4.97 4.97 0 0 1 11 14.475v-3.563a1.5 1.5 0 0 0 .469-.267z" stroke="rgba(255,255,255,0.75)" stroke-width="2" stroke-linejoin="round"/><path fill="#735139" d="M10.5 3C6.919 3 4 5.919 4 9.5c0 2.316 1.225 4.348 3.057 5.5H7l-1 2h9l-1-2h-.057C15.775 13.848 17 11.816 17 9.5 17 5.919 14.081 3 10.5 3zm-.125 1.506v3.5a1.5 1.5 0 0 0-.844.35L7.057 5.88a4.972 4.972 0 0 1 3.318-1.375zm.25 0c1.29.032 2.45.55 3.318 1.375L11.47 8.356l-.002-.002a1.5 1.5 0 0 0-.842-.348v-3.5zm-3.744 1.55l2.475 2.475-.002.002a1.5 1.5 0 0 0-.348.842h-3.5c.032-1.29.55-2.45 1.375-3.318zm7.238 0a4.972 4.972 0 0 1 1.375 3.319h-3.5a1.5 1.5 0 0 0-.35-.844l2.475-2.474zm-8.613 3.57h3.5a1.5 1.5 0 0 0 .35.844L6.88 12.943a4.972 4.972 0 0 1-1.375-3.318zm6.488 0h3.5a4.972 4.972 0 0 1-1.375 3.318l-2.474-2.474.002-.002a1.5 1.5 0 0 0 .347-.842zm-2.463 1.02l.002.002a1.5 1.5 0 0 0 .467.265v3.563a4.97 4.97 0 0 1-2.943-1.356l2.474-2.474zm1.938 0l2.474 2.474A4.97 4.97 0 0 1 11 14.475v-3.563a1.5 1.5 0 0 0 .469-.267z"/></svg>
