<svg xmlns="http://www.w3.org/2000/svg" viewBox="0 0 17 17" height="17" width="17"><title>amusement-park-11.svg</title><path fill="none" d="M0 0h17v17H0z"/><path fill="rgba(255,255,255,0.75)" d="M8.5 4C6.02 4 4 6.02 4 8.5c0 1.792 1.063 3.332 2.584 4.055L5.5 14h6l-1.084-1.445C11.937 11.832 13 10.292 13 8.5 13 6.02 10.98 4 8.5 4zm-.125 1.012v1.994a1.5 1.5 0 0 0-.844.35L6.12 5.942a3.475 3.475 0 0 1 2.256-.931zm.25 0c.874.03 1.66.377 2.256.931L9.469 7.355l-.002-.002a1.5 1.5 0 0 0-.842-.347V5.012zM5.943 6.119l1.413 1.412-.002.002a1.5 1.5 0 0 0-.348.842H5.012c.03-.874.377-1.66.931-2.256zm5.114 0c.554.596.9 1.382.931 2.256H9.994a1.5 1.5 0 0 0-.35-.844l1.413-1.412zM5.012 8.625h1.994a1.5 1.5 0 0 0 .35.844L5.942 10.88a3.475 3.475 0 0 1-.931-2.256zm4.982 0h1.994a3.474 3.474 0 0 1-.931 2.256L9.644 9.469l.002-.002a1.5 1.5 0 0 0 .348-.842zm-2.463 1.02l.002.002A1.5 1.5 0 0 0 8 9.912v2.04a3.47 3.47 0 0 1-1.88-.895l1.41-1.412zm1.938 0l1.412 1.412A3.47 3.47 0 0 1 9 11.95V9.912a1.5 1.5 0 0 0 .469-.267z" stroke="rgba(255,255,255,0.75)" stroke-width="2" stroke-linejoin="round"/><path fill="#735139" d="M8.5 4C6.02 4 4 6.02 4 8.5c0 1.792 1.063 3.332 2.584 4.055L5.5 14h6l-1.084-1.445C11.937 11.832 13 10.292 13 8.5 13 6.02 10.98 4 8.5 4zm-.125 1.012v1.994a1.5 1.5 0 0 0-.844.35L6.12 5.942a3.475 3.475 0 0 1 2.256-.931zm.25 0c.874.03 1.66.377 2.256.931L9.469 7.355l-.002-.002a1.5 1.5 0 0 0-.842-.347V5.012zM5.943 6.119l1.413 1.412-.002.002a1.5 1.5 0 0 0-.348.842H5.012c.03-.874.377-1.66.931-2.256zm5.114 0c.554.596.9 1.382.931 2.256H9.994a1.5 1.5 0 0 0-.35-.844l1.413-1.412zM5.012 8.625h1.994a1.5 1.5 0 0 0 .35.844L5.942 10.88a3.475 3.475 0 0 1-.931-2.256zm4.982 0h1.994a3.474 3.474 0 0 1-.931 2.256L9.644 9.469l.002-.002a1.5 1.5 0 0 0 .348-.842zm-2.463 1.02l.002.002A1.5 1.5 0 0 0 8 9.912v2.04a3.47 3.47 0 0 1-1.88-.895l1.41-1.412zm1.938 0l1.412 1.412A3.47 3.47 0 0 1 9 11.95V9.912a1.5 1.5 0 0 0 .469-.267z"/></svg>
