<svg xmlns="http://www.w3.org/2000/svg" viewBox="0 0 21 21" height="21" width="21"><title>aquarium-15.svg</title><path fill="none" d="M0 0h21v21H0z"/><path fill="rgba(255,255,255,0.75)" d="M13.9 14.6c-.3-.6-.3-2.3 0-2.8.4-.6 3.4 1.4 3.4 1.4.9.4.9-6.1 0-5.7 0 0-3.1 2.1-3.4 1.4-.3-.7-.3-2.1 0-2.8.3-.6 4.1-.7 4.1-.7 0-.7-2.9-1.4-4.1-1.4s-2.5.1-4.1.8c-1.6.6-2.9 1.6-4.1 2.8S3 11.2 3 11.9s1.5 2.8 3.7 3.7 3.3 1.1 4.5 1.3c1.1.1 2.6 0 3.9-.3 1-.2 2.9-.7 2.9-1.1 0-.2-3.8-.3-4.1-.9zm-6.4-2.3c-.8 0-1.5-.7-1.5-1.5s.7-1.5 1.5-1.5S9 10 9 10.8s-.7 1.5-1.5 1.5z" stroke="rgba(255,255,255,0.75)" stroke-width="2" stroke-linejoin="round"/><path fill="#735139" d="M13.9 14.6c-.3-.6-.3-2.3 0-2.8.4-.6 3.4 1.4 3.4 1.4.9.4.9-6.1 0-5.7 0 0-3.1 2.1-3.4 1.4-.3-.7-.3-2.1 0-2.8.3-.6 4.1-.7 4.1-.7 0-.7-2.9-1.4-4.1-1.4s-2.5.1-4.1.8c-1.6.6-2.9 1.6-4.1 2.8S3 11.2 3 11.9s1.5 2.8 3.7 3.7 3.3 1.1 4.5 1.3c1.1.1 2.6 0 3.9-.3 1-.2 2.9-.7 2.9-1.1 0-.2-3.8-.3-4.1-.9zm-6.4-2.3c-.8 0-1.5-.7-1.5-1.5s.7-1.5 1.5-1.5S9 10 9 10.8s-.7 1.5-1.5 1.5z"/></svg>
