<svg xmlns="http://www.w3.org/2000/svg" viewBox="0 0 21 21" height="21" width="21"><title>art-gallery-15.svg</title><path fill="none" d="M0 0h21v21H0z"/><path fill="rgba(255,255,255,0.75)" d="M13.71 7l-2.86-2.85a.5.5 0 0 0-.707-.003l-.003.003L7.29 7H4.5a.5.5 0 0 0-.5.5v9a.5.5 0 0 0 .5.5h12a.5.5 0 0 0 .5-.5v-9a.5.5 0 0 0-.5-.5h-2.79zM10.5 5.21L12.29 7H8.71l1.79-1.79zM16 16H5V8h11v8zm-8-5a1 1 0 1 1 0-2 1 1 0 0 1 0 2zm7 4H7.5L9 12l1.25 2.5L12.5 10l2.5 5z" stroke="rgba(255,255,255,0.75)" stroke-width="2" stroke-linejoin="round"/><path fill="#735139" d="M13.71 7l-2.86-2.85a.5.5 0 0 0-.707-.003l-.003.003L7.29 7H4.5a.5.5 0 0 0-.5.5v9a.5.5 0 0 0 .5.5h12a.5.5 0 0 0 .5-.5v-9a.5.5 0 0 0-.5-.5h-2.79zM10.5 5.21L12.29 7H8.71l1.79-1.79zM16 16H5V8h11v8zm-8-5a1 1 0 1 1 0-2 1 1 0 0 1 0 2zm7 4H7.5L9 12l1.25 2.5L12.5 10l2.5 5z"/></svg>
