<svg xmlns="http://www.w3.org/2000/svg" viewBox="0 0 17 17" height="17" width="17"><title>art-gallery-11.svg</title><path fill="none" d="M0 0h17v17H0z"/><path fill="rgba(255,255,255,0.75)" d="M11.21 6L8.85 3.65a.5.5 0 0 0-.707-.003l-.003.003L5.79 6H4.5a.5.5 0 0 0-.5.5v6a.5.5 0 0 0 .5.5h8a.5.5 0 0 0 .5-.5v-6a.5.5 0 0 0-.5-.5h-1.29zM8.5 4.71L9.79 6H7.21L8.5 4.71zM12 12H5V7h7v5zM7.5 8.5a.5.5 0 1 1-1 0 .5.5 0 0 1 1 0zM11 11H7l.75-1.5.5 1L9.5 8l1.5 3z" stroke="rgba(255,255,255,0.75)" stroke-width="2" stroke-linejoin="round"/><path fill="#735139" d="M11.21 6L8.85 3.65a.5.5 0 0 0-.707-.003l-.003.003L5.79 6H4.5a.5.5 0 0 0-.5.5v6a.5.5 0 0 0 .5.5h8a.5.5 0 0 0 .5-.5v-6a.5.5 0 0 0-.5-.5h-1.29zM8.5 4.71L9.79 6H7.21L8.5 4.71zM12 12H5V7h7v5zM7.5 8.5a.5.5 0 1 1-1 0 .5.5 0 0 1 1 0zM11 11H7l.75-1.5.5 1L9.5 8l1.5 3z"/></svg>
