<svg xmlns="http://www.w3.org/2000/svg" viewBox="0 0 17 17" height="17" width="17"><title>attraction-11.svg</title><path fill="none" d="M0 0h17v17H0z"/><path fill="rgba(255,255,255,0.75)" d="M7.5 4.5s-.5 0-.7.5l-.3.5H4c-.6 0-1 .4-1 1v5c0 .6.4 1 1 1h9c.6 0 1-.4 1-1v-5c0-.6-.4-1-1-1h-2.5l-.3-.5c-.2-.5-.7-.5-.7-.5h-2zm1 2C9.9 6.5 11 7.6 11 9s-1.1 2.5-2.5 2.5S6 10.4 6 9s1.1-2.5 2.5-2.5zm0 1.5c-.6 0-1 .4-1 1s.4 1 1 1 1-.4 1-1-.4-1-1-1z" stroke="rgba(255,255,255,0.75)" stroke-width="2" stroke-linejoin="round"/><path fill="#735139" d="M7.5 4.5s-.5 0-.7.5l-.3.5H4c-.6 0-1 .4-1 1v5c0 .6.4 1 1 1h9c.6 0 1-.4 1-1v-5c0-.6-.4-1-1-1h-2.5l-.3-.5c-.2-.5-.7-.5-.7-.5h-2zm1 2C9.9 6.5 11 7.6 11 9s-1.1 2.5-2.5 2.5S6 10.4 6 9s1.1-2.5 2.5-2.5zm0 1.5c-.6 0-1 .4-1 1s.4 1 1 1 1-.4 1-1-.4-1-1-1z"/></svg>
