<svg xmlns="http://www.w3.org/2000/svg" viewBox="0 0 21 21" height="21" width="21"><title>attraction-15.svg</title><path fill="none" d="M0 0h21v21H0z"/><path fill="rgba(255,255,255,0.75)" d="M9 5c-.554 0-.752.505-1 1l-.5 1h-2C4.669 7 4 7.669 4 8.5v5c0 .831.669 1.5 1.5 1.5h10c.831 0 1.5-.669 1.5-1.5v-5c0-.831-.669-1.5-1.5-1.5h-2L13 6c-.25-.5-.446-1-1-1H9zM5.5 8a.5.5 0 1 1 0 1 .5.5 0 0 1 0-1zm5 0a3 3 0 1 1 0 6 3 3 0 0 1 0-6zm0 1.5a1.5 1.5 0 0 0 0 3 1.5 1.5 0 0 0 0-3z" stroke="rgba(255,255,255,0.75)" stroke-width="2" stroke-linejoin="round"/><path fill="#735139" d="M9 5c-.554 0-.752.505-1 1l-.5 1h-2C4.669 7 4 7.669 4 8.5v5c0 .831.669 1.5 1.5 1.5h10c.831 0 1.5-.669 1.5-1.5v-5c0-.831-.669-1.5-1.5-1.5h-2L13 6c-.25-.5-.446-1-1-1H9zM5.5 8a.5.5 0 1 1 0 1 .5.5 0 0 1 0-1zm5 0a3 3 0 1 1 0 6 3 3 0 0 1 0-6zm0 1.5a1.5 1.5 0 0 0 0 3 1.5 1.5 0 0 0 0-3z"/></svg>
