<svg xmlns="http://www.w3.org/2000/svg" viewBox="0 0 17 17" height="17" width="17"><title>bakery-11.svg</title><path fill="none" d="M0 0h17v17H0z"/><path fill="rgba(255,255,255,0.75)" d="M7.5 5c-1 0-1 1-1 1L8 10.5s0 .5.5.5.5-.5.5-.5L10.5 6s0-1-1-1h-2zM12 6.5l-2 4h1.5l1 1h.5c1 0 1-.9 1-.9V9.3l-2-2.8zM3 9.3v1.2s.03 1.01 1 1c.97-.01.5 0 .5 0l1-1H7l-2-4-2 2.8z" stroke="rgba(255,255,255,0.75)" stroke-width="2" stroke-linejoin="round"/><path fill="#cc6529" d="M7.5 5c-1 0-1 1-1 1L8 10.5s0 .5.5.5.5-.5.5-.5L10.5 6s0-1-1-1h-2zM12 6.5l-2 4h1.5l1 1h.5c1 0 1-.9 1-.9V9.3l-2-2.8zM3 9.3v1.2s.03 1.01 1 1c.97-.01.5 0 .5 0l1-1H7l-2-4-2 2.8z"/></svg>
