<svg xmlns="http://www.w3.org/2000/svg" viewBox="0 0 21 21" height="21" width="21"><title>bakery-15.svg</title><path fill="none" d="M0 0h21v21H0z"/><path fill="rgba(255,255,255,0.75)" d="M8.294 7.382L9 12.5s0 1 1 1h1c1 0 1-1 1-1l.706-5.118C12.706 6 10.5 6 10.5 6S8.291 6 8.294 7.382zM6.5 8C5 8 5 9 5 9l1 4h1.5c.755 0 .794-.765.794-.765L7.5 8h-1zm-2 2.5s-.618-.03-1.059.412c-.441.44-.441.882-.441.882V14h.882C5 14 5 13 5 13l-.5-2.5zm10-2.5C16 8 16 9 16 9l-1 4h-1.5c-.755 0-.794-.765-.794-.765L13.5 8h1zm2 2.5s.618-.03 1.059.412c.441.44.441.882.441.882V14h-.882C16 14 16 13 16 13l.5-2.5z" stroke="rgba(255,255,255,0.75)" stroke-width="2" stroke-linejoin="round"/><path fill="#cc6529" d="M8.294 7.382L9 12.5s0 1 1 1h1c1 0 1-1 1-1l.706-5.118C12.706 6 10.5 6 10.5 6S8.291 6 8.294 7.382zM6.5 8C5 8 5 9 5 9l1 4h1.5c.755 0 .794-.765.794-.765L7.5 8h-1zm-2 2.5s-.618-.03-1.059.412c-.441.44-.441.882-.441.882V14h.882C5 14 5 13 5 13l-.5-2.5zm10-2.5C16 8 16 9 16 9l-1 4h-1.5c-.755 0-.794-.765-.794-.765L13.5 8h1zm2 2.5s.618-.03 1.059.412c.441.44.441.882.441.882V14h-.882C16 14 16 13 16 13l.5-2.5z"/></svg>
