<svg xmlns="http://www.w3.org/2000/svg" viewBox="0 0 21 21" height="21" width="21"><title>bank-15.svg</title><path fill="none" d="M0 0h21v21H0z"/><path fill="rgba(255,255,255,0.75)" d="M4 6c-.554 0-1 .446-1 1v7c0 .554.446 1 1 1h13c.554 0 1-.446 1-1V7c0-.554-.446-1-1-1H4zm0 1h1.5a.5.5 0 1 1-.5.5l-.5.5a.5.5 0 1 1-.5.5V7zm6.5 0c1.38 0 2.5 1.567 2.5 3.5S11.88 14 10.5 14 8 12.433 8 10.5 9.12 7 10.5 7zm5 0H17v1.5a.5.5 0 1 1-.5-.5l-.5-.5a.5.5 0 1 1-.5-.5zm-5 1.5c-.323 0-.534.109-.682.25h1.364c-.148-.141-.359-.25-.682-.25zm-.875.5c-.045.091-.062.171-.08.25h1.91c-.018-.079-.034-.159-.08-.25h-1.75zm-.125.5v.25h2V9.5h-2zm0 .5v.25h2V10h-2zm0 .5v.25h2v-.25h-2zm0 .5l-.25.25h2l.25-.25h-2zm-.5.5s.035.102.102.25h2.273L11 11.5H9zm-4.5.5a.5.5 0 0 1 0 1l.5.5a.5.5 0 1 1 .5.5H4v-1.5a.5.5 0 0 1 .5-.5zm4.738 0c.046.086.076.159.137.25h2.268c.066-.138.107-.25.107-.25H9.238zm7.262 0a.5.5 0 0 1 .5.5V14h-1.5a.5.5 0 1 1 .5-.5l.5-.5a.5.5 0 0 1 0-1zm-6.934.5c.079.091.165.176.26.25h1.42c.1-.077.188-.162.254-.25H9.566z" stroke="rgba(255,255,255,0.75)" stroke-width="2" stroke-linejoin="round"/><path fill="#735139" d="M4 6c-.554 0-1 .446-1 1v7c0 .554.446 1 1 1h13c.554 0 1-.446 1-1V7c0-.554-.446-1-1-1H4zm0 1h1.5a.5.5 0 1 1-.5.5l-.5.5a.5.5 0 1 1-.5.5V7zm6.5 0c1.38 0 2.5 1.567 2.5 3.5S11.88 14 10.5 14 8 12.433 8 10.5 9.12 7 10.5 7zm5 0H17v1.5a.5.5 0 1 1-.5-.5l-.5-.5a.5.5 0 1 1-.5-.5zm-5 1.5c-.323 0-.534.109-.682.25h1.364c-.148-.141-.359-.25-.682-.25zm-.875.5c-.045.091-.062.171-.08.25h1.91c-.018-.079-.034-.159-.08-.25h-1.75zm-.125.5v.25h2V9.5h-2zm0 .5v.25h2V10h-2zm0 .5v.25h2v-.25h-2zm0 .5l-.25.25h2l.25-.25h-2zm-.5.5s.035.102.102.25h2.273L11 11.5H9zm-4.5.5a.5.5 0 0 1 0 1l.5.5a.5.5 0 1 1 .5.5H4v-1.5a.5.5 0 0 1 .5-.5zm4.738 0c.046.086.076.159.137.25h2.268c.066-.138.107-.25.107-.25H9.238zm7.262 0a.5.5 0 0 1 .5.5V14h-1.5a.5.5 0 1 1 .5-.5l.5-.5a.5.5 0 0 1 0-1zm-6.934.5c.079.091.165.176.26.25h1.42c.1-.077.188-.162.254-.25H9.566z"/></svg>
