<svg xmlns="http://www.w3.org/2000/svg" viewBox="0 0 17 17" height="17" width="17"><title>bank-11.svg</title><path fill="none" d="M0 0h17v17H0z"/><path fill="rgba(255,255,255,0.75)" d="M4 5C3 5 3 6 3 6v5c0 1 1 1 1 1h9c1 0 1-1 1-1V6s0-1-1-1H4zm0 1h1.5a.5.5 0 1 1-.5.5l-.5.5a.5.5 0 1 1-.5.5V6zm4.5 0c1.105 0 2 1.12 2 2.5s-.895 2.5-2 2.5-2-1.12-2-2.5.895-2.5 2-2.5zm3 0H13v1.5a.5.5 0 1 1-.5-.5l-.5-.5a.5.5 0 1 1-.5-.5zm-7 3a.5.5 0 0 1 0 1l.5.5a.5.5 0 1 1 .5.5H4V9.5a.5.5 0 0 1 .5-.5zm8 0a.5.5 0 0 1 .5.5V11h-1.5a.5.5 0 1 1 .5-.5l.5-.5a.5.5 0 0 1 0-1z" stroke="rgba(255,255,255,0.75)" stroke-width="2" stroke-linejoin="round"/><path fill="rgba(255,255,255,0.75)" d="M7.902 7.25a1.157 1.157 0 0 0-.2.25h1.597a1.158 1.158 0 0 0-.201-.25H7.902zm-.316.5a1.48 1.48 0 0 0-.065.25h1.96a1.479 1.479 0 0 0-.065-.25h-1.83zm-.086.5c0 .084.006.168.02.25h1.959c.013-.082.02-.166.021-.25h-2zm.086.5a1.3 1.3 0 0 0 .117.25H9.3c.046-.077.085-.161.115-.25H7.586zm.316.5l.034.031L7.5 9.5h2l-.436-.219.034-.031H7.902zm-.32.5c.029.079.056.16.11.25h1.626c.053-.091.078-.171.106-.25H7.582zm.31.5c.147.141.341.25.608.25.274 0 .47-.108.617-.25H7.893z" stroke="rgba(255,255,255,0.75)" stroke-width="2" stroke-linejoin="round"/><path fill="#735139" d="M4 5C3 5 3 6 3 6v5c0 1 1 1 1 1h9c1 0 1-1 1-1V6s0-1-1-1H4zm0 1h1.5a.5.5 0 1 1-.5.5l-.5.5a.5.5 0 1 1-.5.5V6zm4.5 0c1.105 0 2 1.12 2 2.5s-.895 2.5-2 2.5-2-1.12-2-2.5.895-2.5 2-2.5zm3 0H13v1.5a.5.5 0 1 1-.5-.5l-.5-.5a.5.5 0 1 1-.5-.5zm-7 3a.5.5 0 0 1 0 1l.5.5a.5.5 0 1 1 .5.5H4V9.5a.5.5 0 0 1 .5-.5zm8 0a.5.5 0 0 1 .5.5V11h-1.5a.5.5 0 1 1 .5-.5l.5-.5a.5.5 0 0 1 0-1z"/><path fill="#735139" d="M7.902 7.25a1.157 1.157 0 0 0-.2.25h1.597a1.158 1.158 0 0 0-.201-.25H7.902zm-.316.5a1.48 1.48 0 0 0-.065.25h1.96a1.479 1.479 0 0 0-.065-.25h-1.83zm-.086.5c0 .084.006.168.02.25h1.959c.013-.082.02-.166.021-.25h-2zm.086.5a1.3 1.3 0 0 0 .117.25H9.3c.046-.077.085-.161.115-.25H7.586zm.316.5l.034.031L7.5 9.5h2l-.436-.219.034-.031H7.902zm-.32.5c.029.079.056.16.11.25h1.626c.053-.091.078-.171.106-.25H7.582zm.31.5c.147.141.341.25.608.25.274 0 .47-.108.617-.25H7.893z"/></svg>
