<svg xmlns="http://www.w3.org/2000/svg" viewBox="0 0 21 21" height="21" width="21"><title>bar-15.svg</title><path fill="none" d="M0 0h21v21H0z"/><path fill="rgba(255,255,255,0.75)" d="M10.5 4c-2 0-7 .25-6.5.75L10 11v4c0 1-3 .5-3 2h7c0-1.5-3-1-3-2v-4l6-6.25c.5-.5-4.5-.75-6.5-.75zm0 1c2.5 0 4.75.25 4.75.25L14.5 6h-8l-.75-.75S8 5 10.5 5z" stroke="rgba(255,255,255,0.75)" stroke-width="2" stroke-linejoin="round"/><path fill="#cc6529" d="M10.5 4c-2 0-7 .25-6.5.75L10 11v4c0 1-3 .5-3 2h7c0-1.5-3-1-3-2v-4l6-6.25c.5-.5-4.5-.75-6.5-.75zm0 1c2.5 0 4.75.25 4.75.25L14.5 6h-8l-.75-.75S8 5 10.5 5z"/></svg>
