<svg xmlns="http://www.w3.org/2000/svg" viewBox="0 0 17 17" height="17" width="17"><title>bar-11.svg</title><path fill="none" d="M0 0h17v17H0z"/><path fill="rgba(255,255,255,0.75)" d="M8.488 4C7.976 4 3.5 4 4 4.5L8 9v2.5c0 .5-2.5.5-2.5 1.5h6c0-1-2.5-1-2.5-1.5V9l4-4.5C13.5 4 9 4 8.488 4zM5.5 5h6l-1 1h-4l-1-1z" stroke="rgba(255,255,255,0.75)" stroke-width="2" stroke-linejoin="round"/><path fill="#cc6529" d="M8.488 4C7.976 4 3.5 4 4 4.5L8 9v2.5c0 .5-2.5.5-2.5 1.5h6c0-1-2.5-1-2.5-1.5V9l4-4.5C13.5 4 9 4 8.488 4zM5.5 5h6l-1 1h-4l-1-1z"/></svg>
