<svg xmlns="http://www.w3.org/2000/svg" width="19" height="19" viewBox="0 0 19 19"><title>barcelona-metro</title><path fill="none" d="M0 0h19v19H0z"/><path d="M9.5 19a2.24 2.24 0 0 1-1.35-.44L.77 13a1.84 1.84 0 0 1 0-3l7.38-5.56a2.28 2.28 0 0 1 2.69 0L18.23 10a1.84 1.84 0 0 1 0 3l-7.38 5.56A2.24 2.24 0 0 1 9.5 19zm0-1.94l7.38-5.56-7.37-5.56-7.4 5.56z" fill="#fff" opacity=".75"/><path d="M8.82 17.78l-7.43-5.53a.91.91 0 0 1 0-1.5l7.43-5.53a1.16 1.16 0 0 1 1.36 0l7.43 5.53a.91.91 0 0 1 0 1.5l-7.43 5.53a1.16 1.16 0 0 1-1.36 0z" fill="#f23d3d"/><path fill="#fff" d="M10 14.5l1.5-3.5v3.5H13v-6h-1.5l-2 4.5-2-4.5H6v6h1.5V11L9 14.5h1z"/></svg>
