<svg xmlns="http://www.w3.org/2000/svg" viewBox="0 0 21 21" height="21" width="21"><title>beer-15.svg</title><path fill="none" d="M0 0h21v21H0z"/><path fill="rgba(255,255,255,0.75)" d="M15 8V5s-1-1-4.5-1S6 5 6 5v3a9.27 9.27 0 0 0 1 4 5.63 5.63 0 0 1 0 4.5s0 1 3.5 1 3.5-1 3.5-1a5.63 5.63 0 0 1 0-4.5 9.27 9.27 0 0 0 1-4zm-4.5 8.5a7.368 7.368 0 0 1-2.36-.28c.203-.722.304-1.47.3-2.22h4.12c-.004.75.097 1.498.3 2.22a7.368 7.368 0 0 1-2.36.28zm0-8.5A10.65 10.65 0 0 1 7 7.5v-2a10.74 10.74 0 0 1 3.5-.5 10.74 10.74 0 0 1 3.5.5v2c-1.13.36-2.314.53-3.5.5z" stroke="rgba(255,255,255,0.75)" stroke-width="2" stroke-linejoin="round"/><path fill="#cc6529" d="M15 8V5s-1-1-4.5-1S6 5 6 5v3a9.27 9.27 0 0 0 1 4 5.63 5.63 0 0 1 0 4.5s0 1 3.5 1 3.5-1 3.5-1a5.63 5.63 0 0 1 0-4.5 9.27 9.27 0 0 0 1-4zm-4.5 8.5a7.368 7.368 0 0 1-2.36-.28c.203-.722.304-1.47.3-2.22h4.12c-.004.75.097 1.498.3 2.22a7.368 7.368 0 0 1-2.36.28zm0-8.5A10.65 10.65 0 0 1 7 7.5v-2a10.74 10.74 0 0 1 3.5-.5 10.74 10.74 0 0 1 3.5.5v2c-1.13.36-2.314.53-3.5.5z"/></svg>
