<svg xmlns="http://www.w3.org/2000/svg" viewBox="0 0 17 17" height="17" width="17"><title>beer-11.svg</title><path fill="none" d="M0 0h17v17H0z"/><path fill="rgba(255,255,255,0.75)" d="M8.5 4c-2.3 0-3 .66-3 .66v2a6.6 6.6 0 0 0 .66 2.65 4.13 4.13 0 0 1 0 3s0 .66 2.32.66 2.32-.66 2.32-.66a4.13 4.13 0 0 1 0-3 6.6 6.6 0 0 0 .66-2.65v-2S10.8 4 8.5 4zm0 8.28a4.77 4.77 0 0 1-1.56-.18c.133-.479.2-.973.2-1.47h2.72c-.014.22-.014.44 0 .66.034.274.087.544.16.81a4.77 4.77 0 0 1-1.52.19v-.01zm2.32-6a8.24 8.24 0 0 1-4.63 0L6.18 5a8.28 8.28 0 0 1 4.64 0s.03 1.33 0 1.33v-.05z" stroke="rgba(255,255,255,0.75)" stroke-width="2" stroke-linejoin="round"/><path fill="#cc6529" d="M8.5 4c-2.3 0-3 .66-3 .66v2a6.6 6.6 0 0 0 .66 2.65 4.13 4.13 0 0 1 0 3s0 .66 2.32.66 2.32-.66 2.32-.66a4.13 4.13 0 0 1 0-3 6.6 6.6 0 0 0 .66-2.65v-2S10.8 4 8.5 4zm0 8.28a4.77 4.77 0 0 1-1.56-.18c.133-.479.2-.973.2-1.47h2.72c-.014.22-.014.44 0 .66.034.274.087.544.16.81a4.77 4.77 0 0 1-1.52.19v-.01zm2.32-6a8.24 8.24 0 0 1-4.63 0L6.18 5a8.28 8.28 0 0 1 4.64 0s.03 1.33 0 1.33v-.05z"/></svg>
