<svg xmlns="http://www.w3.org/2000/svg" viewBox="0 0 21 21" height="21" width="21"><title>bicycle-15.svg</title><path fill="none" d="M0 0h21v21H0z"/><path fill="rgba(255,255,255,0.75)" d="M10.5 5c-.676-.01-.676 1.01 0 1H12v1.266L9.197 9.6 8.223 7H8.5c.676.01.676-1.01 0-1h-2c-.676-.01-.676 1.01 0 1h.652l.891 2.375A3.45 3.45 0 0 0 6.5 9C4.573 9 3 10.573 3 12.5S4.573 16 6.5 16s3.5-1.573 3.5-3.5c0-.67-.2-1.291-.53-1.824l2.821-2.35.463 1.16C11.71 10.094 11 11.211 11 12.5c0 1.927 1.573 3.5 3.5 3.5s3.5-1.573 3.5-3.5S16.427 9 14.5 9c-.283 0-.554.043-.818.107L13 7.402V5.5a.5.5 0 0 0-.5-.5h-2zm-4 5a2.48 2.48 0 0 1 1.555.553L6.18 12.115c-.511.427.128 1.195.64.77l1.875-1.563c.188.352.305.75.305 1.178C9 13.887 7.887 15 6.5 15S4 13.887 4 12.5 5.113 10 6.5 10zm8 0c1.387 0 2.5 1.113 2.5 2.5S15.887 15 14.5 15 12 13.887 12 12.5a2.49 2.49 0 0 1 1.125-2.088l.91 2.273c.246.624 1.18.25.93-.37l-.908-2.27c.144-.026.291-.045.443-.045z" stroke="rgba(255,255,255,0.75)" stroke-width="2" stroke-linejoin="round"/><path fill="#735139" d="M10.5 5c-.676-.01-.676 1.01 0 1H12v1.266L9.197 9.6 8.223 7H8.5c.676.01.676-1.01 0-1h-2c-.676-.01-.676 1.01 0 1h.652l.891 2.375A3.45 3.45 0 0 0 6.5 9C4.573 9 3 10.573 3 12.5S4.573 16 6.5 16s3.5-1.573 3.5-3.5c0-.67-.2-1.291-.53-1.824l2.821-2.35.463 1.16C11.71 10.094 11 11.211 11 12.5c0 1.927 1.573 3.5 3.5 3.5s3.5-1.573 3.5-3.5S16.427 9 14.5 9c-.283 0-.554.043-.818.107L13 7.402V5.5a.5.5 0 0 0-.5-.5h-2zm-4 5a2.48 2.48 0 0 1 1.555.553L6.18 12.115c-.511.427.128 1.195.64.77l1.875-1.563c.188.352.305.75.305 1.178C9 13.887 7.887 15 6.5 15S4 13.887 4 12.5 5.113 10 6.5 10zm8 0c1.387 0 2.5 1.113 2.5 2.5S15.887 15 14.5 15 12 13.887 12 12.5a2.49 2.49 0 0 1 1.125-2.088l.91 2.273c.246.624 1.18.25.93-.37l-.908-2.27c.144-.026.291-.045.443-.045z"/></svg>
