<svg xmlns="http://www.w3.org/2000/svg" viewBox="0 0 21 21" height="21" width="21"><title>bicycle-share-15.svg</title><path fill="none" d="M0 0h21v21H0z"/><path fill="rgba(255,255,255,0.75)" d="M13 4a1 1 0 1 0 0 2 1 1 0 0 0 0-2zm-1.855 1.994a.5.5 0 0 0-.348.143l-2.64 2.5a.5.5 0 0 0 .042.763L10 10.75v2.75c-.01.676 1.01.676 1 0v-3a.5.5 0 0 0-.2-.4l-.767-.577 1.818-1.72.749.998A.5.5 0 0 0 13 9h1.5c.676.01.676-1.01 0-1h-1.25l-.75-1-.6-.8a.5.5 0 0 0-.384-.206h-.371zM6 10a3 3 0 1 0 0 6 3 3 0 0 0 0-6zm9 0a3 3 0 1 0 0 6 3 3 0 0 0 0-6zm-9 1a2 2 0 1 1 0 4 2 2 0 0 1 0-4zm9 0a2 2 0 1 1 0 4 2 2 0 0 1 0-4z" stroke="rgba(255,255,255,0.75)" stroke-width="2" stroke-linejoin="round"/><path fill="#735139" d="M13 4a1 1 0 1 0 0 2 1 1 0 0 0 0-2zm-1.855 1.994a.5.5 0 0 0-.348.143l-2.64 2.5a.5.5 0 0 0 .042.763L10 10.75v2.75c-.01.676 1.01.676 1 0v-3a.5.5 0 0 0-.2-.4l-.767-.577 1.818-1.72.749.998A.5.5 0 0 0 13 9h1.5c.676.01.676-1.01 0-1h-1.25l-.75-1-.6-.8a.5.5 0 0 0-.384-.206h-.371zM6 10a3 3 0 1 0 0 6 3 3 0 0 0 0-6zm9 0a3 3 0 1 0 0 6 3 3 0 0 0 0-6zm-9 1a2 2 0 1 1 0 4 2 2 0 0 1 0-4zm9 0a2 2 0 1 1 0 4 2 2 0 0 1 0-4z"/></svg>
