<svg xmlns="http://www.w3.org/2000/svg" viewBox="0 0 17 17" height="17" width="17"><title>bicycle-11.svg</title><path fill="none" d="M0 0h17v17H0z"/><path fill="rgba(255,255,255,0.75)" d="M9.5 4.5c-.676-.01-.676 1.01 0 1h.5v.711l-2.748 1.57L6.738 6.5h.715c.676.01.676-1.01 0-1H5.426c-.676-.01-.676 1.01 0 1h.234l.432 1.078A2.461 2.461 0 0 0 5.5 7.5C4.125 7.5 3 8.625 3 10s1.125 2.5 2.5 2.5S8 11.375 8 10c0-.471-.14-.908-.37-1.285l2.472-1.412.402.408A2.507 2.507 0 0 0 9 10.001c0 1.374 1.125 2.5 2.5 2.5S14 11.374 14 10a2.5 2.5 0 0 0-2.27-2.477l-.73-.73V5a.5.5 0 0 0-.5-.5h-1zm-4 4c.834 0 1.5.666 1.5 1.5s-.666 1.5-1.5 1.5S4 10.834 4 10s.666-1.5 1.5-1.5zm5.955.004h.002a.45.45 0 0 0 .09 0A1.49 1.49 0 0 1 13 10c0 .834-.666 1.5-1.5 1.5S10 10.835 10 10a1.49 1.49 0 0 1 1.455-1.496z" stroke="rgba(255,255,255,0.75)" stroke-width="2" stroke-linejoin="round"/><path fill="#735139" d="M9.5 4.5c-.676-.01-.676 1.01 0 1h.5v.711l-2.748 1.57L6.738 6.5h.715c.676.01.676-1.01 0-1H5.426c-.676-.01-.676 1.01 0 1h.234l.432 1.078A2.461 2.461 0 0 0 5.5 7.5C4.125 7.5 3 8.625 3 10s1.125 2.5 2.5 2.5S8 11.375 8 10c0-.471-.14-.908-.37-1.285l2.472-1.412.402.408A2.507 2.507 0 0 0 9 10.001c0 1.374 1.125 2.5 2.5 2.5S14 11.374 14 10a2.5 2.5 0 0 0-2.27-2.477l-.73-.73V5a.5.5 0 0 0-.5-.5h-1zm-4 4c.834 0 1.5.666 1.5 1.5s-.666 1.5-1.5 1.5S4 10.834 4 10s.666-1.5 1.5-1.5zm5.955.004h.002a.45.45 0 0 0 .09 0A1.49 1.49 0 0 1 13 10c0 .834-.666 1.5-1.5 1.5S10 10.835 10 10a1.49 1.49 0 0 1 1.455-1.496z"/></svg>
