<svg xmlns="http://www.w3.org/2000/svg" viewBox="0 0 21 21" height="21" width="21"><title>bus-15.svg</title><path fill="none" d="M0 0h21v21H0z"/><path fill="rgba(255,255,255,0.75)" d="M7 3c-1.364 0-3 .743-3 2.746V15s0 1 1 1v1s0 1 1 1 1-1 1-1v-1h7v1s0 1 1 1 1-1 1-1v-1s1 0 1-1V5.746C17 3.701 15.764 3 14.4 3H7zm.25 1.5h6.5a.25.25 0 1 1 0 .5h-6.5a.25.25 0 1 1 0-.5zM6 6h9c1 0 1 .967 1 .967V10s0 1-1 1H6c-1 0-1-1-1-1V7s0-1 1-1zm0 7a1 1 0 1 1 0 2 1 1 0 0 1 0-2zm9 0a1 1 0 1 1 0 2 1 1 0 0 1 0-2z" stroke="rgba(255,255,255,0.75)" stroke-width="2" stroke-linejoin="round"/><path fill="#475bcc" d="M7 3c-1.364 0-3 .743-3 2.746V15s0 1 1 1v1s0 1 1 1 1-1 1-1v-1h7v1s0 1 1 1 1-1 1-1v-1s1 0 1-1V5.746C17 3.701 15.764 3 14.4 3H7zm.25 1.5h6.5a.25.25 0 1 1 0 .5h-6.5a.25.25 0 1 1 0-.5zM6 6h9c1 0 1 .967 1 .967V10s0 1-1 1H6c-1 0-1-1-1-1V7s0-1 1-1zm0 7a1 1 0 1 1 0 2 1 1 0 0 1 0-2zm9 0a1 1 0 1 1 0 2 1 1 0 0 1 0-2z"/></svg>
