<svg xmlns="http://www.w3.org/2000/svg" viewBox="0 0 17 17" height="17" width="17"><title>bus-11.svg</title><path fill="none" d="M0 0h17v17H0z"/><path fill="rgba(255,255,255,0.75)" d="M6 3c-1 0-2 .531-2 2v7.5s0 .5.5.5l.5.016v.484s0 .5.5.5H6s.5 0 .5-.5v-.484l4-.016v.5s0 .5.5.5h.5c.5 0 .5-.5.5-.5v-.484l.5-.016s.5 0 .5-.5V5c0-1.5-1-2-2-2H6zm.75 1h3.5a.25.25 0 1 1 0 .5h-3.5a.25.25 0 1 1 0-.5zM6 5h5c1 0 1 1 1 1v2s0 1-1 1H6C5 9 5 8 5 8V6s0-1 1-1zm-.25 5.5a.75.75 0 1 1 0 1.5.75.75 0 0 1 0-1.5zm5.5 0a.75.75 0 1 1 0 1.5.75.75 0 0 1 0-1.5z" stroke="rgba(255,255,255,0.75)" stroke-width="2" stroke-linejoin="round"/><path fill="#475bcc" d="M6 3c-1 0-2 .531-2 2v7.5s0 .5.5.5l.5.016v.484s0 .5.5.5H6s.5 0 .5-.5v-.484l4-.016v.5s0 .5.5.5h.5c.5 0 .5-.5.5-.5v-.484l.5-.016s.5 0 .5-.5V5c0-1.5-1-2-2-2H6zm.75 1h3.5a.25.25 0 1 1 0 .5h-3.5a.25.25 0 1 1 0-.5zM6 5h5c1 0 1 1 1 1v2s0 1-1 1H6C5 9 5 8 5 8V6s0-1 1-1zm-.25 5.5a.75.75 0 1 1 0 1.5.75.75 0 0 1 0-1.5zm5.5 0a.75.75 0 1 1 0 1.5.75.75 0 0 1 0-1.5z"/></svg>
