<svg xmlns="http://www.w3.org/2000/svg" viewBox="0 0 17 17" height="17" width="17"><title>cafe-11.svg</title><path fill="none" d="M0 0h17v17H0z"/><path fill="rgba(255,255,255,0.75)" d="M10 12.5a.5.5 0 0 1-.5.5h-4a.5.5 0 0 1 0-1h4a.5.5 0 0 1 .5.5zM11 6h-1V5H5v4a2.5 2.5 0 0 0 4.79 1H11a2 2 0 1 0 0-4zm0 3h-1V7h1a1 1 0 1 1 0 2z" stroke="rgba(255,255,255,0.75)" stroke-width="2" stroke-linejoin="round"/><path fill="#cc6529" d="M10 12.5a.5.5 0 0 1-.5.5h-4a.5.5 0 0 1 0-1h4a.5.5 0 0 1 .5.5zM11 6h-1V5H5v4a2.5 2.5 0 0 0 4.79 1H11a2 2 0 1 0 0-4zm0 3h-1V7h1a1 1 0 1 1 0 2z"/></svg>
