<svg xmlns="http://www.w3.org/2000/svg" viewBox="0 0 21 21" height="21" width="21"><title>cafe-15.svg</title><path fill="none" d="M0 0h21v21H0z"/><path fill="rgba(255,255,255,0.75)" d="M15 8h-2V6H5v4a4 4 0 0 0 7.45 2H15a2 2 0 1 0 0-4zm0 3h-2.14a4 4 0 0 0 .14-1V9h2a1 1 0 1 1 0 2zm-2 4.5a.5.5 0 0 1-.5.5h-7a.5.5 0 0 1 0-1h7a.5.5 0 0 1 .5.5z" stroke="rgba(255,255,255,0.75)" stroke-width="2" stroke-linejoin="round"/><path fill="#cc6529" d="M15 8h-2V6H5v4a4 4 0 0 0 7.45 2H15a2 2 0 1 0 0-4zm0 3h-2.14a4 4 0 0 0 .14-1V9h2a1 1 0 1 1 0 2zm-2 4.5a.5.5 0 0 1-.5.5h-7a.5.5 0 0 1 0-1h7a.5.5 0 0 1 .5.5z"/></svg>
