<svg xmlns="http://www.w3.org/2000/svg" viewBox="0 0 17 17" height="17" width="17"><title>campsite-11.svg</title><path fill="none" d="M0 0h17v17H0z"/><path fill="rgba(255,255,255,0.75)" d="M8.92 5.19a.5.5 0 0 0-.85 0L4.5 11h-1a.42.42 0 0 0-.5.39v1.11a.49.49 0 0 0 .5.5h10a.49.49 0 0 0 .5-.5v-1.11a.42.42 0 0 0-.5-.39h-1L8.92 5.19zM8.5 6l3 5h-6l3-5z" stroke="rgba(255,255,255,0.75)" stroke-width="2" stroke-linejoin="round"/><path fill="#268000" d="M8.92 5.19a.5.5 0 0 0-.85 0L4.5 11h-1a.42.42 0 0 0-.5.39v1.11a.49.49 0 0 0 .5.5h10a.49.49 0 0 0 .5-.5v-1.11a.42.42 0 0 0-.5-.39h-1L8.92 5.19zM8.5 6l3 5h-6l3-5z"/></svg>
