<svg xmlns="http://www.w3.org/2000/svg" viewBox="0 0 21 21" height="21" width="21"><title>campsite-15.svg</title><path fill="none" d="M0 0h21v21H0z"/><path fill="rgba(255,255,255,0.75)" d="M10 4.5l-5.5 9H4c-1 0-1 1-1 1v1s0 1 1 1h13c1 0 1-1 1-1v-1s0-1-1-1h-.5l-5.5-9c-.2-.4-.8-.4-1 0zm.5 3.5l3.2 5.5H7.2L10.5 8z" stroke="rgba(255,255,255,0.75)" stroke-width="2" stroke-linejoin="round"/><path fill="#268000" d="M10 4.5l-5.5 9H4c-1 0-1 1-1 1v1s0 1 1 1h13c1 0 1-1 1-1v-1s0-1-1-1h-.5l-5.5-9c-.2-.4-.8-.4-1 0zm.5 3.5l3.2 5.5H7.2L10.5 8z"/></svg>
