<svg xmlns="http://www.w3.org/2000/svg" viewBox="0 0 21 21" height="21" width="21"><title>car-15.svg</title><path fill="none" d="M0 0h21v21H0z"/><path fill="rgba(255,255,255,0.75)" d="M17 10a1.5 1.5 0 0 0-1.15-1.45l-1.39-3.24A.5.5 0 0 0 14 5H7a.5.5 0 0 0-.44.28L5.15 8.54A1.5 1.5 0 0 0 4 10v3.5h1v1a1 1 0 1 0 2 0v-1h7v1a1 1 0 1 0 2 0v-1h1V10zM7.3 6h6.4l1.05 2.5h-8.5L7.3 6zM6 12a1 1 0 1 1 0-2 1 1 0 0 1 0 2zm9 0a1 1 0 1 1 0-2 1 1 0 0 1 0 2z" stroke="rgba(255,255,255,0.75)" stroke-width="2" stroke-linejoin="round"/><path fill="#735139" d="M17 10a1.5 1.5 0 0 0-1.15-1.45l-1.39-3.24A.5.5 0 0 0 14 5H7a.5.5 0 0 0-.44.28L5.15 8.54A1.5 1.5 0 0 0 4 10v3.5h1v1a1 1 0 1 0 2 0v-1h7v1a1 1 0 1 0 2 0v-1h1V10zM7.3 6h6.4l1.05 2.5h-8.5L7.3 6zM6 12a1 1 0 1 1 0-2 1 1 0 0 1 0 2zm9 0a1 1 0 1 1 0-2 1 1 0 0 1 0 2z"/></svg>
