<svg xmlns="http://www.w3.org/2000/svg" viewBox="0 0 17 17" height="17" width="17"><title>car-11.svg</title><path fill="none" d="M0 0h17v17H0z"/><path fill="rgba(255,255,255,0.75)" d="M12 7l-.89-2.66a.5.5 0 0 0-.47-.34H6.36a.5.5 0 0 0-.47.34L5 7a1 1 0 0 0-1 1v3h1v1a1 1 0 1 0 2 0v-1h3v1a1 1 0 1 0 2 0v-1h1V8a1 1 0 0 0-1-1zm-6 3a1 1 0 1 1 0-2 1 1 0 0 1 0 2zm0-3l.62-2h3.76L11 7H6zm5 3a1 1 0 1 1 0-2 1 1 0 0 1 0 2z" stroke="rgba(255,255,255,0.75)" stroke-width="2" stroke-linejoin="round"/><path fill="#735139" d="M12 7l-.89-2.66a.5.5 0 0 0-.47-.34H6.36a.5.5 0 0 0-.47.34L5 7a1 1 0 0 0-1 1v3h1v1a1 1 0 1 0 2 0v-1h3v1a1 1 0 1 0 2 0v-1h1V8a1 1 0 0 0-1-1zm-6 3a1 1 0 1 1 0-2 1 1 0 0 1 0 2zm0-3l.62-2h3.76L11 7H6zm5 3a1 1 0 1 1 0-2 1 1 0 0 1 0 2z"/></svg>
