<svg xmlns="http://www.w3.org/2000/svg" viewBox="0 0 17 17" height="17" width="17"><title>castle-11.svg</title><path fill="none" d="M0 0h17v17H0z"/><path fill="rgba(255,255,255,0.75)" d="M11.67 3.81v1.48A.69.69 0 0 1 11 6H6.09a.69.69 0 0 1-.7-.7V3.81a.345.345 0 0 1 .69 0v.69H7V4a.5.5 0 0 1 1 0v.5h1V4a.5.5 0 0 1 1 0v.5h1v-.69a.34.34 0 1 1 .67 0zm1.39 8.82a.35.35 0 0 1-.35.35H4.35a.35.35 0 0 1 0-.7h.35a.68.68 0 0 0 .7-.7s.7-3.2.7-3.89A.68.68 0 0 1 6.79 7h3.48a.68.68 0 0 1 .7.7c0 .7.7 3.89.7 3.89a.68.68 0 0 0 .7.7h.34a.35.35 0 0 1 .35.35v-.01zM9.5 10.5a1 1 0 1 0-2 0v2h2v-2z" stroke="rgba(255,255,255,0.75)" stroke-width="2" stroke-linejoin="round"/><path fill="#735139" d="M11.67 3.81v1.48A.69.69 0 0 1 11 6H6.09a.69.69 0 0 1-.7-.7V3.81a.345.345 0 0 1 .69 0v.69H7V4a.5.5 0 0 1 1 0v.5h1V4a.5.5 0 0 1 1 0v.5h1v-.69a.34.34 0 1 1 .67 0zm1.39 8.82a.35.35 0 0 1-.35.35H4.35a.35.35 0 0 1 0-.7h.35a.68.68 0 0 0 .7-.7s.7-3.2.7-3.89A.68.68 0 0 1 6.79 7h3.48a.68.68 0 0 1 .7.7c0 .7.7 3.89.7 3.89a.68.68 0 0 0 .7.7h.34a.35.35 0 0 1 .35.35v-.01zM9.5 10.5a1 1 0 1 0-2 0v2h2v-2z"/></svg>
