<svg xmlns="http://www.w3.org/2000/svg" viewBox="0 0 17 17" height="17" width="17"><title>cemetery-11.svg</title><path fill="none" d="M0 0h17v17H0z"/><path fill="rgba(255,255,255,0.75)" d="M11.65 11H11l1-5.61a.36.36 0 0 0-.37-.39h-1.47c0-.65-.7-1-1.67-1s-1.83.35-1.83 1H5.35a.36.36 0 0 0-.35.39L6 11h-.65a.35.35 0 0 0-.35.36V13h7v-1.64a.35.35 0 0 0-.34-.36h-.01zM10 8H7V7h3v1z" stroke="rgba(255,255,255,0.75)" stroke-width="2" stroke-linejoin="round"/><path fill="#268000" d="M11.65 11H11l1-5.61a.36.36 0 0 0-.37-.39h-1.47c0-.65-.7-1-1.67-1s-1.83.35-1.83 1H5.35a.36.36 0 0 0-.35.39L6 11h-.65a.35.35 0 0 0-.35.36V13h7v-1.64a.35.35 0 0 0-.34-.36h-.01zM10 8H7V7h3v1z"/></svg>
