<svg xmlns="http://www.w3.org/2000/svg" viewBox="0 0 21 21" height="21" width="21"><title>cemetery-15.svg</title><path fill="none" d="M0 0h21v21H0z"/><path fill="rgba(255,255,255,0.75)" d="M14.46 15h-.68L15 6.55a.52.52 0 0 0-.56-.55h-1.18c0-.92-1.23-2-2.75-2S7.77 5.08 7.77 6H6.54a.52.52 0 0 0-.54.55L7.2 15h-.65a.53.53 0 0 0-.55.5V17h9v-1.51a.52.52 0 0 0-.54-.49zM7.5 8h6v1h-6V8z" stroke="rgba(255,255,255,0.75)" stroke-width="2" stroke-linejoin="round"/><path fill="#268000" d="M14.46 15h-.68L15 6.55a.52.52 0 0 0-.56-.55h-1.18c0-.92-1.23-2-2.75-2S7.77 5.08 7.77 6H6.54a.52.52 0 0 0-.54.55L7.2 15h-.65a.53.53 0 0 0-.55.5V17h9v-1.51a.52.52 0 0 0-.54-.49zM7.5 8h6v1h-6V8z"/></svg>
