<svg xmlns="http://www.w3.org/2000/svg" viewBox="0 0 17 17" height="17" width="17"><title>cinema-11.svg</title><path fill="none" d="M0 0h17v17H0z"/><path fill="rgba(255,255,255,0.75)" d="M13 8.5v2a.5.5 0 0 1-1 0 .66.66 0 0 0-.51-.5H11v1.63a.37.37 0 0 1-.37.37H4.37a.37.37 0 0 1-.37-.37V8.37A.37.37 0 0 1 4.37 8h6.26a.37.37 0 0 1 .37.37V9h.49a.66.66 0 0 0 .51-.5.5.5 0 0 1 1 0zM5.5 5a1.5 1.5 0 1 0 0 3 1.5 1.5 0 0 0 0-3zm0 2a.5.5 0 1 1 0-1 .5.5 0 0 1 0 1zM9 4a2 2 0 1 0 0 4 2 2 0 0 0 0-4zm0 3a1 1 0 1 1 0-2 1 1 0 0 1 0 2z" stroke="rgba(255,255,255,0.75)" stroke-width="2" stroke-linejoin="round"/><path fill="#735139" d="M13 8.5v2a.5.5 0 0 1-1 0 .66.66 0 0 0-.51-.5H11v1.63a.37.37 0 0 1-.37.37H4.37a.37.37 0 0 1-.37-.37V8.37A.37.37 0 0 1 4.37 8h6.26a.37.37 0 0 1 .37.37V9h.49a.66.66 0 0 0 .51-.5.5.5 0 0 1 1 0zM5.5 5a1.5 1.5 0 1 0 0 3 1.5 1.5 0 0 0 0-3zm0 2a.5.5 0 1 1 0-1 .5.5 0 0 1 0 1zM9 4a2 2 0 1 0 0 4 2 2 0 0 0 0-4zm0 3a1 1 0 1 1 0-2 1 1 0 0 1 0 2z"/></svg>
