<svg xmlns="http://www.w3.org/2000/svg" viewBox="0 0 17 17" height="17" width="17"><title>circle-stroked-11.svg</title><path fill="none" d="M0 0h17v17H0z"/><path fill="rgba(255,255,255,0.75)" d="M8.5 3a5.5 5.5 0 1 1 0 11 5.5 5.5 0 0 1 0-11zm0 1.222a4.278 4.278 0 1 0 0 8.556 4.278 4.278 0 0 0 0-8.556z" stroke="rgba(255,255,255,0.75)" stroke-width="2" stroke-linejoin="round"/><path fill="#735139" d="M8.5 3a5.5 5.5 0 1 1 0 11 5.5 5.5 0 0 1 0-11zm0 1.222a4.278 4.278 0 1 0 0 8.556 4.278 4.278 0 0 0 0-8.556z"/></svg>
