<svg xmlns="http://www.w3.org/2000/svg" viewBox="0 0 21 21" height="21" width="21"><title>circle-stroked-15.svg</title><path fill="none" d="M0 0h21v21H0z"/><path fill="rgba(255,255,255,0.75)" d="M10.5 3a7.5 7.5 0 1 1 0 15 7.5 7.5 0 0 1 0-15zm0 1.667a5.833 5.833 0 1 0 0 11.666 5.833 5.833 0 0 0 0-11.666z" stroke="rgba(255,255,255,0.75)" stroke-width="2" stroke-linejoin="round"/><path fill="#735139" d="M10.5 3a7.5 7.5 0 1 1 0 15 7.5 7.5 0 0 1 0-15zm0 1.667a5.833 5.833 0 1 0 0 11.666 5.833 5.833 0 0 0 0-11.666z"/></svg>
