<svg xmlns="http://www.w3.org/2000/svg" viewBox="0 0 21 21" height="21" width="21"><title>college-15.svg</title><path fill="none" d="M0 0h21v21H0z"/><path fill="rgba(255,255,255,0.75)" d="M10.5 4L3 7.5l2 .9v1.7c-.6.2-1 .8-1 1.4s.4 1.2 1 1.4v.1l-.9 2.1C3.8 16 4 17 5.5 17s1.7-1 1.4-1.9L6 13c.6-.3 1-.8 1-1.5s-.4-1.2-1-1.4V8.9l4.5 2.1L18 7.5 10.5 4zm4.4 6.5l-4.5 2L8 11.4v.1c0 .7-.3 1.3-.8 1.8l.6 1.4v.1c.1.4.2.8.1 1.2.7.3 1.5.5 2.5.5 3.3 0 4.5-2 4.5-3v-3z" stroke="rgba(255,255,255,0.75)" stroke-width="2" stroke-linejoin="round"/><path fill="#8c7700" d="M10.5 4L3 7.5l2 .9v1.7c-.6.2-1 .8-1 1.4s.4 1.2 1 1.4v.1l-.9 2.1C3.8 16 4 17 5.5 17s1.7-1 1.4-1.9L6 13c.6-.3 1-.8 1-1.5s-.4-1.2-1-1.4V8.9l4.5 2.1L18 7.5 10.5 4zm4.4 6.5l-4.5 2L8 11.4v.1c0 .7-.3 1.3-.8 1.8l.6 1.4v.1c.1.4.2.8.1 1.2.7.3 1.5.5 2.5.5 3.3 0 4.5-2 4.5-3v-3z"/></svg>
