<svg xmlns="http://www.w3.org/2000/svg" viewBox="0 0 17 17" height="17" width="17"><title>college-11.svg</title><path fill="none" d="M0 0h17v17H0z"/><path fill="rgba(255,255,255,0.75)" d="M5 10.3c.3-.2.5-.5.5-.8 0-.4-.2-.7-.6-.9V7.4L8.5 9 14 6.5 8.5 4 3 6.5l1.2.5v1.6c-.4.2-.6.5-.6.9 0 .3.2.6.5.8L3.6 12c-.3 1 .5 1 .5 1h1s.8 0 .5-1L5 10.3z" stroke="rgba(255,255,255,0.75)" stroke-width="2" stroke-linejoin="round"/><path fill="rgba(255,255,255,0.75)" d="M6.5 9.2v.3c0 .4-.2.8-.4 1.1.2.4.4.8.4 1.4v.6c.5.2 1.2.4 2 .4 2.5 0 3.5-1.5 3.5-1.5v-3l-3.5 1.6-2-.9z" stroke="rgba(255,255,255,0.75)" stroke-width="2" stroke-linejoin="round"/><path fill="#8c7700" d="M5 10.3c.3-.2.5-.5.5-.8 0-.4-.2-.7-.6-.9V7.4L8.5 9 14 6.5 8.5 4 3 6.5l1.2.5v1.6c-.4.2-.6.5-.6.9 0 .3.2.6.5.8L3.6 12c-.3 1 .5 1 .5 1h1s.8 0 .5-1L5 10.3z"/><path fill="#8c7700" d="M6.5 9.2v.3c0 .4-.2.8-.4 1.1.2.4.4.8.4 1.4v.6c.5.2 1.2.4 2 .4 2.5 0 3.5-1.5 3.5-1.5v-3l-3.5 1.6-2-.9z"/></svg>
