<svg xmlns="http://www.w3.org/2000/svg" width="19" height="19" viewBox="0 0 19 19"><title>delhi-metro</title><path d="M9.5 19A9.5 9.5 0 1 1 19 9.5 9.51 9.51 0 0 1 9.5 19z" fill="#fff" opacity=".75"/><circle cx="9.5" cy="9.5" r="8.5" fill="#fff"/><path d="M9.5 2.5a7 7 0 0 0-6.31 4h12.62a7 7 0 0 0-6.31-4zM8.55 12H16a6.88 6.88 0 0 0 .3-4h-3.75zm-4.79 1.5a7 7 0 0 0 11.47 0H3.76z" fill="none"/><path d="M17.35 12.76A8.37 8.37 0 0 0 17.86 8c0-.26-.1-.51-.17-.75q-.1-.37-.24-.73a8.49 8.49 0 0 0-15.89 0q-.14.36-.24.73c-.08.24-.13.49-.18.75a8.37 8.37 0 0 0 .51 4.76 8.5 8.5 0 0 0 15.69 0zM16.5 9.5A7 7 0 0 1 16 12H8.5l4.05-4h3.78a7 7 0 0 1 .17 1.5zm-7-7a7 7 0 0 1 6.31 4H3.19a7 7 0 0 1 6.31-4zm1 5.5l-4 4H3a6.88 6.88 0 0 1-.3-4h7.8zm-1 8.5a7 7 0 0 1-5.74-3h11.48a7 7 0 0 1-5.74 3z" fill="#f23d3d"/><path fill="none" d="M0 0h19v19H0z"/></svg>
