<svg xmlns="http://www.w3.org/2000/svg" viewBox="0 0 17 17" height="17" width="17"><title>dentist-11.svg</title><path fill="none" d="M0 0h17v17H0z"/><path fill="rgba(255,255,255,0.75)" d="M8.48 9A2 2 0 0 0 7 10c-.46 1.21-.14 3-.82 3s-.48-1.51-.68-3a16.259 16.259 0 0 0-.76-1.89C4.53 6.7 4 4.28 5.67 4S7.35 5.52 8.5 5.52 9.67 3.72 11.33 4s1.14 2.7.93 4.11A16.259 16.259 0 0 0 11.5 10c-.2 1.49 0 3-.68 3s-.36-1.79-.82-3a2 2 0 0 0-1.48-1h-.04z" stroke="rgba(255,255,255,0.75)" stroke-width="2" stroke-linejoin="round"/><path fill="#b35071" d="M8.48 9A2 2 0 0 0 7 10c-.46 1.21-.14 3-.82 3s-.48-1.51-.68-3a16.259 16.259 0 0 0-.76-1.89C4.53 6.7 4 4.28 5.67 4S7.35 5.52 8.5 5.52 9.67 3.72 11.33 4s1.14 2.7.93 4.11A16.259 16.259 0 0 0 11.5 10c-.2 1.49 0 3-.68 3s-.36-1.79-.82-3a2 2 0 0 0-1.48-1h-.04z"/></svg>
