<svg xmlns="http://www.w3.org/2000/svg" viewBox="0 0 21 21" height="21" width="21"><title>dentist-15.svg</title><path fill="none" d="M0 0h21v21H0z"/><path fill="rgba(255,255,255,0.75)" d="M7.36 17c-1 0-.56-2.67-.86-5-.1-.76-1-1.49-1.12-2.06C5 8 4.39 4.44 6.66 4S9 6 10.54 6s1.57-2.36 3.85-2 1.59 3.9 1.29 5.9c-.1.45-1.1 1.48-1.18 2.06-.33 2.4.32 5-.8 5-.93 0-1.32-2.72-2-4.5-.27-.83-.64-1.46-1.16-1.46-1.54 0-1.79 6-3.18 6z" stroke="rgba(255,255,255,0.75)" stroke-width="2" stroke-linejoin="round"/><path fill="#b35071" d="M7.36 17c-1 0-.56-2.67-.86-5-.1-.76-1-1.49-1.12-2.06C5 8 4.39 4.44 6.66 4S9 6 10.54 6s1.57-2.36 3.85-2 1.59 3.9 1.29 5.9c-.1.45-1.1 1.48-1.18 2.06-.33 2.4.32 5-.8 5-.93 0-1.32-2.72-2-4.5-.27-.83-.64-1.46-1.16-1.46-1.54 0-1.79 6-3.18 6z"/></svg>
