<svg xmlns="http://www.w3.org/2000/svg" viewBox="0 0 17 17" height="17" width="17"><title>doctor-11.svg</title><path fill="none" d="M0 0h17v17H0z"/><path fill="rgba(255,255,255,0.75)" d="M12.5 8.87a1.48 1.48 0 1 0-1.85 1.43v.42a1.855 1.855 0 1 1-3.71 0A3.27 3.27 0 0 1 8.05 8.4H8a2.58 2.58 0 0 0 1.17-2.12V4.79a1.11 1.11 0 0 0-1.11-1.11H7.5a.37.37 0 0 0 0 .74h.55a.37.37 0 0 1 .37.37v1.49a1.85 1.85 0 0 1-1.84 1.85v.27-.27a1.85 1.85 0 0 1-1.86-1.84v-1.5a.37.37 0 0 1 .37-.37h.52a.37.37 0 0 0 0-.74h-.52A1.11 1.11 0 0 0 4 4.79v1.49A2.58 2.58 0 0 0 5.1 8.4a3.27 3.27 0 0 1 1.1 2.32 2.595 2.595 0 1 0 5.19 0v-.42a1.48 1.48 0 0 0 1.11-1.43zm-1.5.74a.74.74 0 1 1 .74-.74.74.74 0 0 1-.74.74z" stroke="rgba(255,255,255,0.75)" stroke-width="2" stroke-linejoin="round"/><path fill="#b35071" d="M12.5 8.87a1.48 1.48 0 1 0-1.85 1.43v.42a1.855 1.855 0 1 1-3.71 0A3.27 3.27 0 0 1 8.05 8.4H8a2.58 2.58 0 0 0 1.17-2.12V4.79a1.11 1.11 0 0 0-1.11-1.11H7.5a.37.37 0 0 0 0 .74h.55a.37.37 0 0 1 .37.37v1.49a1.85 1.85 0 0 1-1.84 1.85v.27-.27a1.85 1.85 0 0 1-1.86-1.84v-1.5a.37.37 0 0 1 .37-.37h.52a.37.37 0 0 0 0-.74h-.52A1.11 1.11 0 0 0 4 4.79v1.49A2.58 2.58 0 0 0 5.1 8.4a3.27 3.27 0 0 1 1.1 2.32 2.595 2.595 0 1 0 5.19 0v-.42a1.48 1.48 0 0 0 1.11-1.43zm-1.5.74a.74.74 0 1 1 .74-.74.74.74 0 0 1-.74.74z"/></svg>
