<svg xmlns="http://www.w3.org/2000/svg" viewBox="0 0 21 21" height="21" width="21"><title>doctor-15.svg</title><path fill="none" d="M0 0h21v21H0z"/><path fill="rgba(255,255,255,0.75)" d="M8.5 10A2.5 2.5 0 0 1 6 7.5v-2a.5.5 0 0 1 .5-.5H7a.5.5 0 0 0 0-1h-.5A1.5 1.5 0 0 0 5 5.5v2a3.49 3.49 0 0 0 1.51 2.87A4.41 4.41 0 0 1 8 13.5a3.5 3.5 0 1 0 7 0v-.57a2 2 0 1 0-1 0v.57a2.5 2.5 0 0 1-5 0 4.41 4.41 0 0 1 1.5-3.13A3.49 3.49 0 0 0 12 7.5v-2A1.5 1.5 0 0 0 10.5 4H10a.5.5 0 0 0 0 1h.5a.5.5 0 0 1 .5.5v2A2.5 2.5 0 0 1 8.5 10m6 2a1 1 0 1 1 0-2 1 1 0 0 1 0 2z" stroke="rgba(255,255,255,0.75)" stroke-width="2" stroke-linejoin="round"/><path fill="#b35071" d="M8.5 10A2.5 2.5 0 0 1 6 7.5v-2a.5.5 0 0 1 .5-.5H7a.5.5 0 0 0 0-1h-.5A1.5 1.5 0 0 0 5 5.5v2a3.49 3.49 0 0 0 1.51 2.87A4.41 4.41 0 0 1 8 13.5a3.5 3.5 0 1 0 7 0v-.57a2 2 0 1 0-1 0v.57a2.5 2.5 0 0 1-5 0 4.41 4.41 0 0 1 1.5-3.13A3.49 3.49 0 0 0 12 7.5v-2A1.5 1.5 0 0 0 10.5 4H10a.5.5 0 0 0 0 1h.5a.5.5 0 0 1 .5.5v2A2.5 2.5 0 0 1 8.5 10m6 2a1 1 0 1 1 0-2 1 1 0 0 1 0 2z"/></svg>
