<svg xmlns="http://www.w3.org/2000/svg" viewBox="0 0 17 17" height="17" width="17"><title>dog-park-11.svg</title><path fill="none" d="M0 0h17v17H0z"/><path fill="rgba(255,255,255,0.75)" d="M10.5 4s-.346.037-.5.5l-.5 2 2 1.5H13c1 0 1-1 1-1l-1.5-1.5C12 5 11.5 5 11 5v-.5s0-.5-.5-.5zm-5 1s-.353-.007-.723.178S4 5.833 4 6.5v2c0 1 0 1.5-.5 1.5 0 0-.5 0-.5.5v2s0 .5.5.5.5-.5.5-.5V11c.354 0 .69-.137 1-.299V12.5s0 .5.5.5.5-.5.5-.5V10h3l.664 1.992C10 13 10.5 13 10.5 13h.5s.5 0 .5-.5-.5-.5-.5-.5V9.5c0-.89-.632-1.255-1-1.5L8.498 7H5v-.5c0-.333.092-.362.223-.428C5.353 6.007 5.5 6 5.5 6c.676.01.676-1.01 0-1z" stroke="rgba(255,255,255,0.75)" stroke-width="2" stroke-linejoin="round"/><path fill="#268000" d="M10.5 4s-.346.037-.5.5l-.5 2 2 1.5H13c1 0 1-1 1-1l-1.5-1.5C12 5 11.5 5 11 5v-.5s0-.5-.5-.5zm-5 1s-.353-.007-.723.178S4 5.833 4 6.5v2c0 1 0 1.5-.5 1.5 0 0-.5 0-.5.5v2s0 .5.5.5.5-.5.5-.5V11c.354 0 .69-.137 1-.299V12.5s0 .5.5.5.5-.5.5-.5V10h3l.664 1.992C10 13 10.5 13 10.5 13h.5s.5 0 .5-.5-.5-.5-.5-.5V9.5c0-.89-.632-1.255-1-1.5L8.498 7H5v-.5c0-.333.092-.362.223-.428C5.353 6.007 5.5 6 5.5 6c.676.01.676-1.01 0-1z"/></svg>
