<svg xmlns="http://www.w3.org/2000/svg" viewBox="0 0 21 21" height="21" width="21"><title>dog-park-15.svg</title><path fill="none" d="M0 0h21v21H0z"/><path fill="rgba(255,255,255,0.75)" d="M16.1 6.322c-.7-.7-1.4-.822-2.1-.822V5s.067-.778-.7-.778c-.386 0-.7-.022-.8.778l-.4 2.521L14.5 9.5h2c1.4 0 1.5-.959 1.5-.959l-1.9-2.22zM14.75 7.5a.25.25 0 1 1 0-.5.25.25 0 0 1 0 .5zM14 15l.1-4.078L11 8.5H6.5v-2c0-.4.276-.495.5-.5.494-.012.75 0 .75 0a.75.75 0 0 0 0-1.5s-.95.021-1.55.222c-.6.2-1.2.9-1.2 1.9v3.9c0 1.7-.7 1.978-1 1.978 0 0-1 .021-1 1.022v2.2s0 .8.8.8H5v-.7c0-.4-.2-.6-.5-.7v-1.1c1 0 1.1-.2 1.5-.3l.55 2.196c.1.3.2.5.5.6h1L9 16.5v-.8c0-.676-1-.7-1-.7v-2.5h3.5l.7 2.622c.4 1.4 1.3 1.378 1.3 1.378H15v-.8c0-.712-1-.7-1-.7z" stroke="rgba(255,255,255,0.75)" stroke-width="2" stroke-linejoin="round"/><path fill="#268000" d="M16.1 6.322c-.7-.7-1.4-.822-2.1-.822V5s.067-.778-.7-.778c-.386 0-.7-.022-.8.778l-.4 2.521L14.5 9.5h2c1.4 0 1.5-.959 1.5-.959l-1.9-2.22zM14.75 7.5a.25.25 0 1 1 0-.5.25.25 0 0 1 0 .5zM14 15l.1-4.078L11 8.5H6.5v-2c0-.4.276-.495.5-.5.494-.012.75 0 .75 0a.75.75 0 0 0 0-1.5s-.95.021-1.55.222c-.6.2-1.2.9-1.2 1.9v3.9c0 1.7-.7 1.978-1 1.978 0 0-1 .021-1 1.022v2.2s0 .8.8.8H5v-.7c0-.4-.2-.6-.5-.7v-1.1c1 0 1.1-.2 1.5-.3l.55 2.196c.1.3.2.5.5.6h1L9 16.5v-.8c0-.676-1-.7-1-.7v-2.5h3.5l.7 2.622c.4 1.4 1.3 1.378 1.3 1.378H15v-.8c0-.712-1-.7-1-.7z"/></svg>
