<svg xmlns="http://www.w3.org/2000/svg" viewBox="0 0 21 21" height="21" width="21"><title>drinking-water-15.svg</title><path fill="none" d="M0 0h21v21H0z"/><path fill="rgba(255,255,255,0.75)" d="M9 4a2 2 0 0 0-2 2v3.5a.5.5 0 0 0 .5.5h2a.5.5 0 0 0 .5-.5v-2a.5.5 0 0 1 .5-.5H17V4H9zm1 14H7a.5.5 0 0 1-.48-.38l-1.52-6a.5.5 0 0 1 .5-.62h6a.5.5 0 0 1 .5.62l-1.5 6a.5.5 0 0 1-.5.38zm-3.35-4h3.71l.5-2H6.14z" stroke="rgba(255,255,255,0.75)" stroke-width="2" stroke-linejoin="round"/><path fill="#735139" d="M9 4a2 2 0 0 0-2 2v3.5a.5.5 0 0 0 .5.5h2a.5.5 0 0 0 .5-.5v-2a.5.5 0 0 1 .5-.5H17V4H9zm1 14H7a.5.5 0 0 1-.48-.38l-1.52-6a.5.5 0 0 1 .5-.62h6a.5.5 0 0 1 .5.62l-1.5 6a.5.5 0 0 1-.5.38zm-3.35-4h3.71l.5-2H6.14z"/></svg>
