<svg xmlns="http://www.w3.org/2000/svg" viewBox="0 0 17 17" height="17" width="17"><title>drinking-water-11.svg</title><path fill="none" d="M0 0h17v17H0z"/><path fill="rgba(255,255,255,0.75)" d="M8 14H6a.51.51 0 0 1-.5-.4L4 8.6a.5.5 0 0 1 .5-.6h5a.5.5 0 0 1 .5.6l-1.49 5A.51.51 0 0 1 8 14zm-2.24-3h2.46l.67-2H5.11zM7.5 3A1.5 1.5 0 0 0 6 4.51v2a.5.5 0 0 0 .5.5h1A.5.5 0 0 0 8 6.5v-1a.5.5 0 0 1 .5-.5H13V3H7.5z" stroke="rgba(255,255,255,0.75)" stroke-width="2" stroke-linejoin="round"/><path fill="#735139" d="M8 14H6a.51.51 0 0 1-.5-.4L4 8.6a.5.5 0 0 1 .5-.6h5a.5.5 0 0 1 .5.6l-1.49 5A.51.51 0 0 1 8 14zm-2.24-3h2.46l.67-2H5.11zM7.5 3A1.5 1.5 0 0 0 6 4.51v2a.5.5 0 0 0 .5.5h1A.5.5 0 0 0 8 6.5v-1a.5.5 0 0 1 .5-.5H13V3H7.5z"/></svg>
