<svg xmlns="http://www.w3.org/2000/svg" viewBox="0 0 21 21" height="21" width="21"><title>embassy-15.svg</title><path fill="none" d="M0 0h21v21H0z"/><path fill="rgba(255,255,255,0.75)" d="M9.65 5C8.43 5 7.48 6.38 7.11 6.82a.49.49 0 0 0-.11.32v4.4a.44.44 0 0 0 .72.36 3 3 0 0 1 1.93-1.17c1.41 0 1.95 1.27 3.42 1.27a5.28 5.28 0 0 0 2.73-1.09.49.49 0 0 0 .2-.4V5.45a.44.44 0 0 0-.62-.45 5.75 5.75 0 0 1-2.31 1.06C11.6 6.08 11.12 5 9.65 5zM5.5 6a1 1 0 1 1 0-2 1 1 0 0 1 0 2zM6 7v9.48a.5.5 0 0 1-1 0V7a.5.5 0 0 1 1 0z" stroke="rgba(255,255,255,0.75)" stroke-width="2" stroke-linejoin="round"/><path fill="#735139" d="M9.65 5C8.43 5 7.48 6.38 7.11 6.82a.49.49 0 0 0-.11.32v4.4a.44.44 0 0 0 .72.36 3 3 0 0 1 1.93-1.17c1.41 0 1.95 1.27 3.42 1.27a5.28 5.28 0 0 0 2.73-1.09.49.49 0 0 0 .2-.4V5.45a.44.44 0 0 0-.62-.45 5.75 5.75 0 0 1-2.31 1.06C11.6 6.08 11.12 5 9.65 5zM5.5 6a1 1 0 1 1 0-2 1 1 0 0 1 0 2zM6 7v9.48a.5.5 0 0 1-1 0V7a.5.5 0 0 1 1 0z"/></svg>
