<svg xmlns="http://www.w3.org/2000/svg" viewBox="0 0 17 17" height="17" width="17"><title>embassy-11.svg</title><path fill="none" d="M0 0h17v17H0z"/><path fill="rgba(255,255,255,0.75)" d="M8.5 5a4.07 4.07 0 0 0-2.41 1.06.36.36 0 0 0-.09.24v3.32a.34.34 0 0 0 .57.27 3.23 3.23 0 0 1 1.93-.67c1.11 0 1.35.78 2.5.78a3.08 3.08 0 0 0 1.83-.84.36.36 0 0 0 .17-.32V5.37a.35.35 0 0 0-.5-.37 3.13 3.13 0 0 1-1.5.67C9.85 5.67 9.65 5 8.5 5zm-4-.5a1 1 0 1 1 0 2 1 1 0 0 1 0-2zm.5 3v6a.5.5 0 0 1-1 0v-6a.5.5 0 0 1 1 0z" stroke="rgba(255,255,255,0.75)" stroke-width="2" stroke-linejoin="round"/><path fill="#735139" d="M8.5 5a4.07 4.07 0 0 0-2.41 1.06.36.36 0 0 0-.09.24v3.32a.34.34 0 0 0 .57.27 3.23 3.23 0 0 1 1.93-.67c1.11 0 1.35.78 2.5.78a3.08 3.08 0 0 0 1.83-.84.36.36 0 0 0 .17-.32V5.37a.35.35 0 0 0-.5-.37 3.13 3.13 0 0 1-1.5.67C9.85 5.67 9.65 5 8.5 5zm-4-.5a1 1 0 1 1 0 2 1 1 0 0 1 0-2zm.5 3v6a.5.5 0 0 1-1 0v-6a.5.5 0 0 1 1 0z"/></svg>
