<svg xmlns="http://www.w3.org/2000/svg" viewBox="0 0 21 21" height="21" width="21"><title>entrance-15.svg</title><path fill="none" d="M0 0h21v21H0z"/><path fill="rgba(255,255,255,0.75)" d="M10 9.5v-1a1 1 0 1 0-2 0v3l2-2zm-2.35 4.06L8 6a1 1 0 1 1 2 0 1 1 0 0 1-2 0l-.35 7.56z" stroke="rgba(255,255,255,0.75)" stroke-width="2" stroke-linejoin="round"/><path fill="rgba(255,255,255,0.75)" d="M17 9a1 1 0 0 1-1 1h-1.58a1 1 0 0 0-.71.29l-5.42 5.42a1 1 0 0 1-.7.29H5a1 1 0 1 1 0-2h1.59a1 1 0 0 0 .7-.29l5.42-5.42a1 1 0 0 1 .71-.29H16a1 1 0 0 1 1 1z" stroke="rgba(255,255,255,0.75)" stroke-width="2" stroke-linejoin="round"/><path fill="#475bcc" d="M10 9.5v-1a1 1 0 1 0-2 0v3l2-2zm-2.35 4.06L8 6a1 1 0 1 1 2 0 1 1 0 0 1-2 0l-.35 7.56z"/><path fill="#475bcc" d="M17 9a1 1 0 0 1-1 1h-1.58a1 1 0 0 0-.71.29l-5.42 5.42a1 1 0 0 1-.7.29H5a1 1 0 1 1 0-2h1.59a1 1 0 0 0 .7-.29l5.42-5.42a1 1 0 0 1 .71-.29H16a1 1 0 0 1 1 1z"/></svg>
