<svg xmlns="http://www.w3.org/2000/svg" viewBox="0 0 17 17" height="17" width="17"><title>entrance.svg</title><path fill="none" d="M0 0h17v17H0z"/><path fill="rgba(255,255,255,0.75)" d="M7 5.25a.75.75 0 1 1 1.5 0 .75.75 0 0 1-1.5 0zM12.27 7h-1.39a.73.73 0 0 0-.52.21l-4 4a.73.73 0 0 1-.51.21H4.73a.73.73 0 1 0 0 1.46h1.89a.73.73 0 0 0 .51-.21l4-4a.73.73 0 0 1 .48-.17h.66a.73.73 0 0 0 .73-.73.73.73 0 0 0-.73-.77zm-4.52-.5a.75.75 0 0 0-.75.75V9l1.5-1.5v-.25a.75.75 0 0 0-.75-.75z" stroke="rgba(255,255,255,0.75)" stroke-width="2" stroke-linejoin="round"/><path fill="#475dcc" d="M7 5.25a.75.75 0 1 1 1.5 0 .75.75 0 0 1-1.5 0zM12.27 7h-1.39a.73.73 0 0 0-.52.21l-4 4a.73.73 0 0 1-.51.21H4.73a.73.73 0 1 0 0 1.46h1.89a.73.73 0 0 0 .51-.21l4-4a.73.73 0 0 1 .48-.17h.66a.73.73 0 0 0 .73-.73.73.73 0 0 0-.73-.77zm-4.52-.5a.75.75 0 0 0-.75.75V9l1.5-1.5v-.25a.75.75 0 0 0-.75-.75z"/></svg>
