<svg xmlns="http://www.w3.org/2000/svg" viewBox="0 0 21 21" height="21" width="21"><title>fast-food-15.svg</title><path fill="none" d="M0 0h21v21H0z"/><path fill="rgba(255,255,255,0.75)" d="M17 11a1 1 0 0 1-1 1H5a1 1 0 1 1 0-2h11a1 1 0 0 1 1 1zM6.5 13H5a3 3 0 0 0 3 3h5a3 3 0 0 0 3-3H6.5zM6 9H5V7a2 2 0 0 1 2-2h7a2 2 0 0 1 2 2v2H6zm8-1.5a.5.5 0 1 0 1 0 .5.5 0 0 0-1 0zm-2-1a.5.5 0 1 0 1 0 .5.5 0 0 0-1 0zm-2 1a.5.5 0 1 0 1 0 .5.5 0 0 0-1 0zm-2-1a.5.5 0 1 0 1 0 .5.5 0 0 0-1 0zm-2 1a.5.5 0 1 0 1 0 .5.5 0 0 0-1 0z" stroke="rgba(255,255,255,0.75)" stroke-width="2" stroke-linejoin="round"/><path fill="#cc6529" d="M17 11a1 1 0 0 1-1 1H5a1 1 0 1 1 0-2h11a1 1 0 0 1 1 1zM6.5 13H5a3 3 0 0 0 3 3h5a3 3 0 0 0 3-3H6.5zM6 9H5V7a2 2 0 0 1 2-2h7a2 2 0 0 1 2 2v2H6zm8-1.5a.5.5 0 1 0 1 0 .5.5 0 0 0-1 0zm-2-1a.5.5 0 1 0 1 0 .5.5 0 0 0-1 0zm-2 1a.5.5 0 1 0 1 0 .5.5 0 0 0-1 0zm-2-1a.5.5 0 1 0 1 0 .5.5 0 0 0-1 0zm-2 1a.5.5 0 1 0 1 0 .5.5 0 0 0-1 0z"/></svg>
