<svg xmlns="http://www.w3.org/2000/svg" viewBox="0 0 17 17" height="17" width="17"><title>fast-food-11.svg</title><path fill="none" d="M0 0h17v17H0z"/><path fill="rgba(255,255,255,0.75)" d="M13 11a2 2 0 0 1-2 2H6a2 2 0 0 1-2-2h9zm0-3H4a1 1 0 1 0 0 2h9a1 1 0 1 0 0-2zm-1.45-4H5.46A1.46 1.46 0 0 0 4 5.46V7h9V5.47A1.46 1.46 0 0 0 11.55 4zm-5 2A.5.5 0 1 1 7 5.5a.5.5 0 0 1-.5.5h.05zm4 0a.5.5 0 1 1 .45-.5.5.5 0 0 1-.5.5h.05z" stroke="rgba(255,255,255,0.75)" stroke-width="2" stroke-linejoin="round"/><path fill="#cc6529" d="M13 11a2 2 0 0 1-2 2H6a2 2 0 0 1-2-2h9zm0-3H4a1 1 0 1 0 0 2h9a1 1 0 1 0 0-2zm-1.45-4H5.46A1.46 1.46 0 0 0 4 5.46V7h9V5.47A1.46 1.46 0 0 0 11.55 4zm-5 2A.5.5 0 1 1 7 5.5a.5.5 0 0 1-.5.5h.05zm4 0a.5.5 0 1 1 .45-.5.5.5 0 0 1-.5.5h.05z"/></svg>
