<svg xmlns="http://www.w3.org/2000/svg" viewBox="0 0 17 17" height="17" width="17"><title>fire-station-11.svg</title><path fill="none" d="M0 0h17v17H0z"/><path fill="rgba(255,255,255,0.75)" d="M8.5 3l-2 4L5 5c-.405.712-2 2.167-2 4 0 2.7 2.8 5 5.5 5S14 11.7 14 9c0-1.833-1.595-3.288-2-4l-1.5 2-2-4zm0 5.5s2 1.585 2 3c0 .611-.778 1.278-2 1.278s-2-.667-2-1.278c0-1.366 2-3 2-3z" stroke="rgba(255,255,255,0.75)" stroke-width="2" stroke-linejoin="round"/><path fill="#735139" d="M8.5 3l-2 4L5 5c-.405.712-2 2.167-2 4 0 2.7 2.8 5 5.5 5S14 11.7 14 9c0-1.833-1.595-3.288-2-4l-1.5 2-2-4zm0 5.5s2 1.585 2 3c0 .611-.778 1.278-2 1.278s-2-.667-2-1.278c0-1.366 2-3 2-3z"/></svg>
