<svg xmlns="http://www.w3.org/2000/svg" viewBox="0 0 21 21" height="21" width="21"><title>fire-station-15.svg</title><path fill="none" d="M0 0h21v21H0z"/><path fill="rgba(255,255,255,0.75)" d="M10.5 3.5L8 7.5l-1.5-2c-.555.975-2.696 3.292-2.696 5.804a6.696 6.696 0 1 0 13.392 0c0-2.512-2.141-4.829-2.696-5.804l-1.5 2-2.5-4zm0 6.5s2.5 2.562 2.5 4.5c0 .837-.826 2-2.5 2S8 15.337 8 14.5c0-1.872 2.5-4.5 2.5-4.5z" stroke="rgba(255,255,255,0.75)" stroke-width="2" stroke-linejoin="round"/><path fill="#735139" d="M10.5 3.5L8 7.5l-1.5-2c-.555.975-2.696 3.292-2.696 5.804a6.696 6.696 0 1 0 13.392 0c0-2.512-2.141-4.829-2.696-5.804l-1.5 2-2.5-4zm0 6.5s2.5 2.562 2.5 4.5c0 .837-.826 2-2.5 2S8 15.337 8 14.5c0-1.872 2.5-4.5 2.5-4.5z"/></svg>
