<svg xmlns="http://www.w3.org/2000/svg" viewBox="0 0 17 17" height="17" width="17"><title>fuel-11.svg</title><path fill="none" d="M0 0h17v17H0z"/><path fill="rgba(255,255,255,0.75)" d="M12.5 6H12V4.5a.5.5 0 0 0-1 0V6a1 1 0 0 0 1 1v4.25a.25.25 0 1 1-.5 0V9.5A1.5 1.5 0 0 0 10 8V5a1 1 0 0 0-1-1H5a1 1 0 0 0-1 1v7a1 1 0 0 0 1 1h4a1 1 0 0 0 1-1V9a.5.5 0 0 1 .5.5v1.75a1.25 1.25 0 1 0 2.5 0V6.5a.5.5 0 0 0-.5-.5zM9 7.5a.49.49 0 0 1-.48.5h-3A.51.51 0 0 1 5 7.5V6a.5.5 0 0 1 .5-.5h3A.5.5 0 0 1 9 6v1.5z" stroke="rgba(255,255,255,0.75)" stroke-width="2" stroke-linejoin="round"/><path fill="#735139" d="M12.5 6H12V4.5a.5.5 0 0 0-1 0V6a1 1 0 0 0 1 1v4.25a.25.25 0 1 1-.5 0V9.5A1.5 1.5 0 0 0 10 8V5a1 1 0 0 0-1-1H5a1 1 0 0 0-1 1v7a1 1 0 0 0 1 1h4a1 1 0 0 0 1-1V9a.5.5 0 0 1 .5.5v1.75a1.25 1.25 0 1 0 2.5 0V6.5a.5.5 0 0 0-.5-.5zM9 7.5a.49.49 0 0 1-.48.5h-3A.51.51 0 0 1 5 7.5V6a.5.5 0 0 1 .5-.5h3A.5.5 0 0 1 9 6v1.5z"/></svg>
