<svg xmlns="http://www.w3.org/2000/svg" viewBox="0 0 21 21" height="21" width="21"><title>fuel-15.svg</title><path fill="none" d="M0 0h21v21H0z"/><path fill="rgba(255,255,255,0.75)" d="M16 9v5.5a.5.5 0 0 1-1 0v-2a1.5 1.5 0 0 0-1.5-1.5H12V5a1 1 0 0 0-1-1H5a1 1 0 0 0-1 1v11a1 1 0 0 0 1 1h6a1 1 0 0 0 1-1v-4h1.5a.5.5 0 0 1 .5.5v2a1.5 1.5 0 0 0 3 0V8a1 1 0 0 0-1-1V5.49a.5.5 0 0 0-.5-.49.51.51 0 0 0-.5.55V8a1 1 0 1 0 1-1m-5 2.5a.5.5 0 0 1-.5.5h-5a.5.5 0 0 1-.5-.5v-3a.5.5 0 0 1 .5-.5h5a.5.5 0 0 1 .5.5v3z" stroke="rgba(255,255,255,0.75)" stroke-width="2" stroke-linejoin="round"/><path fill="#735139" d="M16 9v5.5a.5.5 0 0 1-1 0v-2a1.5 1.5 0 0 0-1.5-1.5H12V5a1 1 0 0 0-1-1H5a1 1 0 0 0-1 1v11a1 1 0 0 0 1 1h6a1 1 0 0 0 1-1v-4h1.5a.5.5 0 0 1 .5.5v2a1.5 1.5 0 0 0 3 0V8a1 1 0 0 0-1-1V5.49a.5.5 0 0 0-.5-.49.51.51 0 0 0-.5.55V8a1 1 0 1 0 1-1m-5 2.5a.5.5 0 0 1-.5.5h-5a.5.5 0 0 1-.5-.5v-3a.5.5 0 0 1 .5-.5h5a.5.5 0 0 1 .5.5v3z"/></svg>
