<svg xmlns="http://www.w3.org/2000/svg" viewBox="0 0 21 21" height="21" width="21"><title>garden-15.svg</title><path fill="none" d="M0 0h21v21H0z"/><path fill="rgba(255,255,255,0.75)" d="M16 11c0 3.31-2.19 6-5.5 6S5 14.31 5 11a5.33 5.33 0 0 1 5 3.61V10H7.5A1.5 1.5 0 0 1 6 8.5v-3a.5.5 0 0 1 .9-.3l1.53 2 1.65-3a.5.5 0 0 1 .84 0l1.65 3 1.53-2a.5.5 0 0 1 .9.3v3a1.5 1.5 0 0 1-1.5 1.5H11v4.61A5.33 5.33 0 0 1 16 11z" stroke="rgba(255,255,255,0.75)" stroke-width="2" stroke-linejoin="round"/><path fill="#268000" d="M16 11c0 3.31-2.19 6-5.5 6S5 14.31 5 11a5.33 5.33 0 0 1 5 3.61V10H7.5A1.5 1.5 0 0 1 6 8.5v-3a.5.5 0 0 1 .9-.3l1.53 2 1.65-3a.5.5 0 0 1 .84 0l1.65 3 1.53-2a.5.5 0 0 1 .9.3v3a1.5 1.5 0 0 1-1.5 1.5H11v4.61A5.33 5.33 0 0 1 16 11z"/></svg>
