<svg xmlns="http://www.w3.org/2000/svg" viewBox="0 0 17 17" height="17" width="17"><title>garden-11.svg</title><path fill="none" d="M0 0h17v17H0z"/><path fill="rgba(255,255,255,0.75)" d="M13 9a4 4 0 0 1-4.25 4A4 4 0 0 1 4.5 9a4 4 0 0 1 3.9 2.26V8h-2a.89.89 0 0 1-.9-.88V4.84a.35.35 0 0 1 .64-.21L7.28 6l1.17-2.33a.35.35 0 0 1 .6 0L10.22 6l1.13-1.38a.35.35 0 0 1 .65.21v2.28a.89.89 0 0 1-.89.89H9.1v3.26A4 4 0 0 1 13 9z" stroke="rgba(255,255,255,0.75)" stroke-width="2" stroke-linejoin="round"/><path fill="#268000" d="M13 9a4 4 0 0 1-4.25 4A4 4 0 0 1 4.5 9a4 4 0 0 1 3.9 2.26V8h-2a.89.89 0 0 1-.9-.88V4.84a.35.35 0 0 1 .64-.21L7.28 6l1.17-2.33a.35.35 0 0 1 .6 0L10.22 6l1.13-1.38a.35.35 0 0 1 .65.21v2.28a.89.89 0 0 1-.89.89H9.1v3.26A4 4 0 0 1 13 9z"/></svg>
