<svg xmlns="http://www.w3.org/2000/svg" width="74" height="16" viewBox="0 0 74 16"><title>gb-national-rail.london-overground.london-tfl-rail.london-underground</title><path d="M71.6 5.5a8 8 0 0 0-15.19 0H52.6a8 8 0 0 0-15.19 0H33.6a8 8 0 0 0-15.19 0H17V3a2 2 0 0 0-2-2H2a2 2 0 0 0-2 2v10a2 2 0 0 0 2 2h13a2 2 0 0 0 2-2v-2.5h1.4a8 8 0 0 0 15.19 0h3.81a8 8 0 0 0 15.19 0h3.81a8 8 0 0 0 15.19 0H74v-5h-2.4z" fill="#fff" opacity=".75"/><circle cx="26" cy="8" r="4" fill="#fff"/><path d="M26 1a7 7 0 1 0 7 7 7 7 0 0 0-7-7zm0 11a4 4 0 1 1 4-4 4 4 0 0 1-4 4z" fill="#ff8d40"/><path fill="#4862cc" d="M17 6.5h18v3H17z"/><rect x="1" y="2" width="15" height="12" rx="1" ry="1" fill="#f23d3d"/><path fill="#fff" d="M15 7V6h-3L7.26 4H5l4.67 2H2v1h7.67L5 9H2v1h3l4.67 2H12l-4.74-2H15V9H7.26L12 7h3z"/><circle cx="45" cy="8" r="4" fill="#fff"/><path d="M45 1a7 7 0 1 0 7 7 7 7 0 0 0-7-7zm0 11a4 4 0 1 1 4-4 4 4 0 0 1-4 4z" fill="#4862cc"/><path fill="#4862cc" d="M36 6.5h18v3H36z"/><circle cx="64" cy="8" r="4" fill="#fff"/><path d="M64 1a7 7 0 1 0 7 7 7 7 0 0 0-7-7zm0 11a4 4 0 1 1 4-4 4 4 0 0 1-4 4z" fill="#f23d3d"/><path fill="#4862cc" d="M55 6.5h18v3H55z"/></svg>
