<svg xmlns="http://www.w3.org/2000/svg" viewBox="0 0 17 17" height="17" width="17"><title>golf-11.svg</title><path fill="none" d="M0 0h17v17H0z"/><path fill="rgba(255,255,255,0.75)" d="M7.05 3.638c-.518.543.223 1.175.678.675l.496-.543 2.332 1.393L6.306 7.5c-.293.162-.341.44-.234.721l.889 2.317-.936 2.804c-.128.385.172.649.475.658a.468.468 0 0 0 .475-.341l.92-2.764.853-.283.252.505V13.5s0 .5.5.5.5-.5.5-.5v-2.383a.84.84 0 0 0-.064-.362l-1.281-3.34 2.552-1.404c.187-.08.29-.253.29-.511 0-.226-.217-.413-.456-.556L7.905 3.071c-.16-.096-.275-.043-.323.007l-.533.56zM6 5a1 1 0 1 0 0 2 1 1 0 0 0 0-2z" stroke="rgba(255,255,255,0.75)" stroke-width="2" stroke-linejoin="round"/><path fill="#268000" d="M7.05 3.638c-.518.543.223 1.175.678.675l.496-.543 2.332 1.393L6.306 7.5c-.293.162-.341.44-.234.721l.889 2.317-.936 2.804c-.128.385.172.649.475.658a.468.468 0 0 0 .475-.341l.92-2.764.853-.283.252.505V13.5s0 .5.5.5.5-.5.5-.5v-2.383a.84.84 0 0 0-.064-.362l-1.281-3.34 2.552-1.404c.187-.08.29-.253.29-.511 0-.226-.217-.413-.456-.556L7.905 3.071c-.16-.096-.275-.043-.323.007l-.533.56zM6 5a1 1 0 1 0 0 2 1 1 0 0 0 0-2z"/></svg>
