<svg xmlns="http://www.w3.org/2000/svg" viewBox="0 0 21 21" height="21" width="21"><title>golf-15.svg</title><path fill="none" d="M0 0h21v21H0z"/><path fill="rgba(255,255,255,0.75)" d="M6.4 4.1v.2c0 .4.3.7.7.7.3 0 .5-.2.6-.5l.2-.5 5.6 2.3L9.6 9c-.4.3-.4.7-.3 1.1l.9 2.1-1.3 3.9c-.2.5.2.9.6.9.3 0 .5-.1.6-.5l1.4-4 .1.3v3.5s0 .7.7.7.7-.7.7-.7V13c0-.2 0-.3-.1-.5l-1.4-3.4 2.7-1.9c.2-.2.4-.3.4-.6s-.2-.5-.4-.6L7 3.1c-.088 0-.118.018-.2.1l-.4.9zM8.5 6C7.7 6 7 6.7 7 7.5S7.7 9 8.5 9 10 8.3 10 7.5 9.3 6 8.5 6z" stroke="rgba(255,255,255,0.75)" stroke-width="2" stroke-linejoin="round"/><path fill="#268000" d="M6.4 4.1v.2c0 .4.3.7.7.7.3 0 .5-.2.6-.5l.2-.5 5.6 2.3L9.6 9c-.4.3-.4.7-.3 1.1l.9 2.1-1.3 3.9c-.2.5.2.9.6.9.3 0 .5-.1.6-.5l1.4-4 .1.3v3.5s0 .7.7.7.7-.7.7-.7V13c0-.2 0-.3-.1-.5l-1.4-3.4 2.7-1.9c.2-.2.4-.3.4-.6s-.2-.5-.4-.6L7 3.1c-.088 0-.118.018-.2.1l-.4.9zM8.5 6C7.7 6 7 6.7 7 7.5S7.7 9 8.5 9 10 8.3 10 7.5 9.3 6 8.5 6z"/></svg>
