<svg xmlns="http://www.w3.org/2000/svg" width="34" height="16" viewBox="0 0 34 16"><title>gr-motorway</title><path d="M2.92 13.49A2.62 2.62 0 0 1 .5 11V5A2.63 2.63 0 0 1 3 2.5l13.75-2 14.33 2A2.62 2.62 0 0 1 33.5 5v6a2.63 2.63 0 0 1-2.5 2.5l-14.25 2z" fill="#63a67a"/><path d="M16.75 1L31 3a2.15 2.15 0 0 1 2 2v6a2.15 2.15 0 0 1-2 2l-14.25 2L3 13a2.15 2.15 0 0 1-2-2V5a2.15 2.15 0 0 1 2-2l13.75-2m0-1h-.14L2.92 2A3.17 3.17 0 0 0 0 5v6a3.17 3.17 0 0 0 2.92 3l13.69 2h.28l14.19-2A3.17 3.17 0 0 0 34 11V5a3.17 3.17 0 0 0-2.92-3L16.89 0h-.14z" fill="#fff"/><path d="M2.92 13.49A2.62 2.62 0 0 1 .5 11V5A2.63 2.63 0 0 1 3 2.5l13.75-2 14.33 2A2.62 2.62 0 0 1 33.5 5v6a2.63 2.63 0 0 1-2.5 2.5l-14.25 2z" fill="#63a67a"/><path d="M16.75 1L31 3a2.15 2.15 0 0 1 2 2v6a2.15 2.15 0 0 1-2 2l-14.25 2L3 13a2.15 2.15 0 0 1-2-2V5a2.15 2.15 0 0 1 2-2l13.75-2m0-1h-.14L2.92 2A3.17 3.17 0 0 0 0 5v6a3.17 3.17 0 0 0 2.92 3l13.69 2h.28l14.19-2A3.17 3.17 0 0 0 34 11V5a3.17 3.17 0 0 0-2.92-3L16.89 0h-.14z" fill="#fff"/></svg>
