<svg xmlns="http://www.w3.org/2000/svg" width="22" height="16" viewBox="0 0 22 16"><title>gr-motorway</title><path d="M2.93 13.52A2.64 2.64 0 0 1 .5 11V5a2.64 2.64 0 0 1 2.43-2.5L11 .5l8.08 2A2.64 2.64 0 0 1 21.5 5v6a2.64 2.64 0 0 1-2.43 2.5l-8.08 2z" fill="#63a67a"/><path d="M11 1l8 2a2.15 2.15 0 0 1 2 2v6a2.15 2.15 0 0 1-2 2l-8 2-8-2a2.15 2.15 0 0 1-2-2V5a2.15 2.15 0 0 1 2-2l8-2m0-1h-.25L2.86 2A3.17 3.17 0 0 0 0 5v6a3.17 3.17 0 0 0 2.86 3l7.89 2h.48l7.91-2A3.17 3.17 0 0 0 22 11V5a3.17 3.17 0 0 0-2.86-3l-7.91-2H11z" fill="#fff"/><path d="M2.93 13.52A2.64 2.64 0 0 1 .5 11V5a2.64 2.64 0 0 1 2.43-2.5L11 .5l8.08 2A2.64 2.64 0 0 1 21.5 5v6a2.64 2.64 0 0 1-2.43 2.5l-8.08 2z" fill="#63a67a"/><path d="M11 1l8 2a2.15 2.15 0 0 1 2 2v6a2.15 2.15 0 0 1-2 2l-8 2-8-2a2.15 2.15 0 0 1-2-2V5a2.15 2.15 0 0 1 2-2l8-2m0-1h-.25L2.86 2A3.17 3.17 0 0 0 0 5v6a3.17 3.17 0 0 0 2.86 3l7.89 2h.48l7.91-2A3.17 3.17 0 0 0 22 11V5a3.17 3.17 0 0 0-2.86-3l-7.91-2H11z" fill="#fff"/></svg>
