<svg xmlns="http://www.w3.org/2000/svg" viewBox="0 0 17 17" height="17" width="17"><title>grocery-11.svg</title><path fill="none" d="M0 0h17v17H0z"/><path fill="rgba(255,255,255,0.75)" d="M12.75 4.5c-.004 0-.318-.006-.63.188-.316.194-.62.613-.62 1.312H4l.75 3.5c.107.5.75.5.75.5h6s-.003.247-.152.496S10.93 11 10.25 11H5c-.338-.005-.338.505 0 .5h5.25c.82 0 1.302-.37 1.527-.746C12.003 10.378 12 10 12 10V6c0-.567.196-.772.38-.887.186-.114.366-.113.366-.113h.504c.338.005.338-.505 0-.5h-.5zm-2.5 7a.75.75 0 1 0 0 1.5.75.75 0 0 0 0-1.5zm-4 0a.75.75 0 1 0 0 1.5.75.75 0 0 0 0-1.5z" stroke="rgba(255,255,255,0.75)" stroke-width="2" stroke-linejoin="round"/><path fill="#735139" d="M12.75 4.5c-.004 0-.318-.006-.63.188-.316.194-.62.613-.62 1.312H4l.75 3.5c.107.5.75.5.75.5h6s-.003.247-.152.496S10.93 11 10.25 11H5c-.338-.005-.338.505 0 .5h5.25c.82 0 1.302-.37 1.527-.746C12.003 10.378 12 10 12 10V6c0-.567.196-.772.38-.887.186-.114.366-.113.366-.113h.504c.338.005.338-.505 0-.5h-.5zm-2.5 7a.75.75 0 1 0 0 1.5.75.75 0 0 0 0-1.5zm-4 0a.75.75 0 1 0 0 1.5.75.75 0 0 0 0-1.5z"/></svg>
