<svg xmlns="http://www.w3.org/2000/svg" viewBox="0 0 21 21" height="21" width="21"><title>grocery-15.svg</title><path fill="none" d="M0 0h21v21H0z"/><path fill="rgba(255,255,255,0.75)" d="M6.2 17c0 .6.4 1 1 1s1-.4 1-1-.4-1-1-1-1 .4-1 1zm5 0c0 .6.4 1 1 1s1-.4 1-1-.4-1-1-1-1 .4-1 1zm5.05-12.5h-.05s-1.392-.041-1.947.5c-.534.52-.753.918-.753 2H4.2l1.394 4.814c.003.007.01.014.014.021.234.657.846 1.13 1.577 1.158L7.2 13h6.5v.2s0 .3-.2.7-.3.6-1.1.6H5.9c-1 0-1 1.5 0 1.5h6.4c1.2 0 2.1-.7 2.4-1.4.3-.7.3-1.3.3-1.3V7c0-.524.23-1 .7-1h.55a.75.75 0 0 0 0-1.5z" stroke="rgba(255,255,255,0.75)" stroke-width="2" stroke-linejoin="round"/><path fill="#735139" d="M6.2 17c0 .6.4 1 1 1s1-.4 1-1-.4-1-1-1-1 .4-1 1zm5 0c0 .6.4 1 1 1s1-.4 1-1-.4-1-1-1-1 .4-1 1zm5.05-12.5h-.05s-1.392-.041-1.947.5c-.534.52-.753.918-.753 2H4.2l1.394 4.814c.003.007.01.014.014.021.234.657.846 1.13 1.577 1.158L7.2 13h6.5v.2s0 .3-.2.7-.3.6-1.1.6H5.9c-1 0-1 1.5 0 1.5h6.4c1.2 0 2.1-.7 2.4-1.4.3-.7.3-1.3.3-1.3V7c0-.524.23-1 .7-1h.55a.75.75 0 0 0 0-1.5z"/></svg>
