<svg xmlns="http://www.w3.org/2000/svg" viewBox="0 0 21 21" height="21" width="21"><title>harbor-15.svg</title><path fill="none" d="M0 0h21v21H0z"/><path fill="rgba(255,255,255,0.75)" d="M10.5 3C8.5 3 7 4.567 7 6.5a3.492 3.492 0 0 0 2.5 3.338v6.039c-.93-.165-1.875-.55-2.648-1.27-1.053-.98-1.85-2.54-1.85-5.109a1 1 0 1 0-2.002 0c0 3.003 1.012 5.196 2.49 6.572C6.968 17.447 8.838 18 10.5 18c1.666 0 3.535-.56 5.012-1.94s2.486-3.573 2.486-6.562c.065-1.395-2.063-1.395-1.998 0 0 2.553-.8 4.115-1.854 5.1-.773.722-1.717 1.11-2.646 1.277V9.842A3.494 3.494 0 0 0 14 6.5C14 4.567 12.5 3 10.5 3zm0 2a1.5 1.5 0 1 1 0 3 1.5 1.5 0 0 1 0-3z" stroke="rgba(255,255,255,0.75)" stroke-width="2" stroke-linejoin="round"/><path fill="#735139" d="M10.5 3C8.5 3 7 4.567 7 6.5a3.492 3.492 0 0 0 2.5 3.338v6.039c-.93-.165-1.875-.55-2.648-1.27-1.053-.98-1.85-2.54-1.85-5.109a1 1 0 1 0-2.002 0c0 3.003 1.012 5.196 2.49 6.572C6.968 17.447 8.838 18 10.5 18c1.666 0 3.535-.56 5.012-1.94s2.486-3.573 2.486-6.562c.065-1.395-2.063-1.395-1.998 0 0 2.553-.8 4.115-1.854 5.1-.773.722-1.717 1.11-2.646 1.277V9.842A3.494 3.494 0 0 0 14 6.5C14 4.567 12.5 3 10.5 3zm0 2a1.5 1.5 0 1 1 0 3 1.5 1.5 0 0 1 0-3z"/></svg>
