<svg xmlns="http://www.w3.org/2000/svg" viewBox="0 0 17 17" height="17" width="17"><title>harbor-11.svg</title><path fill="none" d="M0 0h17v17H0z"/><path fill="rgba(255,255,255,0.75)" d="M8.5 3A2.5 2.5 0 0 0 6 5.5a2.493 2.493 0 0 0 1.75 2.371v4.545c-.659-.115-1.338-.375-1.893-.857C5.09 10.89 4.5 9.829 4.5 8A.75.75 0 1 0 3 8c0 2.17.773 3.735 1.873 4.691S7.333 14 8.5 14s2.527-.352 3.627-1.309S14 10.171 14 8c.014-1.014-1.514-1.014-1.5 0 0 1.83-.589 2.89-1.357 3.559-.555.482-1.234.742-1.893.857V7.875A2.494 2.494 0 0 0 8.5 3zm0 1.5a1 1 0 1 1 0 2 1 1 0 0 1 0-2z" stroke="rgba(255,255,255,0.75)" stroke-width="2" stroke-linejoin="round"/><path fill="#735139" d="M8.5 3A2.5 2.5 0 0 0 6 5.5a2.493 2.493 0 0 0 1.75 2.371v4.545c-.659-.115-1.338-.375-1.893-.857C5.09 10.89 4.5 9.829 4.5 8A.75.75 0 1 0 3 8c0 2.17.773 3.735 1.873 4.691S7.333 14 8.5 14s2.527-.352 3.627-1.309S14 10.171 14 8c.014-1.014-1.514-1.014-1.5 0 0 1.83-.589 2.89-1.357 3.559-.555.482-1.234.742-1.893.857V7.875A2.494 2.494 0 0 0 8.5 3zm0 1.5a1 1 0 1 1 0 2 1 1 0 0 1 0-2z"/></svg>
