<svg xmlns="http://www.w3.org/2000/svg" viewBox="0 0 17 17" height="17" width="17"><title>heliport-11.svg</title><path fill="none" d="M0 0h17v17H0z"/><path fill="rgba(255,255,255,0.75)" d="M6 4c-.277 0-.5.223-.5.5s.224.482.5.5h3v2H5.912a1.5 1.5 0 1 0-.39 1.596L7.5 11.5c.681 1 1.5 1 2 1h3.535s.965 0 .965-1v-1c0-.5-.5-1-.5-1l-2-2s-.5-.5-1-.5H10V5h3a.499.499 0 1 0 0-1H6zM4.5 7a.5.5 0 1 1 0 1 .5.5 0 0 1 0-1zm6.25 1s.25 0 .75.5L13 10h-2.5s-.5 0-.5-.5v-1s0-.5.5-.5h.25z" stroke="rgba(255,255,255,0.75)" stroke-width="2" stroke-linejoin="round"/><path fill="#475bcc" d="M6 4c-.277 0-.5.223-.5.5s.224.482.5.5h3v2H5.912a1.5 1.5 0 1 0-.39 1.596L7.5 11.5c.681 1 1.5 1 2 1h3.535s.965 0 .965-1v-1c0-.5-.5-1-.5-1l-2-2s-.5-.5-1-.5H10V5h3a.499.499 0 1 0 0-1H6zM4.5 7a.5.5 0 1 1 0 1 .5.5 0 0 1 0-1zm6.25 1s.25 0 .75.5L13 10h-2.5s-.5 0-.5-.5v-1s0-.5.5-.5h.25z"/></svg>
