<svg xmlns="http://www.w3.org/2000/svg" viewBox="0 0 21 21" height="21" width="21"><title>heliport-15.svg</title><path fill="none" d="M0 0h21v21H0z"/><path fill="rgba(255,255,255,0.75)" d="M7 5C6 5 6 6 7 6h4v1c-.277 0-.5.223-.5.5V8H6.932A1.998 1.998 0 0 0 3 8.5a2 2 0 0 0 2 2 2 2 0 0 0 1.053-.303L8.5 13.5C9.507 14.95 11.318 15 12 15h5s1 0 1-1v-.994c0-.733-.126-1.132-.5-1.506l-3-3s-.592-.5-1.273-.5H12.5v-.5c0-.277-.223-.5-.5-.5V6h4c1 0 1-1 0-1H7zM5 7.5a1 1 0 1 1 0 2 1 1 0 0 1 0-2zM13 9c.5 0 .79.323 1 .5l2.5 2.5H13s-1 0-1-1v-1s0-1 1-1z" stroke="rgba(255,255,255,0.75)" stroke-width="2" stroke-linejoin="round"/><path fill="#475bcc" d="M7 5C6 5 6 6 7 6h4v1c-.277 0-.5.223-.5.5V8H6.932A1.998 1.998 0 0 0 3 8.5a2 2 0 0 0 2 2 2 2 0 0 0 1.053-.303L8.5 13.5C9.507 14.95 11.318 15 12 15h5s1 0 1-1v-.994c0-.733-.126-1.132-.5-1.506l-3-3s-.592-.5-1.273-.5H12.5v-.5c0-.277-.223-.5-.5-.5V6h4c1 0 1-1 0-1H7zM5 7.5a1 1 0 1 1 0 2 1 1 0 0 1 0-2zM13 9c.5 0 .79.323 1 .5l2.5 2.5H13s-1 0-1-1v-1s0-1 1-1z"/></svg>
