<svg xmlns="http://www.w3.org/2000/svg" width="19" height="17" viewBox="0 0 19 17"><title>hong-kong-mtr</title><path fill="none" d="M0 0h19v17H0z"/><path d="M9.5 17a10.27 10.27 0 0 1-7.29-2.89A7.28 7.28 0 0 1 0 9c0-4.41 4.26-8 9.48-8a10.42 10.42 0 0 1 6.72 2.32A7.37 7.37 0 0 1 19 9c0 4.42-4.27 8-9.5 8z" fill="#fff" opacity=".75"/><path d="M9.52 2C14.21 2 18 5.16 18 9s-3.83 7-8.52 7S1 12.85 1 9s3.8-7 8.48-7z" fill="#f23d3d"/><path d="M14 14h-1.5a2.28 2.28 0 0 0-2.25-2.5v2.75h-1.5V11.5A2.27 2.27 0 0 0 6.5 14H5a4.09 4.09 0 0 1 3.75-4V8A3.89 3.89 0 0 1 5 4h1.5a2.27 2.27 0 0 0 2.25 2.5V3.75h1.5V6.5A2.26 2.26 0 0 0 12.5 4H14a3.88 3.88 0 0 1-3.75 4v2A4.1 4.1 0 0 1 14 14z" fill="#fff"/></svg>
