<svg xmlns="http://www.w3.org/2000/svg" viewBox="0 0 17 17" height="17" width="17"><title>hospital-11.svg</title><path fill="none" d="M0 0h17v17H0z"/><path fill="rgba(255,255,255,0.75)" d="M13 7h-3V4a1.08 1.08 0 0 0-1-1H8a1.08 1.08 0 0 0-1 1v3H4a1.08 1.08 0 0 0-1 1v1a1.08 1.08 0 0 0 1 1h3v3a1.08 1.08 0 0 0 1 1h1a1.08 1.08 0 0 0 1-1v-3h3a1.08 1.08 0 0 0 1-1V8a1 1 0 0 0-1-1z" stroke="rgba(255,255,255,0.75)" stroke-width="2" stroke-linejoin="round"/><path fill="#b35071" d="M13 7h-3V4a1.08 1.08 0 0 0-1-1H8a1.08 1.08 0 0 0-1 1v3H4a1.08 1.08 0 0 0-1 1v1a1.08 1.08 0 0 0 1 1h3v3a1.08 1.08 0 0 0 1 1h1a1.08 1.08 0 0 0 1-1v-3h3a1.08 1.08 0 0 0 1-1V8a1 1 0 0 0-1-1z"/></svg>
