<svg xmlns="http://www.w3.org/2000/svg" viewBox="0 0 21 21" height="21" width="21"><title>hospital-15.svg</title><path fill="none" d="M0 0h21v21H0z"/><path fill="rgba(255,255,255,0.75)" d="M10 4c-.6 0-1 .4-1 1v4H5c-.6 0-1 .4-1 1v1c0 .6.4 1 1 1h4v4c0 .6.4 1 1 1h1c.6 0 1-.4 1-1v-4h4c.6 0 1-.4 1-1v-1c0-.6-.4-1-1-1h-4V5c0-.6-.4-1-1-1h-1z" stroke="rgba(255,255,255,0.75)" stroke-width="2" stroke-linejoin="round"/><path fill="#b35071" d="M10 4c-.6 0-1 .4-1 1v4H5c-.6 0-1 .4-1 1v1c0 .6.4 1 1 1h4v4c0 .6.4 1 1 1h1c.6 0 1-.4 1-1v-4h4c.6 0 1-.4 1-1v-1c0-.6-.4-1-1-1h-4V5c0-.6-.4-1-1-1h-1z"/></svg>
