<svg xmlns="http://www.w3.org/2000/svg" width="28" height="16" viewBox="0 0 28 16"><title>hr-motorway</title><path d="M2.9 13.49A2.61 2.61 0 0 1 .5 11V5A2.63 2.63 0 0 1 3 2.5l11-2 11.1 2A2.61 2.61 0 0 1 27.5 5v6a2.63 2.63 0 0 1-2.5 2.5l-11 2z" fill="#63a67a"/><path d="M14 1l11 2a2.15 2.15 0 0 1 2 2v6a2.15 2.15 0 0 1-2 2l-11 2-11-2a2.15 2.15 0 0 1-2-2V5a2.15 2.15 0 0 1 2-2l11-2m0-1h-.18L2.9 2A3.17 3.17 0 0 0 0 5v6a3.17 3.17 0 0 0 2.9 3l10.92 2h.36l10.92-2a3.17 3.17 0 0 0 2.9-3V5a3.17 3.17 0 0 0-2.9-3L14.18 0H14z" fill="#fff"/><path d="M2.9 13.49A2.61 2.61 0 0 1 .5 11V5A2.63 2.63 0 0 1 3 2.5l11-2 11.1 2A2.61 2.61 0 0 1 27.5 5v6a2.63 2.63 0 0 1-2.5 2.5l-11 2z" fill="#63a67a"/><path d="M14 1l11 2a2.15 2.15 0 0 1 2 2v6a2.15 2.15 0 0 1-2 2l-11 2-11-2a2.15 2.15 0 0 1-2-2V5a2.15 2.15 0 0 1 2-2l11-2m0-1h-.18L2.9 2A3.17 3.17 0 0 0 0 5v6a3.17 3.17 0 0 0 2.9 3l10.92 2h.36l10.92-2a3.17 3.17 0 0 0 2.9-3V5a3.17 3.17 0 0 0-2.9-3L14.18 0H14z" fill="#fff"/></svg>
