<svg xmlns="http://www.w3.org/2000/svg" width="26" height="20" viewBox="0 0 26 20"><title>hu-motorway</title><path fill="none" d="M0 0h26v20H0z"/><path d="M13 19.5h-.13c-.34-.09-8.43-2.28-10.08-3A3.43 3.43 0 0 1 .5 13V3a.5.5 0 0 1 .5-.5h24a.5.5 0 0 1 .5.5v10a3.43 3.43 0 0 1-2.29 3.46c-1.65.75-9.73 2.94-10.08 3z" fill="#6979bf"/><path d="M25 3v10a3 3 0 0 1-2 3c-1.63.74-10 3-10 3s-8.37-2.26-10-3a3 3 0 0 1-2-3V3h24m0-1H1a1 1 0 0 0-1 1v10a4 4 0 0 0 2.59 3.91c1.66.76 9.29 2.82 10.15 3.06a1 1 0 0 0 .52 0c.86-.23 8.5-2.3 10.15-3.06A4 4 0 0 0 26 13V3a1 1 0 0 0-1-1z" fill="#fff"/></svg>
