<svg xmlns="http://www.w3.org/2000/svg" width="38" height="20" viewBox="0 0 38 20"><title>hu-main</title><path fill="none" d="M0 0h38v20H0z"/><path d="M18.92 19.49c-1.48-.23-14.48-2.29-16.13-3A3.43 3.43 0 0 1 .5 13V3a.5.5 0 0 1 .5-.5h36a.5.5 0 0 1 .5.5v10a3.43 3.43 0 0 1-2.29 3.46c-1.65.75-14.65 2.81-16.13 3h-.16z" fill="#63a67a"/><path d="M37 3v10a3 3 0 0 1-2 3c-1.63.74-16 3-16 3S4.63 16.74 3 16a3 3 0 0 1-2-3V3h36m0-1H1a1 1 0 0 0-1 1v10a4 4 0 0 0 2.59 3.91c1.67.76 13.84 2.7 16.26 3.08h.31c2.42-.38 14.59-2.32 16.26-3.08A4 4 0 0 0 38 13V3a1 1 0 0 0-1-1z" fill="#fff"/></svg>
