<svg xmlns="http://www.w3.org/2000/svg" width="32" height="20" viewBox="0 0 32 20"><title>hu-main</title><path fill="none" d="M0 0h32v20H0z"/><path d="M16 19.5h-.1c-.47-.09-11.44-2.28-13.11-3A3.43 3.43 0 0 1 .5 13V3a.5.5 0 0 1 .5-.5h30a.5.5 0 0 1 .5.5v10a3.43 3.43 0 0 1-2.29 3.46c-1.67.76-12.64 2.94-13.11 3H16z" fill="#63a67a"/><path d="M31 3v10a3 3 0 0 1-2 3c-1.63.74-13 3-13 3S4.63 16.74 3 16a3 3 0 0 1-2-3V3h30m0-1H1a1 1 0 0 0-1 1v10a4 4 0 0 0 2.59 3.91c1.69.77 12 2.84 13.22 3.07L16 20h.19c1.18-.23 11.53-2.3 13.22-3.07A4 4 0 0 0 32 13V3a1 1 0 0 0-1-1z" fill="#fff"/></svg>
