<svg xmlns="http://www.w3.org/2000/svg" width="20" height="20" viewBox="0 0 20 20"><title>hu-motorway</title><path fill="none" d="M0 0h20v20H0z"/><path d="M10 19.5a.5.5 0 0 1-.19 0c-.05 0-5.39-2.27-7-3A3.43 3.43 0 0 1 .5 13V3a.5.5 0 0 1 .5-.5h18a.5.5 0 0 1 .5.5v10a3.43 3.43 0 0 1-2.29 3.46c-1.62.74-7 3-7 3a.5.5 0 0 1-.21.04z" fill="#6979bf"/><path d="M19 3v10a3 3 0 0 1-2 3c-1.63.74-7 3-7 3s-5.37-2.26-7-3a3 3 0 0 1-2-3V3h18m0-1H1a1 1 0 0 0-1 1v10a4 4 0 0 0 2.59 3.91c1.63.74 6.81 2.92 7 3a1 1 0 0 0 .77 0c.22-.09 5.4-2.27 7-3A4 4 0 0 0 20 13V3a1 1 0 0 0-1-1z" fill="#fff"/></svg>
