<svg xmlns="http://www.w3.org/2000/svg" viewBox="0 0 17 17" height="17" width="17"><title>ice-cream-11.svg</title><path fill="none" d="M0 0h17v17H0z"/><path fill="rgba(255,255,255,0.75)" d="M7 9a2.49 2.49 0 0 0 1.5-.5c.432.325.959.5 1.5.5l-1 4.69a.5.5 0 0 1-.92 0L7 9zm3-4h-.09a1.5 1.5 0 1 0-2.82 0H7a1.5 1.5 0 1 0 1.5 1.5A1.5 1.5 0 1 0 10 5z" stroke="rgba(255,255,255,0.75)" stroke-width="2" stroke-linejoin="round"/><path fill="#cc6529" d="M7 9a2.49 2.49 0 0 0 1.5-.5c.432.325.959.5 1.5.5l-1 4.69a.5.5 0 0 1-.92 0L7 9zm3-4h-.09a1.5 1.5 0 1 0-2.82 0H7a1.5 1.5 0 1 0 1.5 1.5A1.5 1.5 0 1 0 10 5z"/></svg>
