<svg xmlns="http://www.w3.org/2000/svg" viewBox="0 0 21 21" height="21" width="21"><title>ice-cream-15.svg</title><path fill="none" d="M0 0h21v21H0z"/><path fill="rgba(255,255,255,0.75)" d="M8.44 11.17a3.48 3.48 0 0 0 2-.63c.464.323 1 .53 1.56.6h.44L11 16.7a.5.5 0 0 1-.92 0l-1.64-5.53zM14.44 7.67a2 2 0 1 1-4 0 2 2 0 1 1-2-2h.12a2 2 0 1 1 3.75 0h.13a2 2 0 0 1 2 2z" stroke="rgba(255,255,255,0.75)" stroke-width="2" stroke-linejoin="round"/><path fill="#cc6529" d="M8.44 11.17a3.48 3.48 0 0 0 2-.63c.464.323 1 .53 1.56.6h.44L11 16.7a.5.5 0 0 1-.92 0l-1.64-5.53zM14.44 7.67a2 2 0 1 1-4 0 2 2 0 1 1-2-2h.12a2 2 0 1 1 3.75 0h.13a2 2 0 0 1 2 2z"/></svg>
