<svg xmlns="http://www.w3.org/2000/svg" width="20" height="22" viewBox="0 0 20 22"><title>in-national</title><path d="M10 21.5C7.87 21.5.5 17.4.5 13V3a.5.5 0 0 1 .5-.5h6c.85 0 1.91-1 2.63-1.84A.5.5 0 0 1 10 .5a.5.5 0 0 1 .37.16c.89 1 1.76 1.84 2.63 1.84h6a.5.5 0 0 1 .5.5v10c0 4.4-7.37 8.5-9.5 8.5z" fill="#f2df85"/><path d="M10 1c1 1 1.92 2 3 2h6v10c0 4-7 8-9 8s-9-4-9-8V3h6c1 0 2.08-1 3-2m0-1a1 1 0 0 0-.74.32C8 1.71 7.33 2 7 2H1a1 1 0 0 0-1 1v10c0 2.78 2.59 5.13 4.14 6.28C6.21 20.87 8.68 22 10 22s3.74-1.13 5.83-2.68C17.39 18.17 20 15.81 20 13V3a1 1 0 0 0-1-1h-6c-.67 0-1.48-.83-2.26-1.68A1 1 0 0 0 10 0z" fill="#5b648c"/></svg>
