<svg xmlns="http://www.w3.org/2000/svg" width="24" height="22" viewBox="0 0 24 22"><title>in-national</title><path d="M12 21.5C9.88 21.5.5 17.49.5 13V3a.5.5 0 0 1 .5-.5h8c.85 0 1.91-1 2.63-1.84A.5.5 0 0 1 12 .5a.5.5 0 0 1 .37.16c.89 1 1.76 1.84 2.63 1.84h8a.5.5 0 0 1 .5.5v10c0 4.49-9.38 8.5-11.5 8.5z" fill="#f2df85"/><path d="M12 1c1 1 1.92 2 3 2h8v10c0 4-9 8-11 8S1 17 1 13V3h8c1 0 2.08-1 3-2m0-1a1 1 0 0 0-.74.32C10 1.71 9.33 2 9 2H1a1 1 0 0 0-1 1v10c0 4.83 9.72 9 12 9s12-4.13 12-9V3a1 1 0 0 0-1-1h-8c-.67 0-1.48-.83-2.26-1.68A1 1 0 0 0 12 0z" fill="#5b648c"/></svg>
