<svg xmlns="http://www.w3.org/2000/svg" width="16" height="22" viewBox="0 0 16 22"><title>in-national</title><path d="M8 21.5C5.64 21.5.5 17.25.5 13V3a.5.5 0 0 1 .5-.5h4c.85 0 1.91-1 2.63-1.84A.5.5 0 0 1 8 .5a.5.5 0 0 1 .37.16c.89.97 1.76 1.84 2.63 1.84h4a.5.5 0 0 1 .5.5v10c0 4.25-5.14 8.5-7.5 8.5z" fill="#f2df85"/><path d="M8 1c1 1 1.92 2 3 2h4v10c0 4-5 8-7 8s-7-4-7-8V3h4c1 0 2.08-1 3-2m0-1a1 1 0 0 0-.74.32C6 1.71 5.33 2 5 2H1a1 1 0 0 0-1 1v10c0 4.35 5.2 9 8 9 2.5 0 8-4.33 8-9V3a1 1 0 0 0-1-1h-4c-.67 0-1.48-.83-2.26-1.68A1 1 0 0 0 8 0z" fill="#5b648c"/></svg>
