<svg xmlns="http://www.w3.org/2000/svg" viewBox="0 0 21 21" height="21" width="21"><title>information-15.svg</title><path fill="none" d="M0 0h21v21H0z"/><path fill="rgba(255,255,255,0.75)" d="M10.5 4C9.7 4 9 4.7 9 5.5S9.7 7 10.5 7 12 6.3 12 5.5 11.3 4 10.5 4zM7 8v1s2 0 2 2v2c0 2-2 2-2 2v1h7v-1s-2 0-2-2V9c0-.5-.5-1-1-1H7z" stroke="rgba(255,255,255,0.75)" stroke-width="2" stroke-linejoin="round"/><path fill="#735139" d="M10.5 4C9.7 4 9 4.7 9 5.5S9.7 7 10.5 7 12 6.3 12 5.5 11.3 4 10.5 4zM7 8v1s2 0 2 2v2c0 2-2 2-2 2v1h7v-1s-2 0-2-2V9c0-.5-.5-1-1-1H7z"/></svg>
