<svg xmlns="http://www.w3.org/2000/svg" viewBox="0 0 17 17" height="17" width="17"><title>information-11.svg</title><path fill="none" d="M0 0h17v17H0z"/><path fill="rgba(255,255,255,0.75)" d="M8.599 3.94c-.6 0-1.1.5-1.1 1.1s.5 1.1 1.1 1.1 1.1-.5 1.1-1.1-.5-1.1-1.1-1.1zM6 7l-.001.74S7.5 7.634 7.5 9v1.5c0 1.5-1.501 1.74-1.501 1.74L6 13h5.2l-.001-.76s-1.2 0-1.2-1.5L10 8s0-1-1-1H6z" stroke="rgba(255,255,255,0.75)" stroke-width="2" stroke-linejoin="round"/><path fill="#735139" d="M8.599 3.94c-.6 0-1.1.5-1.1 1.1s.5 1.1 1.1 1.1 1.1-.5 1.1-1.1-.5-1.1-1.1-1.1zM6 7l-.001.74S7.5 7.634 7.5 9v1.5c0 1.5-1.501 1.74-1.501 1.74L6 13h5.2l-.001-.76s-1.2 0-1.2-1.5L10 8s0-1-1-1H6z"/></svg>
