<svg xmlns="http://www.w3.org/2000/svg" viewBox="0 0 17 17" height="17" width="17"><title>laundry-11.svg</title><path fill="none" d="M0 0h17v17H0z"/><path fill="rgba(255,255,255,0.75)" d="M8 3L7 5H5S4 5 4 6v7s0 1 1 1h7c1 0 1-1 1-1V4c0-1-1-1-1-1H8zm1 1h3v1H9V4zm-.5 3a2.5 2.5 0 1 1 0 5 2.5 2.5 0 0 1 0-5z" stroke="rgba(255,255,255,0.75)" stroke-width="2" stroke-linejoin="round"/><path fill="#735139" d="M8 3L7 5H5S4 5 4 6v7s0 1 1 1h7c1 0 1-1 1-1V4c0-1-1-1-1-1H8zm1 1h3v1H9V4zm-.5 3a2.5 2.5 0 1 1 0 5 2.5 2.5 0 0 1 0-5z"/></svg>
