<svg xmlns="http://www.w3.org/2000/svg" viewBox="0 0 21 21" height="21" width="21"><title>laundry-15.svg</title><path fill="none" d="M0 0h21v21H0z"/><path fill="rgba(255,255,255,0.75)" d="M11 4L9 6H6S5 6 5 7v9c0 1 1 1 1 1h9s1 0 1-1V5c0-1-1-1-1-1h-4zm.5 1h2a.499.499 0 1 1 0 1h-2a.499.499 0 1 1 0-1zm-1 4a3 3 0 1 1 0 6 3 3 0 0 1 0-6z" stroke="rgba(255,255,255,0.75)" stroke-width="2" stroke-linejoin="round"/><path fill="#735139" d="M11 4L9 6H6S5 6 5 7v9c0 1 1 1 1 1h9s1 0 1-1V5c0-1-1-1-1-1h-4zm.5 1h2a.499.499 0 1 1 0 1h-2a.499.499 0 1 1 0-1zm-1 4a3 3 0 1 1 0 6 3 3 0 0 1 0-6z"/></svg>
