<svg xmlns="http://www.w3.org/2000/svg" width="15" height="15" viewBox="0 0 15 15"><title>level-crossing</title><path d="M11 13a2 2 0 0 1-1.4-.6l-2.1-2.1-2.1 2.1a2 2 0 1 1-2.8-2.8l2.1-2.1-2.1-2.1a1.93 1.93 0 0 1 0-2.8 1.93 1.93 0 0 1 2.8 0l2.1 2.1 2.1-2.1a1.93 1.93 0 0 1 2.8 0 1.93 1.93 0 0 1 0 2.8l-2.1 2.1 2.1 2.1A2 2 0 0 1 11 13z" fill="#fff"/><path d="M8.9 7.5l2.8-2.8a1 1 0 0 0-1.4-1.4L7.5 6.1 4.7 3.3a1 1 0 0 0-1.4 1.4l2.8 2.8-2.8 2.8a1 1 0 0 0 0 1.4.91.91 0 0 0 .7.3.91.91 0 0 0 .7-.3l2.8-2.8 2.8 2.8a1 1 0 0 0 1.4 0 1 1 0 0 0 0-1.4z" fill="#b6b8c3"/></svg>
