<svg xmlns="http://www.w3.org/2000/svg" viewBox="0 0 17 17" height="17" width="17"><title>library-11.svg</title><path fill="none" d="M0 0h17v17H0z"/><path fill="rgba(255,255,255,0.75)" d="M3 4v7c3.26 0 5.49 2 5.49 2s2.27-2 5.51-2V4c-4 0-5.51 1.725-5.51 1.725S7 4 3 4zm1 1c1.195-.031 3.053.402 4 1.348L8.5 7l.5-.652c.962-.93 2.8-1.36 4-1.348v5c-2 0-3.354.856-4.51 1.781C7.35 10.853 6 10 4 10V5zm1 1.303v.181c.823.17 2.1.687 3 1.176v-.228c-.917-.479-2.176-.972-3-1.13zm7 0c-.824.157-2.083.65-3 1.129v.228c.9-.489 2.177-1.007 3-1.176v-.181zm-7 .92v.181c.822.154 2.099.659 3 1.133v-.195c-.917-.476-2.176-.967-3-1.12zm7 0c-.824.152-2.083.643-3 1.119v.195c.901-.474 2.178-.979 3-1.133v-.181zm-7 .894V8.3c.822.155 2.098.659 3 1.133v-.196c-.918-.475-2.176-.965-3-1.119zm7 0c-.824.154-2.082.644-3 1.12v.195c.902-.474 2.178-.979 3-1.133v-.182zM5 9v.182c.82.14 2.097.629 3 1.087v-.15C7.082 9.644 5.824 9.154 5 9zm7 0c-.824.154-2.082.644-3 1.12v.15c.903-.459 2.18-.948 3-1.088V9z" stroke="rgba(255,255,255,0.75)" stroke-width="2" stroke-linejoin="round"/><path fill="#735139" d="M3 4v7c3.26 0 5.49 2 5.49 2s2.27-2 5.51-2V4c-4 0-5.51 1.725-5.51 1.725S7 4 3 4zm1 1c1.195-.031 3.053.402 4 1.348L8.5 7l.5-.652c.962-.93 2.8-1.36 4-1.348v5c-2 0-3.354.856-4.51 1.781C7.35 10.853 6 10 4 10V5zm1 1.303v.181c.823.17 2.1.687 3 1.176v-.228c-.917-.479-2.176-.972-3-1.13zm7 0c-.824.157-2.083.65-3 1.129v.228c.9-.489 2.177-1.007 3-1.176v-.181zm-7 .92v.181c.822.154 2.099.659 3 1.133v-.195c-.917-.476-2.176-.967-3-1.12zm7 0c-.824.152-2.083.643-3 1.119v.195c.901-.474 2.178-.979 3-1.133v-.181zm-7 .894V8.3c.822.155 2.098.659 3 1.133v-.196c-.918-.475-2.176-.965-3-1.119zm7 0c-.824.154-2.082.644-3 1.12v.195c.902-.474 2.178-.979 3-1.133v-.182zM5 9v.182c.82.14 2.097.629 3 1.087v-.15C7.082 9.644 5.824 9.154 5 9zm7 0c-.824.154-2.082.644-3 1.12v.15c.903-.459 2.18-.948 3-1.088V9z"/></svg>
