<svg xmlns="http://www.w3.org/2000/svg" viewBox="0 0 21 21" height="21" width="21"><title>library-15.svg</title><path fill="none" d="M0 0h21v21H0z"/><path fill="rgba(255,255,255,0.75)" d="M10.47 7.92S8.7 6 4 6v8c4.7 0 6.47 2 6.47 2s1.83-2 6.53-2V6c-4.7 0-6.53 1.92-6.53 1.92zM16 13a10.84 10.84 0 0 0-5.53 1.68A10.56 10.56 0 0 0 5 13V7c3.4.26 4.73 1.6 4.75 1.61l.73.74.72-.75S12.6 7.26 16 7v6zm-5 .24l-.1-.17a14.519 14.519 0 0 1 4.1-1.18v.2a14.27 14.27 0 0 0-4 1.18v-.03zm0-1l-.1-.17A14.51 14.51 0 0 1 15 10.9v.2a14.29 14.29 0 0 0-4 1.19v-.05zm0-1l-.1-.17A14.491 14.491 0 0 1 15 9.9v.2a14.24 14.24 0 0 0-4 1.19v-.05zm0-1l-.1-.17A14.45 14.45 0 0 1 15 8.9v.2a14.28 14.28 0 0 0-4 1.19v-.05zm-1.1 3A13.9 13.9 0 0 0 6 12.08v-.2c1.387.203 2.736.614 4 1.22l-.1.14zm0-1A13.899 13.899 0 0 0 6 11.1v-.2a14.12 14.12 0 0 1 4 1.21l-.1.13zm0-1A13.86 13.86 0 0 0 6 10.1v-.2c1.387.199 2.735.607 4 1.21l-.1.13zm0-1A13.899 13.899 0 0 0 6 9.1v-.2a14.1 14.1 0 0 1 4 1.21l-.1.13z" stroke="rgba(255,255,255,0.75)" stroke-width="2" stroke-linejoin="round"/><path fill="#735139" d="M10.47 7.92S8.7 6 4 6v8c4.7 0 6.47 2 6.47 2s1.83-2 6.53-2V6c-4.7 0-6.53 1.92-6.53 1.92zM16 13a10.84 10.84 0 0 0-5.53 1.68A10.56 10.56 0 0 0 5 13V7c3.4.26 4.73 1.6 4.75 1.61l.73.74.72-.75S12.6 7.26 16 7v6zm-5 .24l-.1-.17a14.519 14.519 0 0 1 4.1-1.18v.2a14.27 14.27 0 0 0-4 1.18v-.03zm0-1l-.1-.17A14.51 14.51 0 0 1 15 10.9v.2a14.29 14.29 0 0 0-4 1.19v-.05zm0-1l-.1-.17A14.491 14.491 0 0 1 15 9.9v.2a14.24 14.24 0 0 0-4 1.19v-.05zm0-1l-.1-.17A14.45 14.45 0 0 1 15 8.9v.2a14.28 14.28 0 0 0-4 1.19v-.05zm-1.1 3A13.9 13.9 0 0 0 6 12.08v-.2c1.387.203 2.736.614 4 1.22l-.1.14zm0-1A13.899 13.899 0 0 0 6 11.1v-.2a14.12 14.12 0 0 1 4 1.21l-.1.13zm0-1A13.86 13.86 0 0 0 6 10.1v-.2c1.387.199 2.735.607 4 1.21l-.1.13zm0-1A13.899 13.899 0 0 0 6 9.1v-.2a14.1 14.1 0 0 1 4 1.21l-.1.13z"/></svg>
