<svg xmlns="http://www.w3.org/2000/svg" viewBox="0 0 17 17" height="17" width="17"><title>lodging-11.svg</title><path fill="none" d="M0 0h17v17H0z"/><path fill="rgba(255,255,255,0.75)" d="M4.5 5a.5.5 0 0 0-.5.5v6a.5.5 0 0 0 1 0V11h7v.5a.5.5 0 0 0 1 0v-1a.5.5 0 0 0-.5-.5H5V5.5a.5.5 0 0 0-.5-.5zm2 0a1 1 0 1 0 0 2 1 1 0 0 0 0-2zM9 6a1 1 0 0 0-1 1v1H6a.5.5 0 0 0 0 1h7V8a2 2 0 0 0-2-2H9z" stroke="rgba(255,255,255,0.75)" stroke-width="2" stroke-linejoin="round"/><path fill="#735139" d="M4.5 5a.5.5 0 0 0-.5.5v6a.5.5 0 0 0 1 0V11h7v.5a.5.5 0 0 0 1 0v-1a.5.5 0 0 0-.5-.5H5V5.5a.5.5 0 0 0-.5-.5zm2 0a1 1 0 1 0 0 2 1 1 0 0 0 0-2zM9 6a1 1 0 0 0-1 1v1H6a.5.5 0 0 0 0 1h7V8a2 2 0 0 0-2-2H9z"/></svg>
