<svg xmlns="http://www.w3.org/2000/svg" viewBox="0 0 21 21" height="21" width="21"><title>lodging-15.svg</title><path fill="none" d="M0 0h21v21H0z"/><path fill="rgba(255,255,255,0.75)" d="M3.5 5.5c-.3 0-.5.2-.5.5v9.5c0 .3.2.5.5.5s.5-.2.5-.5V14h13v1.5c0 .3.2.5.5.5s.5-.2.5-.5v-2c0-.3-.2-.5-.5-.5H4V6c0-.3-.2-.5-.5-.5zm3 .5C5.7 6 5 6.7 5 7.5S5.7 9 6.5 9 8 8.3 8 7.5 7.3 6 6.5 6zM10 7C8.5 7 8.5 8.5 8.5 8.5V10h-3c-.3 0-.5.2-.5.5v1c0 .3.2.5.5.5H18V9.5C18 7 15.5 7 15.5 7H10z" stroke="rgba(255,255,255,0.75)" stroke-width="2" stroke-linejoin="round"/><path fill="#735139" d="M3.5 5.5c-.3 0-.5.2-.5.5v9.5c0 .3.2.5.5.5s.5-.2.5-.5V14h13v1.5c0 .3.2.5.5.5s.5-.2.5-.5v-2c0-.3-.2-.5-.5-.5H4V6c0-.3-.2-.5-.5-.5zm3 .5C5.7 6 5 6.7 5 7.5S5.7 9 6.5 9 8 8.3 8 7.5 7.3 6 6.5 6zM10 7C8.5 7 8.5 8.5 8.5 8.5V10h-3c-.3 0-.5.2-.5.5v1c0 .3.2.5.5.5H18V9.5C18 7 15.5 7 15.5 7H10z"/></svg>
