<svg xmlns="http://www.w3.org/2000/svg" width="58" height="16" viewBox="0 0 58 16"><title>london-dlr.london-tfl-rail.london-underground</title><path d="M55.6 5.5a8 8 0 0 0-15.19 0H36.6a8 8 0 0 0-15.19 0H17.6a8 8 0 0 0-15.2 0H0v5h2.4a8 8 0 0 0 15.19 0h3.81a8 8 0 0 0 15.19 0h3.81a8 8 0 0 0 15.19 0H58v-5h-2.4z" fill="#fff" opacity=".75"/><circle cx="10" cy="8" r="4" fill="#fff"/><path d="M10 1a7 7 0 1 0 7 7 7 7 0 0 0-7-7zm0 11a4 4 0 1 1 4-4 4 4 0 0 1-4 4z" fill="#32a5a5"/><path fill="#4862cc" d="M1 6.5h18v3H1z"/><circle cx="29" cy="8" r="4" fill="#fff"/><path d="M29 1a7 7 0 1 0 7 7 7 7 0 0 0-7-7zm0 11a4 4 0 1 1 4-4 4 4 0 0 1-4 4z" fill="#4862cc"/><path fill="#4862cc" d="M20 6.5h18v3H20z"/><circle cx="48" cy="8" r="4" fill="#fff"/><path d="M48 1a7 7 0 1 0 7 7 7 7 0 0 0-7-7zm0 11a4 4 0 1 1 4-4 4 4 0 0 1-4 4z" fill="#f23d3d"/><path fill="#4862cc" d="M39 6.5h18v3H39z"/></svg>
