<svg width="30" height="30" viewBox="0 0 30 30" xmlns="http://www.w3.org/2000/svg"><title>loading-moon</title><path d="M3.681 4.167c3.09-1.07 6.403-1.02 9.323.655 1.764 1.012 3.631 1.956 5.081 3.566 1.958 2.175 3.785 4.308 4.232 7.477.063 3.46-.081 6.11-1.919 8.236-1.151 1.332-2.083 2.92-3.48 4.182a14.306 14.306 0 0 0 5.132-2.977c3.27-2.944 4.672-6.56 4.833-10.904-.47-3.528-1.384-6.479-3.655-9-1.431-1.59-3.07-2.3-5.008-3.538C12.767.378 7.82.677 3.68 4.167z" fill="#5800EC" fill-rule="evenodd"/></svg>