<svg width="433" height="240" viewBox="0 0 433 240" xmlns="http://www.w3.org/2000/svg"><title>loading-graphic</title><g fill="none" fill-rule="evenodd"><path d="M360.602 173.425c0 43.75-.73 50.626 14.588 52.078 15.317 1.451 1.305-61.718 25.173-61.718 19.186 0 9.207 44.405 22.634 44.656 7.267.135 11.781-59.465 8.573-100.747-3.053-39.285-40.35-59.422-64.246-58.49-15.932.62-24.911-28.293-43.527-27.737-18.617.557-32.566 42-70.496 42-34.385 0-61.896-20.055-79.947-44.26-2.47-3.314-13.01 8.12-15.945 6.52C154.474 24.126 139.464 3.895 135.996 4c-22.193.675-22.164 50.629-49.045 50.629-16.768 0-44.98 4.205-61.47 12.165-16.489 7.96-22.416 28.398-23.872 47.85-4.39 58.616 7.123 81.346 17.986 81.346s2.019-22.565 14.938-22.565c8.593 0 12.123 56.849 20.674 57.12 8.55.272 7.648-35.725 14.147-37.817 7.572-2.436.375 15.963 13.802 15.713s3.448-44.656 22.634-44.656c23.869 0 9.856 63.17 25.173 61.718 15.317-1.452 13.249-11.631 13.249-55.38-.313-4.363.667-6.445 1.026-8.243 2.038-10.2 6.678-9.638 9.176-4.854 4.69 8.98 4.815 29.823 4.714 33.08-.339 10.92 14.414 9.846 13.812 2.49-.235-2.864-.16-12.3.414-18.122.51-5.17 8.113-7.264 8.155 1.38.025 5.116-2.217 39.722 2.835 55.257 2.541 7.817 12.9 6.372 14.419-1.009 2.147-10.441.848-11.856.527-23.673-.927-34.148-.486-36.09 6.315-43.13 7.034-7.28 18.454-9.42 22.58 12.554 4.127 21.975-2.698 24.924 9.036 33.265 2.44 1.735 7.083 3.645 11.066 3.137 1.194-.153 9.49-2.432 8.947-13.684-.266-5.52-1.343-12.49 4.37-15.103 3.634-1.662 2.552 9.655 2.591 11.923.044 2.517.729 6.584 2.514 6.633.869.024 3.617-.726 4.11-6.633.526-6.278-4.11-41.664 14.253-41.93 18.983-.938 19.418 28.56 18.983 41.117-.435 12.558 3.513 22.808 8.51 22.581 4.995-.227 5.829-7.83 5.396-14.095-.306-4.412 0-2.114 0-6.594 0-7.725 5.836-8.335 5.836 1.04 0 26.46-.658-1.962 0 18.689.126 3.98 1.513 8.031 3.362 10.478 1.849 2.447 7.49 2.546 8.922 0 3.858-6.86 2.067-45.952 1.873-48.283-.27-3.263-2.77-15.907 4.459-15.095 6.386.718.71 28.15 10.949 27.847 7.003-.207 3.047-23.866 3.712-29.266 1.722-1.93 2.898 1.918 3.528 11.545z" fill="#5800EC"/><path d="M116.999 33.606c-2.597 4.519 2.795 11.534 7.212 8.168 4.417-3.365 4.48 6.579 15.695 7.144 6.379.321 11.235-10.438 13-11.852 4.833-3.872 8.257 7.956 14.329 6.574 3.926-.894 1.347-7.242 3.313-8.919 2.967-2.528 5.934 1.893 10.397 3.404.978.33 3.535.3 1.21-2.932-.505-.702-8.117-11.877-10.518-11.5-3.787.597-11.395 8.525-14.289 8.436-2.825-.086-19.4-24.484-24.198-23.533-1.322.261-2.358.358-5.587 4.27-2.65 3.208-6.171 10.122-10.564 20.74zM90.723 110.172c0 4.426.124 8.563-2.976 11.666-2.15 2.151-4.63 3.31-8.228 3.31-3.597 0-6.078-1.159-8.227-3.31-3.101-3.103-2.977-7.24-2.977-11.666 0-4.427-.124-8.564 2.977-11.666 2.15-2.151 4.63-3.31 8.227-3.31 3.597 0 6.078 1.159 8.228 3.31 3.1 3.102 2.976 7.24 2.976 11.666zm-7.235 0c0-5.378-.413-6.371-1.075-7.24-.537-.703-1.57-1.282-2.894-1.282-1.323 0-2.357.579-2.894 1.282-.662.869-1.075 1.862-1.075 7.24s.413 6.33 1.075 7.198c.537.703 1.571 1.324 2.894 1.324 1.323 0 2.357-.62 2.894-1.324.662-.869 1.075-1.82 1.075-7.198zm40.06 4.385c0 6.454-5.086 10.59-11.204 10.59-6.12 0-11.122-4.136-11.122-10.59V95.444h7.235v18.947c0 2.73 1.489 4.303 3.887 4.303 2.398 0 3.969-1.572 3.969-4.303V95.444h7.235v19.113zm31.419-12.659h-7.236V124.9h-7.235v-23h-7.235v-6.455h21.706v6.454zm30.22 23.001h-20.011V95.444h20.01v6.454h-12.775v4.923h10.915v6.454H172.41v5.17h12.775v6.454zm34.395 0h-8.393l-5.21-10.963h-2.439V124.9h-7.235V95.444h11.659c6.532 0 10.047 4.634 10.047 9.474 0 4.013-2.48 6.536-4.796 7.695l6.367 12.286zm-8.807-19.981c0-1.53-1.157-2.979-3.142-2.979h-4.093v5.958h4.093c1.985 0 3.142-1.448 3.142-2.979zm55.11 19.981h-7.236v-14.107l-4.176 7.281h-4.63l-4.176-7.28v14.106h-7.235V95.444h7.111l6.615 12.99 6.615-12.99h7.111V124.9zm35.966 0h-7.566l-1.364-4.385h-9.055l-1.447 4.385h-7.566l10.708-29.455h5.582L301.85 124.9zm-10.832-10.425l-2.48-7.86-2.647 7.86h5.127zm41.507-9.556c0 4.84-3.515 9.473-10.047 9.473h-4.424V124.9h-7.235V95.444h11.659c6.532 0 10.047 4.634 10.047 9.474zm-7.236 0c0-1.53-1.157-2.979-3.142-2.979h-4.093v5.958h4.093c1.985 0 3.142-1.448 3.142-2.979zm37.207 10.963c0 5.998-5.168 9.266-11.37 9.266-4.506 0-8.186-.827-11.162-3.888l4.63-4.634c1.53 1.531 4.217 2.069 6.574 2.069 2.853 0 4.217-.952 4.217-2.648 0-.703-.165-1.282-.579-1.737-.372-.373-.992-.662-1.943-.786l-3.556-.497c-2.604-.372-4.589-1.24-5.912-2.606-1.364-1.406-2.026-3.392-2.026-5.916 0-5.378 4.052-9.308 10.75-9.308 4.217 0 7.4.993 9.922 3.517l-4.547 4.55c-1.86-1.861-4.3-1.737-5.582-1.737-2.522 0-3.556 1.448-3.556 2.73 0 .372.125.91.58 1.365.371.373.992.745 2.025.869l3.556.496c2.646.373 4.548 1.2 5.788 2.441 1.571 1.53 2.191 3.723 2.191 6.454zM301.345 44.94c-.687 2.746 2.086 3.524 5.58.78 3.493-2.744-1.663 11.114 7.208 11.575 5.046.262 8.888-8.51 10.283-9.663 3.824-3.157 6.532 6.487 11.335 5.36 3.106-.729 1.066-5.905 2.621-7.272 2.347-2.062 4.396 3.573 8.224 2.775 1.01-.21 1.143-3.132 1.03-4.189-.04-.376-11.271-18.224-22.382-18.224-7.407 0-15.373 6.286-23.9 18.858z" fill="#FFF"/></g></svg>